# Blender 4.3.2
# www.blender.org
mtllib 上屋脊.mtl
o 上屋脊
v -0.250791 -0.123111 1.086124
v -0.249378 -0.124767 1.087184
v -0.249827 -0.125457 1.088142
v -0.251098 -0.124797 1.090472
v -0.251468 -0.123581 1.091002
v -0.252887 -0.121923 1.089953
v -0.176219 -0.118340 1.113285
v -0.224966 -0.124482 1.092559
v -0.225314 -0.121591 1.091436
v -0.219865 -0.111335 1.090449
v -0.174046 -0.113281 1.112757
v -0.128908 -0.112179 1.132807
v -0.130985 -0.116576 1.133191
v -0.083440 -0.107631 1.153293
v -0.082836 -0.114992 1.155677
v -0.180968 -0.122933 1.120592
v -0.227630 -0.128991 1.100505
v -0.135899 -0.120806 1.140350
v -0.085610 -0.119500 1.163833
v -0.231386 -0.120851 1.104333
v -0.182836 -0.114682 1.125431
v -0.180668 -0.109630 1.124911
v -0.226318 -0.107701 1.102295
v -0.231737 -0.117963 1.103223
v -0.137603 -0.112992 1.145380
v -0.135523 -0.108604 1.144995
v -0.089458 -0.111524 1.167900
v -0.090064 -0.104166 1.165518
v -0.077844 -0.121440 1.159722
v -0.080620 -0.125951 1.167881
v -0.028394 -0.122000 1.181683
v -0.031172 -0.126524 1.189848
v 0.016771 -0.128821 1.204176
v 0.013992 -0.133345 1.212340
v 0.057938 -0.137235 1.225149
v 0.055160 -0.141759 1.233314
v 0.102811 -0.149503 1.249532
v 0.100033 -0.154027 1.257697
v 0.143013 -0.161886 1.271971
v 0.140234 -0.166410 1.280135
v 0.186101 -0.179342 1.296303
v 0.183322 -0.183866 1.304468
v 0.229329 -0.198798 1.321273
v 0.226551 -0.203322 1.329438
v 0.272098 -0.217471 1.346653
v 0.268496 -0.222382 1.353851
v -0.084580 -0.116691 1.171528
v -0.035026 -0.118561 1.193920
v 0.010139 -0.125382 1.216414
v 0.051306 -0.133796 1.237387
v 0.096180 -0.146064 1.261771
v 0.136381 -0.158447 1.284208
v 0.179469 -0.175903 1.308542
v 0.222697 -0.195359 1.333511
v 0.264951 -0.214504 1.357585
v 0.277821 -0.196503 1.343959
v 0.264951 -0.214504 1.357586
v 0.270067 -0.194004 1.353626
v -0.074818 -0.107604 1.157012
v -0.025684 -0.100517 1.176613
v 0.019491 -0.107461 1.199147
v 0.060713 -0.116515 1.220330
v 0.105517 -0.127977 1.244448
v 0.145771 -0.140971 1.267087
v 0.143013 -0.161885 1.271971
v 0.188780 -0.157516 1.291121
v 0.232089 -0.177897 1.316394
v -0.084580 -0.116691 1.171528
v -0.081445 -0.104144 1.169241
v -0.032317 -0.097078 1.188851
v 0.012859 -0.104022 1.211385
v 0.051306 -0.133796 1.237387
v 0.054081 -0.113077 1.232567
v 0.098885 -0.124538 1.256686
v 0.136381 -0.158447 1.284208
v 0.139139 -0.137532 1.279325
v 0.179469 -0.175903 1.308541
v 0.182148 -0.154077 1.303359
v 0.225456 -0.174458 1.328632
v -0.238385 -0.112094 1.097558
v -0.238309 -0.112084 1.095914
v -0.235873 -0.117834 1.098508
v -0.234411 -0.114293 1.088793
v -0.232522 -0.115334 1.086766
v -0.231985 -0.120039 1.091408
v -0.232889 -0.121910 1.094669
v -0.232403 -0.124438 1.097213
v -0.234200 -0.121194 1.097083
v -0.245309 -0.117844 1.094031
v -0.244142 -0.119594 1.094977
v -0.244584 -0.115327 1.093778
v -0.240686 -0.117536 1.086656
v -0.240254 -0.121800 1.087876
v -0.241415 -0.120051 1.086920
v -0.241157 -0.123670 1.091137
v -0.242469 -0.122955 1.093550
v -0.247868 -0.117553 1.092431
v -0.244384 -0.119528 1.086066
v 1.027547 -0.221673 0.449549
v 1.028287 -0.224001 0.451678
v 1.027344 -0.223204 0.451414
v 1.030975 -0.223647 0.452036
v 1.031766 -0.222520 0.451988
v 1.031982 -0.220988 0.450127
v 1.005337 -0.209440 0.524905
v 1.016794 -0.217359 0.472904
v 1.017123 -0.220249 0.474035
v 1.014030 -0.206470 0.476007
v 1.004246 -0.204129 0.526002
v 0.994451 -0.203348 0.572758
v 0.993451 -0.198715 0.573906
v 0.983857 -0.197235 0.624496
v 0.983229 -0.189872 0.622124
v 1.013402 -0.215021 0.525831
v 1.024466 -0.225529 0.476999
v 1.002541 -0.208581 0.573441
v 0.991432 -0.202542 0.627499
v 1.030743 -0.218163 0.475831
v 1.018290 -0.202071 0.527867
v 1.019372 -0.207374 0.526767
v 1.030424 -0.215278 0.474704
v 1.027725 -0.204390 0.477818
v 1.007507 -0.196733 0.575800
v 1.008511 -0.201358 0.574650
v 0.997306 -0.188004 0.624040
v 0.997933 -0.195364 0.626412
v 0.990885 -0.208565 0.634304
v 0.983308 -0.203256 0.631302
v 0.978841 -0.204397 0.686892
v 0.971259 -0.199074 0.683887
v 0.968996 -0.206976 0.736779
v 0.961414 -0.201653 0.733774
v 0.960125 -0.211532 0.782670
v 0.952543 -0.206209 0.779665
v 0.951284 -0.219659 0.833802
v 0.943703 -0.214335 0.830797
v 0.943664 -0.228354 0.880054
v 0.936083 -0.223031 0.877050
v 0.935207 -0.241836 0.930055
v 0.927626 -0.236513 0.927050
v 0.926927 -0.257320 0.980675
v 0.919346 -0.251997 0.977671
v 0.919017 -0.272536 1.029916
v 0.911760 -0.266788 1.028125
v 0.997276 -0.200103 0.632796
v 0.997933 -0.195364 0.626412
v 0.985348 -0.197233 0.685806
v 0.975503 -0.199813 0.735693
v 0.966633 -0.204368 0.781585
v 0.957792 -0.212495 0.832716
v 0.950172 -0.221190 0.878969
v 0.941715 -0.234672 0.928969
v 0.933435 -0.250156 0.979590
v 0.925061 -0.265397 1.028875
v 0.908795 -0.245151 1.029758
v 0.921393 -0.244220 1.029289
v 0.981056 -0.189013 0.631219
v 0.983857 -0.197235 0.624496
v 0.968263 -0.177151 0.681659
v 0.958428 -0.179854 0.731586
v 0.949612 -0.185050 0.777687
v 0.940702 -0.192369 0.828554
v 0.936083 -0.223031 0.877050
v 0.933135 -0.201676 0.875007
v 0.924600 -0.214247 0.924710
v 0.916399 -0.230657 0.975632
v 0.995138 -0.187149 0.633135
v 0.982352 -0.175310 0.683578
v 0.972517 -0.178013 0.733505
v 0.963702 -0.183208 0.779607
v 0.966633 -0.204368 0.781585
v 0.954792 -0.190528 0.830474
v 0.947224 -0.199835 0.876927
v 0.950172 -0.221190 0.878969
v 0.938689 -0.212406 0.926629
v 0.930488 -0.228815 0.977552
v 1.030602 -0.209935 0.465640
v 1.029253 -0.209815 0.464705
v 1.029156 -0.215369 0.468560
v 1.021004 -0.211088 0.463632
v 1.018144 -0.211762 0.463972
v 1.020932 -0.216641 0.467492
v 1.023830 -0.218805 0.468860
v 1.025251 -0.221405 0.470939
v 1.026615 -0.218405 0.469234
v 1.031213 -0.216266 0.458361
v 1.031054 -0.217914 0.459966
v 1.030891 -0.213667 0.458630
v 1.022643 -0.214940 0.457556
v 1.022830 -0.219185 0.458898
v 1.022976 -0.217537 0.457289
v 1.025728 -0.221349 0.460265
v 1.028513 -0.220950 0.460640
v 1.031501 -0.216195 0.455342
v 1.024129 -0.217332 0.454383
v 1.404343 0.045102 1.164893
v 1.403258 0.042946 1.165082
v 1.403856 0.041905 1.164692
v 1.405126 0.041255 1.162359
v 1.405331 0.041967 1.161197
v 1.406421 0.044118 1.160996
v 1.331399 0.021415 1.143930
v 1.379398 0.036245 1.161810
v 1.379238 0.039254 1.160999
v 1.372229 0.047138 1.156044
v 1.328447 0.025408 1.141493
v 1.284752 0.007529 1.126939
v 1.287500 0.004133 1.129108
v 1.240222 -0.007919 1.110024
v 1.240883 -0.015259 1.112456
v 1.337163 0.014205 1.140489
v 1.383124 0.028404 1.157909
v 1.293364 -0.002676 1.125565
v 1.244729 -0.023206 1.108380
v 1.385768 0.033198 1.149843
v 1.337978 0.018202 1.131639
v 1.335032 0.022185 1.129198
v 1.378634 0.044057 1.144016
v 1.385612 0.036199 1.149025
v 1.294093 0.000836 1.116824
v 1.291344 0.004226 1.114661
v 1.247500 -0.018668 1.100214
v 1.246842 -0.011330 1.097781
v 1.237157 -0.023528 1.113232
v 1.241005 -0.031477 1.109156
v 1.189561 -0.044514 1.098330
v 1.193414 -0.052477 1.094257
v 1.147187 -0.070125 1.086462
v 1.151040 -0.078088 1.082388
v 1.108926 -0.095489 1.076555
v 1.112779 -0.103452 1.072481
v 1.067775 -0.126491 1.066347
v 1.071628 -0.134454 1.062274
v 1.031154 -0.155720 1.057541
v 1.035007 -0.163682 1.053468
v 0.992563 -0.190536 1.050334
v 0.996417 -0.198499 1.046261
v 0.954175 -0.227338 1.043794
v 0.958029 -0.235300 1.039721
v 0.916141 -0.263686 1.036442
v 0.920817 -0.271262 1.033334
v 1.243668 -0.025656 1.100568
v 1.247500 -0.018668 1.100214
v 1.196193 -0.047953 1.086093
v 1.153819 -0.073563 1.074224
v 1.115558 -0.098928 1.064318
v 1.074407 -0.129930 1.054109
v 1.037786 -0.159159 1.045303
v 0.999196 -0.193975 1.038096
v 0.960807 -0.230776 1.031557
v 0.923288 -0.266653 1.025508
v 0.907121 -0.246335 1.026581
v 0.914875 -0.248835 1.016915
v 1.231899 -0.011414 1.107441
v 1.240883 -0.015259 1.112456
v 1.183315 -0.024892 1.089933
v 1.140951 -0.050625 1.078105
v 1.102746 -0.076630 1.068408
v 1.061526 -0.106825 1.057937
v 1.024957 -0.136665 1.049331
v 1.031154 -0.155720 1.057541
v 0.986288 -0.170571 1.041825
v 0.947980 -0.208297 1.035589
v 1.238522 -0.014831 1.095198
v 1.189947 -0.028331 1.077696
v 1.147583 -0.054064 1.065868
v 1.115558 -0.098928 1.064318
v 1.109378 -0.080069 1.056171
v 1.068158 -0.110264 1.045698
v 1.037786 -0.159158 1.045303
v 1.031589 -0.140104 1.037093
v 0.992920 -0.174010 1.029587
v 0.954612 -0.211736 1.023351
v 1.390979 0.045216 1.149813
v 1.390820 0.046178 1.151138
v 1.389436 0.039711 1.152547
v 1.386954 0.048008 1.158385
v 1.385149 0.048081 1.160728
v 1.385580 0.041533 1.159772
v 1.386925 0.038270 1.158194
v 1.386965 0.034692 1.157649
v 1.388231 0.037622 1.155757
v 1.398521 0.043791 1.155691
v 1.397687 0.041666 1.156015
v 1.397404 0.045827 1.154452
v 1.393538 0.047657 1.161698
v 1.393832 0.043487 1.163241
v 1.394660 0.045618 1.162927
v 1.395177 0.040224 1.161662
v 1.396483 0.039576 1.159227
v 1.400921 0.045358 1.156682
v 1.397465 0.046993 1.163159
v 0.126010 0.143667 1.801477
v 0.125746 0.140453 1.801164
v 0.126540 0.141387 1.800861
v 0.123058 0.140108 1.800803
v 0.122101 0.140910 1.800219
v 0.121558 0.143187 1.800832
v 0.149847 0.112518 1.732318
v 0.137135 0.135025 1.779541
v 0.137314 0.132015 1.780342
v 0.138339 0.142276 1.770495
v 0.150159 0.116259 1.728256
v 0.162068 0.090909 1.689549
v 0.162398 0.094068 1.685848
v 0.174194 0.066987 1.643645
v 0.173558 0.074326 1.641201
v 0.142798 0.106296 1.735259
v 0.131034 0.124946 1.781424
v 0.154928 0.085103 1.692483
v 0.167691 0.059839 1.644722
v 0.123644 0.130514 1.778355
v 0.136079 0.114629 1.726252
v 0.135775 0.110897 1.730311
v 0.123456 0.133517 1.777553
v 0.124596 0.140749 1.768502
v 0.148318 0.092358 1.683865
v 0.147984 0.089206 1.687563
v 0.159476 0.072510 1.639267
v 0.160114 0.065175 1.641710
v 0.169506 0.051140 1.642740
v 0.176010 0.058291 1.641661
v 0.183405 0.025399 1.597220
v 0.189913 0.032563 1.596135
v 0.196041 -0.004453 1.557958
v 0.202549 0.002711 1.556872
v 0.207818 -0.033676 1.523133
v 0.214325 -0.026512 1.522048
v 0.220382 -0.068819 1.486178
v 0.226889 -0.061655 1.485091
v 0.231582 -0.101735 1.453557
v 0.238089 -0.094571 1.452471
v 0.244536 -0.140526 1.420682
v 0.251044 -0.133362 1.419596
v 0.257657 -0.181299 1.388492
v 0.264164 -0.174135 1.387406
v 0.270302 -0.221104 1.357277
v 0.276484 -0.214366 1.354977
v 0.161816 0.057759 1.639308
v 0.160114 0.065175 1.641710
v 0.175824 0.030722 1.594216
v 0.188460 0.000870 1.554953
v 0.200236 -0.028352 1.520129
v 0.212800 -0.063496 1.483172
v 0.224000 -0.096412 1.450552
v 0.236954 -0.135203 1.417677
v 0.250075 -0.175976 1.385487
v 0.263182 -0.215756 1.354227
v 0.276152 -0.197685 1.340791
v 0.263183 -0.215756 1.354227
v 0.263554 -0.198615 1.341260
v 0.176029 0.069998 1.633242
v 0.174194 0.066987 1.643645
v 0.189373 0.051745 1.584896
v 0.202019 0.021770 1.545674
v 0.214325 -0.026512 1.522048
v 0.213851 -0.008093 1.511060
v 0.226345 -0.042429 1.473840
v 0.238089 -0.094571 1.452471
v 0.237598 -0.075956 1.441420
v 0.250474 -0.113837 1.408245
v 0.263674 -0.155534 1.376359
v 0.161944 0.068178 1.631312
v 0.161816 0.057759 1.639308
v 0.175284 0.049904 1.582977
v 0.187930 0.019929 1.543755
v 0.199762 -0.009933 1.509140
v 0.200236 -0.028352 1.520129
v 0.212256 -0.044270 1.471920
v 0.223509 -0.077797 1.439501
v 0.224000 -0.096412 1.450552
v 0.236385 -0.115677 1.406326
v 0.249585 -0.157375 1.374440
v 0.121998 0.143060 1.781740
v 0.123263 0.143912 1.782356
v 0.124411 0.137250 1.782503
v 0.131544 0.144805 1.783553
v 0.134488 0.144512 1.783531
v 0.132667 0.138138 1.783697
v 0.130212 0.135168 1.784011
v 0.129316 0.131662 1.783932
v 0.127421 0.134836 1.783615
v 0.122004 0.142216 1.791370
v 0.122496 0.139988 1.791034
v 0.121934 0.144172 1.789610
v 0.130215 0.145065 1.790807
v 0.130753 0.140876 1.792229
v 0.130273 0.143107 1.792565
v 0.128297 0.137906 1.792542
v 0.125506 0.137574 1.792147
v 0.121556 0.144002 1.793779
v 0.128957 0.144801 1.794850
v 0.872329 -0.255383 1.048275
v 0.872878 -0.259707 1.050047
v 0.912110 -0.262732 1.030510
v 0.276118 -0.228160 1.354128
v 0.315067 -0.235492 1.336799
v 0.314512 -0.231120 1.335009
v 0.877183 -0.278388 1.061585
v 0.876934 -0.273520 1.060332
v 0.916352 -0.276560 1.040703
v 0.277245 -0.209906 1.354032
v 0.315573 -0.207959 1.333552
v 0.315825 -0.212881 1.334820
v 0.263551 -0.204159 1.345647
v 0.272239 -0.235366 1.367926
v 0.270310 -0.199374 1.358479
v 0.267681 -0.238593 1.359272
v 0.917656 -0.254593 1.019916
v 0.924415 -0.249808 1.032748
v 0.926344 -0.285800 1.042195
v 0.921786 -0.289027 1.033542
v 0.874848 -0.285076 1.057931
v 0.874424 -0.285375 1.057127
v 0.922620 -0.298715 1.036716
v 0.273073 -0.245053 1.371099
v 0.318347 -0.239248 1.343968
v 0.318763 -0.238953 1.344758
v 0.312104 -0.212141 1.327234
v 0.274264 -0.213552 1.348144
v 0.312659 -0.216512 1.329025
v 0.666312 -0.251013 1.156366
v 0.874731 -0.274315 1.056031
v 0.875280 -0.278640 1.057803
v 0.913964 -0.277340 1.036494
v 0.316967 -0.235248 1.340577
v 0.278135 -0.227350 1.358521
v 0.316715 -0.230325 1.339309
v 0.668996 -0.248800 1.161414
v 0.876043 -0.256077 1.055842
v 0.875795 -0.251208 1.054589
v 0.915461 -0.259116 1.036213
v 0.314621 -0.241886 1.336894
v 0.268515 -0.248280 1.362446
v 0.314205 -0.242180 1.336105
v 0.669210 -0.267763 1.164781
v 0.878982 -0.282148 1.065780
v 0.878559 -0.282448 1.064976
v 0.927177 -0.295488 1.045369
v 0.874848 -0.285076 1.057931
v 0.878559 -0.282448 1.064976
v 0.667239 -0.258317 1.159358
v 0.668550 -0.240078 1.159169
v 0.671489 -0.266150 1.169107
v 0.665385 -0.243709 1.153374
v 0.669441 -0.257522 1.163659
v 0.666931 -0.269377 1.160454
v 0.878982 -0.282148 1.065780
v 0.870294 -0.250941 1.043501
v 0.910536 -0.262379 1.027294
v 0.871303 -0.259354 1.046831
v 0.274801 -0.230807 1.351895
v 0.313196 -0.233768 1.332775
v 0.272690 -0.213198 1.344928
v 0.912647 -0.279988 1.034261
v 0.310075 -0.207746 1.322479
v 0.311084 -0.216158 1.325808
v 0.873415 -0.276963 1.053798
v 0.666931 -0.269377 1.160454
v 0.665922 -0.260965 1.157125
v 0.662801 -0.234943 1.146829
v 0.663810 -0.243355 1.150158
v 0.918092 -0.276509 1.044190
v 0.878675 -0.273470 1.063819
v 0.316834 -0.202961 1.335311
v 0.278868 -0.208494 1.357072
v 0.317447 -0.211468 1.337860
v 0.279876 -0.227300 1.362008
v 0.917084 -0.257703 1.039253
v 0.318456 -0.230275 1.342797
v 0.877053 -0.246156 1.056333
v 0.877666 -0.254663 1.058882
v 0.669560 -0.230157 1.159660
v 0.670174 -0.238665 1.162210
v 0.671489 -0.266150 1.169107
v 0.671182 -0.257471 1.167146
vn -0.3645 -0.6128 -0.7012
vn 0.0627 -0.6929 -0.7183
vn -0.2366 -0.9446 -0.2276
vn -0.5987 -0.7255 0.3394
vn -0.7051 -0.3641 0.6085
vn -0.8021 -0.4044 0.4395
vn 0.3559 -0.6222 -0.6973
vn 0.0834 -0.6618 -0.7451
vn 0.1977 -0.3673 -0.9088
vn 0.3874 -0.2887 -0.8755
vn 0.4034 -0.2648 -0.8759
vn 0.4082 -0.2679 -0.8727
vn 0.3350 -0.6361 -0.6951
vn 0.4184 -0.2485 -0.8736
vn 0.3406 -0.6480 -0.6813
vn -0.0331 -0.9618 0.2718
vn -0.3010 -0.9448 0.1292
vn -0.0754 -0.9671 0.2431
vn -0.0714 -0.9740 0.2151
vn -0.6099 -0.2287 0.7587
vn -0.3888 -0.1354 0.9113
vn -0.4035 0.2653 0.8756
vn -0.4228 0.3006 0.8549
vn -0.4464 0.2832 0.8488
vn -0.4020 -0.1603 0.9015
vn -0.4103 0.2707 0.8708
vn -0.4094 -0.2133 0.8870
vn -0.4167 0.2500 0.8740
vn -0.0219 0.9530 -0.3022
vn 0.1163 0.9670 -0.2265
vn 0.1140 0.9668 -0.2288
vn -0.0066 0.9550 -0.2966
vn 0.0555 0.9660 -0.2525
vn 0.0534 0.9655 -0.2549
vn 0.0235 0.9651 -0.2608
vn 0.0238 0.9647 -0.2623
vn -0.4628 -0.6997 -0.5443
vn -0.2119 -0.8229 -0.5271
vn -0.4074 -0.9071 0.1060
vn -0.7272 -0.6731 -0.1343
vn 0.1413 -0.8855 -0.4426
vn -0.1738 -0.9673 0.1849
vn 0.0788 -0.8831 -0.4626
vn -0.2484 -0.9573 0.1476
vn 0.0424 -0.8800 -0.4732
vn -0.2943 -0.9485 0.1171
vn 0.0124 -0.8764 -0.4814
vn -0.3296 -0.9392 0.0967
vn -0.0265 -0.8705 -0.4914
vn -0.3789 -0.9226 0.0724
vn -0.0771 -0.8607 -0.5033
vn -0.4186 -0.9070 0.0455
vn -0.0773 -0.8607 -0.5032
vn -0.0897 -0.8554 -0.5102
vn -0.4291 -0.9024 0.0402
vn -0.0201 -0.8212 -0.5703
vn -0.3822 -0.9232 -0.0414
vn -0.6851 -0.5225 0.5076
vn -0.7898 -0.5345 0.3009
vn -0.3842 -0.5557 0.7373
vn -0.4455 -0.5692 0.6911
vn -0.4800 -0.5724 0.6648
vn -0.4456 -0.5691 0.6910
vn -0.5143 -0.5746 0.6366
vn -0.5417 -0.5755 0.6127
vn -0.5741 -0.5757 0.5822
vn -0.5870 -0.5754 0.5696
vn -0.5921 -0.5496 0.5894
vn 0.8163 -0.0751 0.5728
vn 0.9242 -0.2113 0.3182
vn 0.7932 -0.0772 0.6040
vn 0.7366 -0.0147 0.6762
vn 0.8161 -0.0751 0.5730
vn 0.7931 -0.0772 0.6042
vn 0.7694 -0.0693 0.6350
vn 0.3845 -0.2570 -0.8866
vn 0.3869 -0.2579 -0.8853
vn 0.3879 -0.2578 -0.8849
vn 0.3884 -0.2549 -0.8855
vn 0.3946 -0.2579 -0.8819
vn 0.3947 -0.2579 -0.8819
vn 0.3978 -0.2580 -0.8804
vn 0.3976 -0.2580 -0.8806
vn 0.4004 -0.2581 -0.8792
vn 0.4015 -0.2582 -0.8787
vn 0.4072 -0.2581 -0.8761
vn 0.4077 -0.2581 -0.8759
vn 0.4027 -0.2581 -0.8782
vn 0.4000 -0.2581 -0.8794
vn 0.4075 -0.2581 -0.8759
vn 0.3938 -0.2578 -0.8823
vn 0.3937 -0.2578 -0.8823
vn 0.4016 -0.2550 -0.8796
vn 0.4019 -0.2581 -0.8785
vn 0.4321 -0.2299 -0.8720
vn 0.4263 -0.2366 -0.8731
vn -0.3850 0.2569 0.8864
vn -0.3882 0.2581 0.8847
vn -0.3877 0.2577 0.8850
vn -0.3836 0.2556 0.8874
vn -0.3947 0.2579 0.8819
vn -0.3945 0.2579 0.8819
vn -0.3976 0.2580 0.8806
vn -0.3978 0.2580 0.8804
vn -0.3946 0.2579 0.8819
vn -0.4016 0.2581 0.8787
vn -0.4004 0.2581 0.8792
vn -0.4076 0.2581 0.8759
vn -0.4072 0.2581 0.8761
vn -0.4000 0.2581 0.8794
vn -0.4028 0.2581 0.8781
vn -0.3937 0.2579 0.8823
vn -0.3875 0.2589 0.8847
vn -0.3899 0.2578 0.8840
vn -0.3832 0.2665 0.8844
vn -0.3833 0.2645 0.8849
vn 0.0939 0.9701 -0.2238
vn 0.0378 0.9668 -0.2529
vn 0.0315 0.9660 -0.2564
vn 0.0937 0.9700 -0.2242
vn 0.0941 0.9706 -0.2217
vn 0.1058 0.9707 -0.2156
vn 0.2464 0.9596 -0.1361
vn 0.2485 0.9592 -0.1349
vn 0.2849 0.9519 -0.1131
vn 0.2859 0.9516 -0.1124
vn 0.3212 0.9426 -0.0908
vn 0.3227 0.9422 -0.0898
vn 0.3635 0.9294 -0.0641
vn 0.3649 0.9289 -0.0632
vn 0.4080 0.9123 -0.0352
vn 0.4100 0.9114 -0.0339
vn 0.4154 0.9094 -0.0225
vn 0.4157 0.9090 -0.0302
vn 0.3725 0.9261 0.0593
vn 0.3774 0.9251 0.0414
vn -0.8468 -0.4033 0.3467
vn -0.7206 -0.1198 0.6830
vn -0.6568 -0.2259 0.7194
vn 0.2336 0.9583 -0.1646
vn 0.2451 0.9558 -0.1623
vn -0.0060 0.9564 -0.2919
vn -0.0961 0.9368 -0.3363
vn -0.0172 -0.7114 -0.7026
vn -0.1305 -0.4528 -0.8820
vn -0.3176 -0.5675 -0.7596
vn -0.2396 -0.9049 -0.3519
vn -0.7130 -0.6890 -0.1296
vn -0.6316 -0.7165 0.2963
vn -0.4783 0.1768 0.8602
vn -0.3776 -0.1388 0.9155
vn -0.4393 0.2173 0.8717
vn -0.3290 0.8359 -0.4394
vn -0.3311 0.8347 -0.4401
vn 0.3595 -0.5856 -0.7265
vn 0.2865 -0.2646 -0.9208
vn 0.3676 -0.2016 -0.9079
vn 0.2229 -0.9735 -0.0502
vn -0.0841 -0.7727 0.6292
vn -0.5135 0.1387 0.8468
vn -0.4329 0.7663 -0.4747
vn -0.3978 0.7919 -0.4634
vn -0.3947 0.7940 -0.4624
vn 0.2075 -0.3361 -0.9187
vn -0.8930 0.0689 0.4447
vn 0.1125 -0.9227 0.3688
vn -0.4154 -0.6088 -0.6759
vn -0.1561 -0.9508 -0.2677
vn -0.6930 -0.6347 -0.3419
vn 0.5365 -0.8130 -0.2260
vn 0.8580 -0.4847 -0.1700
vn 0.7765 -0.5261 -0.3467
vn -0.8421 -0.5298 -0.1007
vn -0.8847 -0.2837 -0.3699
vn -0.7228 -0.5995 -0.3437
vn -0.9614 -0.1847 -0.2038
vn -0.9683 -0.1591 -0.1928
vn -0.8297 -0.5463 -0.1152
vn -0.9690 -0.1617 -0.1869
vn -0.8234 -0.5582 -0.1016
vn -0.9734 -0.1412 -0.1805
vn 0.1173 -0.9734 0.1969
vn 0.1655 -0.9808 -0.1031
vn 0.1191 -0.9821 0.1463
vn 0.0937 -0.9867 0.1329
vn 0.9374 -0.3480 -0.0118
vn 0.9682 0.1596 0.1925
vn 0.9385 -0.2378 0.2503
vn 0.9746 0.1738 0.1412
vn 0.9676 0.1934 0.1625
vn 0.9691 0.1644 0.1840
vn 0.9355 -0.2634 0.2354
vn 0.9729 0.1429 0.1821
vn 0.9219 -0.3160 0.2240
vn -0.1098 0.9598 -0.2584
vn -0.1307 0.9856 -0.1069
vn -0.1302 0.9860 -0.1038
vn -0.1142 0.9633 -0.2430
vn -0.1155 0.9785 -0.1708
vn -0.1147 0.9791 -0.1677
vn -0.1038 0.9745 -0.1987
vn -0.1024 0.9748 -0.1981
vn 0.0935 -0.9867 0.1329
vn -0.2431 -0.7167 -0.6537
vn 0.2150 -0.9551 -0.2039
vn -0.3938 -0.8089 -0.4366
vn -0.2433 -0.7166 -0.6536
vn 0.2432 -0.7479 -0.6176
vn 0.1313 -0.9908 0.0330
vn -0.5445 -0.8326 -0.1010
vn 0.1473 -0.9878 -0.0495
vn -0.5228 -0.8367 -0.1630
vn 0.1515 -0.9829 -0.1048
vn -0.5092 -0.8374 -0.1985
vn 0.1574 -0.9767 -0.1458
vn -0.4976 -0.8371 -0.2274
vn -0.4976 -0.8371 -0.2275
vn 0.1695 -0.9649 -0.2006
vn -0.4817 -0.8354 -0.2647
vn 0.1694 -0.9649 -0.2007
vn 0.1737 -0.9527 -0.2495
vn -0.4597 -0.8312 -0.3128
vn 0.1762 -0.9490 -0.2612
vn -0.4571 -0.8270 -0.3273
vn 0.0810 -0.9589 -0.2720
vn -0.5420 -0.7809 -0.3104
vn 0.7466 -0.6329 -0.2053
vn 0.6432 -0.6450 -0.4127
vn 0.7459 -0.6428 0.1745
vn 0.7440 -0.6608 0.0986
vn 0.7433 -0.6667 0.0557
vn 0.7410 -0.6714 0.0115
vn 0.7381 -0.6742 -0.0246
vn 0.7332 -0.6765 -0.0688
vn 0.7333 -0.6765 -0.0688
vn 0.7309 -0.6770 -0.0867
vn 0.7529 -0.6532 -0.0803
vn -0.0399 -0.0091 0.9992
vn -0.0016 -0.0160 0.9999
vn -0.3231 -0.1152 0.9393
vn 0.0970 0.0346 0.9947
vn 0.0381 -0.0129 0.9992
vn -0.9646 -0.1530 -0.2148
vn -0.9653 -0.1538 -0.2110
vn -0.9651 -0.1537 -0.2120
vn -0.9652 -0.1536 -0.2115
vn -0.9645 -0.1531 -0.2153
vn -0.9658 -0.1505 -0.2112
vn -0.9670 -0.1529 -0.2038
vn -0.9670 -0.1529 -0.2039
vn -0.9677 -0.1527 -0.2007
vn -0.9677 -0.1527 -0.2004
vn -0.9686 -0.1525 -0.1964
vn -0.9683 -0.1526 -0.1976
vn -0.9700 -0.1519 -0.1898
vn -0.9699 -0.1520 -0.1903
vn -0.9682 -0.1526 -0.1981
vn -0.9689 -0.1524 -0.1951
vn -0.9668 -0.1529 -0.2048
vn -0.9668 -0.1531 -0.2048
vn -0.9687 -0.1525 -0.1960
vn -0.9689 -0.1494 -0.1971
vn -0.9762 -0.1284 -0.1747
vn -0.9780 -0.1212 -0.1699
vn 0.9647 0.1529 0.2143
vn 0.9653 0.1534 0.2113
vn 0.9654 0.1537 0.2106
vn 0.9646 0.1517 0.2158
vn 0.9670 0.1530 0.2039
vn 0.9670 0.1529 0.2038
vn 0.9677 0.1527 0.2004
vn 0.9677 0.1527 0.2005
vn 0.9677 0.1527 0.2008
vn 0.9685 0.1526 0.1968
vn 0.9686 0.1525 0.1963
vn 0.9683 0.1526 0.1976
vn 0.9699 0.1519 0.1904
vn 0.9700 0.1519 0.1899
vn 0.9689 0.1524 0.1951
vn 0.9682 0.1526 0.1981
vn 0.9668 0.1529 0.2048
vn 0.9668 0.1529 0.2049
vn 0.9658 0.1533 0.2089
vn 0.9651 0.1546 0.2111
vn 0.9635 0.1606 0.2142
vn 0.9632 0.1626 0.2139
vn -0.1143 0.9862 -0.1201
vn -0.1036 0.9765 -0.1892
vn -0.1045 0.9777 -0.1820
vn -0.1145 0.9861 -0.1205
vn -0.1148 0.9877 -0.1057
vn -0.1127 0.9865 -0.1187
vn -0.1370 0.9889 0.0571
vn -0.1367 0.9891 0.0547
vn -0.1424 0.9847 0.1009
vn -0.1423 0.9848 0.0996
vn -0.1475 0.9785 0.1443
vn -0.1473 0.9788 0.1425
vn -0.1531 0.9688 0.1947
vn -0.1530 0.9692 0.1930
vn -0.1588 0.9553 0.2494
vn -0.1585 0.9560 0.2469
vn -0.1595 0.9534 0.2562
vn -0.1532 0.9532 0.2607
vn -0.0779 0.9602 0.2681
vn -0.0606 0.9595 0.2750
vn 0.7296 -0.5249 -0.4383
vn 0.9565 -0.2491 -0.1521
vn 0.9344 -0.3486 -0.0729
vn -0.1519 0.9880 0.0270
vn -0.1106 0.9645 -0.2398
vn -0.1572 0.9868 0.0380
vn -0.0947 0.9367 -0.3369
vn -0.6353 -0.6637 -0.3949
vn -0.4842 -0.5547 -0.6766
vn -0.6787 -0.4106 -0.6089
vn -0.2482 -0.9042 -0.3475
vn 0.2366 -0.7623 -0.6024
vn 0.5231 -0.8055 -0.2784
vn 0.9896 0.0633 0.1292
vn 0.9347 -0.2401 0.2620
vn 0.9804 0.1078 0.1646
vn -0.0504 0.8144 -0.5780
vn -0.0500 0.8130 -0.5801
vn -0.8630 -0.4914 -0.1177
vn -0.9646 -0.0988 -0.2445
vn -0.9345 -0.1705 -0.3126
vn -0.2923 -0.9338 0.2063
vn 0.4548 -0.8142 0.3609
vn 0.9952 0.0223 0.0954
vn -0.0252 0.7349 -0.6777
vn -0.0340 0.7639 -0.6445
vn -0.0251 0.7349 -0.6777
vn -0.0348 0.7663 -0.6416
vn -0.8945 -0.2511 -0.3699
vn 0.4188 -0.0182 0.9079
vn 0.0088 -0.1378 0.9904
vn 0.3678 -0.5798 0.7270
vn 0.7199 -0.6832 0.1222
vn 0.7827 -0.5380 -0.3129
vn 0.8761 -0.4555 -0.1579
vn -0.2904 -0.1392 0.9467
vn -0.0178 -0.1004 0.9948
vn -0.1844 0.2121 0.9597
vn -0.3820 0.2255 0.8963
vn -0.4014 0.2423 0.8833
vn -0.4055 0.2370 0.8828
vn -0.2675 -0.1482 0.9521
vn -0.4056 0.2372 0.8828
vn -0.4187 0.2515 0.8726
vn -0.2704 -0.1667 0.9482
vn 0.1949 -0.9185 0.3442
vn 0.4494 -0.7798 0.4358
vn 0.2360 -0.8993 0.3683
vn 0.2317 -0.8889 0.3952
vn 0.6755 -0.5334 -0.5091
vn 0.4507 -0.5832 -0.6759
vn 0.4015 -0.2417 -0.8834
vn 0.4141 -0.1985 -0.8883
vn 0.4396 -0.2050 -0.8745
vn 0.4670 -0.5951 -0.6540
vn 0.4071 -0.2335 -0.8830
vn 0.4818 -0.6276 -0.6115
vn 0.4167 -0.2510 -0.8737
vn 0.4167 -0.2509 -0.8737
vn -0.1408 0.9378 -0.3173
vn -0.2755 0.8832 -0.3796
vn -0.2733 0.8846 -0.3778
vn -0.1559 0.9337 -0.3222
vn -0.2166 0.9070 -0.3611
vn -0.2146 0.9083 -0.3590
vn -0.1854 0.9161 -0.3555
vn -0.1856 0.9166 -0.3541
vn 0.5372 -0.1643 0.8273
vn 0.3095 -0.3109 0.8986
vn 0.5473 -0.7198 0.4270
vn 0.8147 -0.3434 0.4673
vn 0.3094 -0.3110 0.8986
vn -0.0252 -0.4649 0.8850
vn 0.3301 -0.8500 0.4105
vn 0.0352 -0.4416 0.8965
vn 0.4004 -0.8087 0.4310
vn 0.0701 -0.4272 0.9014
vn 0.4427 -0.7767 0.4481
vn 0.0987 -0.4149 0.9045
vn 0.4751 -0.7518 0.4573
vn 0.1356 -0.3984 0.9071
vn 0.5199 -0.7168 0.4647
vn 0.1836 -0.3758 0.9083
vn 0.5554 -0.6824 0.4752
vn 0.1837 -0.3758 0.9083
vn 0.1947 -0.3655 0.9102
vn 0.5647 -0.6740 0.4762
vn 0.1177 -0.3138 0.9422
vn 0.5175 -0.6498 0.5567
vn 0.7823 -0.6076 -0.1375
vn 0.7824 -0.6074 -0.1375
vn 0.8770 -0.4794 0.0313
vn 0.5022 -0.8154 -0.2881
vn 0.5624 -0.7894 -0.2459
vn 0.5956 -0.7712 -0.2247
vn 0.6284 -0.7511 -0.2023
vn 0.6543 -0.7336 -0.1838
vn 0.6848 -0.7108 -0.1608
vn 0.6968 -0.7011 -0.1514
vn 0.6989 -0.6915 -0.1829
vn -0.7648 -0.5224 -0.3771
vn -0.8632 -0.4976 -0.0860
vn -0.7401 -0.5389 -0.4023
vn -0.6903 -0.5229 -0.5001
vn -0.7163 -0.5471 -0.4331
vn -0.3846 0.2577 0.8864
vn -0.3867 0.2558 0.8860
vn -0.3876 0.2552 0.8858
vn -0.3876 0.2556 0.8857
vn -0.3887 0.2581 0.8845
vn -0.3844 0.2577 0.8864
vn -0.3941 0.2527 0.8836
vn -0.3942 0.2526 0.8836
vn -0.3973 0.2512 0.8826
vn -0.3970 0.2514 0.8827
vn -0.3997 0.2500 0.8819
vn -0.4008 0.2495 0.8815
vn -0.4061 0.2472 0.8798
vn -0.4067 0.2470 0.8796
vn -0.4062 0.2472 0.8797
vn -0.4019 0.2490 0.8812
vn -0.3993 0.2502 0.8820
vn -0.4066 0.2470 0.8796
vn -0.3933 0.2531 0.8839
vn -0.4013 0.2525 0.8804
vn -0.4011 0.2493 0.8814
vn -0.4349 0.2633 0.8611
vn -0.4283 0.2595 0.8656
vn 0.3850 -0.2575 -0.8863
vn 0.3879 -0.2551 -0.8857
vn 0.3874 -0.2558 -0.8857
vn 0.3876 -0.2558 -0.8856
vn 0.3842 -0.2593 -0.8861
vn 0.3852 -0.2575 -0.8862
vn 0.3942 -0.2526 -0.8836
vn 0.3941 -0.2526 -0.8837
vn 0.3970 -0.2514 -0.8827
vn 0.3973 -0.2512 -0.8826
vn 0.4009 -0.2495 -0.8815
vn 0.3997 -0.2500 -0.8819
vn 0.4067 -0.2469 -0.8796
vn 0.4062 -0.2471 -0.8797
vn 0.3993 -0.2502 -0.8820
vn 0.4020 -0.2490 -0.8811
vn 0.3934 -0.2531 -0.8839
vn 0.3930 -0.2533 -0.8840
vn 0.3932 -0.2531 -0.8839
vn 0.3871 -0.2546 -0.8862
vn 0.3896 -0.2547 -0.8851
vn 0.3932 -0.2532 -0.8839
vn 0.3817 -0.2491 -0.8901
vn 0.3822 -0.2509 -0.8894
vn -0.2537 0.8875 -0.3848
vn -0.1994 0.9106 -0.3621
vn -0.1932 0.9131 -0.3592
vn -0.2535 0.8877 -0.3844
vn -0.2539 0.8865 -0.3867
vn -0.2651 0.8813 -0.3912
vn -0.3981 0.8040 -0.4417
vn -0.4001 0.8027 -0.4424
vn -0.4338 0.7784 -0.4538
vn -0.4347 0.7777 -0.4541
vn -0.4671 0.7524 -0.4645
vn -0.4685 0.7513 -0.4649
vn -0.5054 0.7197 -0.4761
vn -0.5066 0.7185 -0.4765
vn -0.5452 0.6822 -0.4872
vn -0.5470 0.6804 -0.4876
vn -0.5514 0.6712 -0.4954
vn -0.5520 0.6755 -0.4889
vn -0.5075 0.6431 -0.5734
vn -0.5131 0.6521 -0.5581
vn 0.9154 -0.3934 -0.0857
vn 0.7640 -0.3853 -0.5175
vn 0.7193 -0.5009 -0.4813
vn -0.3868 0.8217 -0.4185
vn -0.3976 0.8166 -0.4184
vn -0.1565 0.9320 -0.3269
vn -0.0668 0.9565 -0.2840
vn 0.0913 -0.1493 0.9846
vn 0.1540 0.1788 0.9718
vn 0.3626 0.0447 0.9309
vn 0.3583 -0.4748 0.8039
vn 0.8034 -0.3610 0.4736
vn 0.7487 -0.6458 0.1498
vn 0.4881 -0.2915 -0.8227
vn 0.4403 -0.5901 -0.6767
vn 0.4440 -0.2720 -0.8537
vn 0.1733 0.9729 -0.1532
vn 0.1756 0.9727 -0.1520
vn -0.3010 -0.0935 0.9490
vn -0.2883 0.2868 0.9136
vn -0.3775 0.3168 0.8702
vn -0.0722 -0.7780 0.6240
vn 0.2341 -0.9705 -0.0581
vn 0.5281 -0.3083 -0.7912
vn 0.2849 0.9544 -0.0891
vn 0.2468 0.9626 -0.1114
vn 0.2435 0.9633 -0.1133
vn -0.1994 0.2410 0.9498
vn 0.4697 -0.0221 0.8826
vn 0.2873 -0.5736 0.7671
vn 0.7645 -0.1960 0.6141
vn -0.4154 -0.5957 0.6875
vn -0.7804 -0.4175 0.4655
vn -0.7025 -0.3340 0.6284
vn 0.9076 -0.2315 0.3501
vn 0.8980 0.1286 0.4207
vn 0.7884 -0.1625 0.5933
vn 0.9669 0.1215 0.2246
vn 0.9702 0.1365 0.2002
vn 0.8971 -0.2380 0.3721
vn 0.9716 0.1310 0.1969
vn 0.8935 -0.2565 0.3685
vn 0.9731 0.1442 0.1795
vn 0.0444 -0.9069 0.4191
vn -0.0171 -0.7438 0.6681
vn 0.0415 -0.8843 0.4651
vn 0.0667 -0.8762 0.4773
vn -0.8719 -0.4141 0.2614
vn -0.9703 -0.1359 -0.2003
vn -0.8767 -0.4808 -0.0149
vn -0.9814 -0.0954 -0.1669
vn -0.9764 -0.0913 -0.1959
vn -0.9723 -0.1272 -0.1961
vn -0.8705 -0.4920 0.0120
vn -0.9728 -0.1437 -0.1818
vn -0.8496 -0.5250 0.0515
vn -0.0529 0.9310 -0.3611
vn -0.0286 0.8658 -0.4996
vn -0.0290 0.8642 -0.5023
vn -0.0483 0.9254 -0.3758
vn -0.0458 0.8953 -0.4431
vn -0.0464 0.8939 -0.4459
vn -0.0581 0.9068 -0.4176
vn -0.0594 0.9064 -0.4183
vn 0.0668 -0.8762 0.4774
vn 0.3174 -0.1474 0.9368
vn -0.0751 -0.6718 0.7369
vn 0.4914 -0.3250 0.8080
vn -0.0750 -0.6718 0.7369
vn 0.3171 -0.1473 0.9369
vn -0.1558 -0.2685 0.9506
vn 0.0251 -0.8265 0.5624
vn 0.6607 -0.5178 0.5434
vn 0.0046 -0.7782 0.6281
vn 0.6368 -0.4880 0.5969
vn 0.6368 -0.4880 0.5970
vn -0.0031 -0.7423 0.6700
vn 0.6217 -0.4698 0.6267
vn -0.0119 -0.7142 0.6998
vn 0.6087 -0.4542 0.6505
vn -0.0284 -0.6745 0.7377
vn 0.5908 -0.4335 0.6805
vn -0.0369 -0.6367 0.7702
vn 0.5660 -0.4053 0.7179
vn -0.0406 -0.6273 0.7777
vn 0.5621 -0.3939 0.7273
vn 0.0544 -0.6142 0.7873
vn 0.6397 -0.3540 0.6822
vn -0.6493 -0.4972 0.5755
vn -0.5559 -0.3689 0.7449
vn -0.6278 -0.7283 0.2747
vn -0.6279 -0.7282 0.2746
vn -0.6271 -0.6976 0.3464
vn -0.6277 -0.6769 0.3845
vn -0.6270 -0.6543 0.4228
vn -0.6255 -0.6349 0.4535
vn -0.6225 -0.6099 0.4904
vn -0.6226 -0.6100 0.4903
vn -0.6210 -0.5995 0.5049
vn -0.6461 -0.5878 0.4869
vn 0.0545 -0.6141 0.7874
vn 0.0913 -0.5884 -0.8034
vn 0.0546 -0.6001 -0.7981
vn 0.3841 -0.5937 -0.7071
vn -0.0508 -0.5722 -0.8185
vn -0.0507 -0.5722 -0.8186
vn 0.0149 -0.6035 -0.7973
vn 0.9646 0.1537 0.2145
vn 0.9656 0.1509 0.2120
vn 0.9653 0.1515 0.2127
vn 0.9655 0.1513 0.2119
vn 0.9645 0.1537 0.2147
vn 0.9655 0.1537 0.2101
vn 0.9675 0.1476 0.2055
vn 0.9674 0.1477 0.2056
vn 0.9682 0.1461 0.2029
vn 0.9683 0.1459 0.2026
vn 0.9693 0.1438 0.1992
vn 0.9690 0.1445 0.2003
vn 0.9710 0.1407 0.1935
vn 0.9708 0.1409 0.1939
vn 0.9689 0.1447 0.2007
vn 0.9697 0.1432 0.1980
vn 0.9697 0.1433 0.1981
vn 0.9672 0.1482 0.2064
vn 0.9672 0.1481 0.2064
vn 0.9694 0.1437 0.1989
vn 0.9692 0.1468 0.1980
vn 0.9742 0.1514 0.1672
vn 0.9751 0.1546 0.1589
vn -0.9647 -0.1535 -0.2141
vn -0.9655 -0.1514 -0.2119
vn -0.9657 -0.1507 -0.2116
vn -0.9643 -0.1553 -0.2146
vn -0.9674 -0.1477 -0.2056
vn -0.9675 -0.1476 -0.2055
vn -0.9683 -0.1460 -0.2026
vn -0.9683 -0.1460 -0.2027
vn -0.9682 -0.1461 -0.2029
vn -0.9691 -0.1443 -0.2000
vn -0.9694 -0.1438 -0.1992
vn -0.9690 -0.1445 -0.2003
vn -0.9708 -0.1410 -0.1940
vn -0.9709 -0.1407 -0.1935
vn -0.9697 -0.1432 -0.1981
vn -0.9689 -0.1447 -0.2006
vn -0.9672 -0.1482 -0.2064
vn -0.9661 -0.1502 -0.2100
vn -0.9655 -0.1503 -0.2125
vn -0.9647 -0.1471 -0.2186
vn -0.9647 -0.1453 -0.2196
vn -0.0455 0.8714 -0.4884
vn -0.0581 0.9026 -0.4264
vn -0.0570 0.8996 -0.4330
vn -0.0454 0.8716 -0.4881
vn -0.0446 0.8643 -0.5010
vn -0.0471 0.8706 -0.4897
vn -0.0146 0.7729 -0.6343
vn -0.0150 0.7745 -0.6325
vn -0.0064 0.7447 -0.6674
vn -0.0066 0.7455 -0.6665
vn 0.0018 0.7150 -0.6991
vn 0.0015 0.7163 -0.6978
vn 0.0114 0.6786 -0.7344
vn 0.0110 0.6799 -0.7333
vn 0.0218 0.6366 -0.7709
vn 0.0213 0.6385 -0.7693
vn 0.0231 0.6311 -0.7753
vn 0.0172 0.6274 -0.7785
vn -0.0578 0.6170 -0.7848
vn -0.0744 0.6097 -0.7891
vn -0.6611 -0.2718 0.6994
vn -0.9130 -0.2561 0.3177
vn -0.8719 -0.3782 0.3111
vn -0.0012 0.7920 -0.6105
vn -0.0519 0.9240 -0.3789
vn 0.0047 0.7856 -0.6187
vn -0.0682 0.9566 -0.2833
vn 0.7093 -0.1970 0.6768
vn 0.5291 0.0318 0.8480
vn 0.7022 0.1366 0.6987
vn 0.3669 -0.4755 0.7995
vn -0.1463 -0.2878 0.9465
vn -0.4059 -0.5568 0.7248
vn -0.9797 -0.1786 -0.0915
vn -0.8720 -0.4889 -0.0232
vn -0.9757 -0.1625 -0.1467
vn -0.1052 0.9943 -0.0145
vn -0.1055 0.9943 -0.0120
vn 0.9214 -0.1878 0.3403
vn 0.9547 0.2141 0.2067
vn 0.9325 0.1927 0.3056
vn 0.4430 -0.8178 0.3675
vn -0.3048 -0.9289 0.2102
vn -0.9806 -0.1920 -0.0399
vn -0.1229 0.9859 0.1140
vn -0.1170 0.9907 0.0697
vn -0.1229 0.9858 0.1140
vn -0.1165 0.9910 0.0659
vn 0.9027 0.1561 0.4010
vn 0.0559 0.9975 -0.0423
vn 0.8930 -0.0689 -0.4447
vn 0.4346 0.3882 0.8127
vn 0.4346 0.3881 0.8127
vn -0.4473 -0.2444 -0.8604
vn -0.4473 -0.2445 -0.8603
vn -0.0891 -0.9170 0.3889
vn 0.2520 -0.9427 0.2188
vn -0.4346 -0.3881 -0.8127
vn -0.4346 -0.3880 -0.8127
vn 0.4473 0.2443 0.8604
vn -0.4473 -0.2441 -0.8604
vn 0.0815 -0.9471 0.3103
vn -0.0815 0.9471 -0.3103
vn 0.2554 0.8912 0.3748
vn 0.2553 0.8913 0.3748
vn -0.4426 -0.3133 -0.8402
vn 0.4426 0.3133 0.8402
vn 0.4447 0.2864 0.8487
vn 0.4487 0.2121 0.8682
vn -0.2298 -0.8660 0.4440
vn 0.3147 -0.9316 0.1816
vn 0.4456 -0.8900 0.0970
vn -0.8932 0.0688 0.4445
vn -0.4424 -0.3136 -0.8402
vn -0.4425 -0.3133 -0.8402
vn -0.0940 -0.9950 -0.0348
vn 0.8054 -0.5507 -0.2189
vn -0.4361 -0.3759 -0.8176
vn -0.4362 -0.3759 -0.8176
vn -0.4362 -0.3758 -0.8176
vn -0.1052 -0.9928 -0.0576
vn -0.2763 0.6962 -0.6626
vn 0.4124 0.2519 0.8755
vn 0.4123 0.2519 0.8755
vn 0.4810 0.2466 0.8413
vn 0.4811 0.2466 0.8413
vt 0.999500 0.377400
vt 0.941600 0.228100
vt 0.764500 0.157100
vt 0.194000 0.127800
vt 0.000500 0.186600
vt 0.000500 0.377400
vt 0.154800 0.323400
vt -0.114400 0.186600
vt -0.116100 0.377400
vt 0.500000 0.500000
vt 0.454800 0.384000
vt 0.159800 0.513500
vt 0.447900 0.524200
vt 0.442300 0.359300
vt 0.447400 0.534000
vt 0.876900 0.620200
vt 0.871600 0.339400
vt 0.428700 0.365500
vt 0.153100 0.144300
vt -0.105200 0.012800
vt 0.442200 0.363500
vt 0.439200 0.188700
vt 0.872200 0.337200
vt 0.882500 0.163000
vt 1.114400 0.186600
vt 0.853100 0.372300
vt 0.840200 0.513500
vt 1.085100 0.665000
vt 1.116100 0.377400
vt 0.845200 0.323400
vt 0.558200 0.369000
vt 0.552600 0.534000
vt 0.557700 0.359300
vt 0.128400 0.339400
vt 0.123100 0.620200
vt 0.539400 0.528000
vt -0.116100 0.999500
vt 0.159800 0.999500
vt 0.159800 0.000500
vt -0.116100 0.024600
vt 0.447400 0.999500
vt 0.447400 0.000500
vt 0.159900 0.001000
vt 0.876900 0.999500
vt 0.876900 0.000500
vt 0.447400 0.001100
vt 1.103500 0.010200
vt 0.844900 0.142800
vt 0.846900 0.144300
vt 0.560600 0.185900
vt 0.560800 0.188700
vt 0.117500 0.163000
vt 0.558400 0.362800
vt -0.289200 0.000500
vt -0.251700 0.000500
vt -0.242600 0.500000
vt -0.280100 0.500000
vt -0.011000 0.000500
vt -0.001900 0.500000
vt 0.173700 0.000500
vt 0.182900 0.500000
vt 0.347100 0.000500
vt 0.356300 0.500000
vt 0.528800 0.000500
vt 0.538000 0.500000
vt 0.712600 0.000500
vt 0.721700 0.500000
vt 0.901500 0.000500
vt 0.910600 0.500000
vt 1.094200 0.000500
vt 1.103400 0.500000
vt 1.284200 0.066400
vt 1.289200 0.521000
vt -0.251700 0.999500
vt -0.289200 0.999500
vt -0.011000 0.999500
vt 0.173700 0.999500
vt 0.347100 0.999500
vt 0.528800 0.999500
vt 0.712600 0.999500
vt 0.901500 0.999500
vt 1.094200 0.999500
vt 1.280400 0.989700
vt 0.004100 0.288600
vt 0.001900 0.330300
vt 0.006600 0.731700
vt 0.009600 0.500400
vt 0.013900 0.887600
vt 0.002300 0.761200
vt 0.022800 0.803900
vt 0.029200 0.609000
vt 0.008400 0.695400
vt 0.167100 0.809900
vt 0.177800 0.642500
vt 0.032400 0.651700
vt 0.282200 0.817900
vt 0.292800 0.651500
vt 0.284900 0.907800
vt 0.392200 0.868300
vt 0.399500 0.619500
vt 0.391500 0.938300
vt 0.504100 0.875000
vt 0.513000 0.540800
vt 0.399700 0.616200
vt 0.621700 0.804200
vt 0.630000 0.479100
vt 0.621900 0.801600
vt 0.742000 0.751200
vt 0.751300 0.411200
vt 0.630200 0.475200
vt 0.860200 0.701600
vt 0.868600 0.375300
vt 0.864900 0.597800
vt 0.998800 0.640700
vt 0.999700 0.396200
vt 0.874500 0.368600
vt 1.000400 0.564700
vt 0.976200 0.518000
vt 0.980800 0.882600
vt 1.011900 0.737500
vt 0.826700 0.563900
vt 0.833800 0.879800
vt 0.978600 0.706300
vt 0.712600 0.581000
vt 0.719500 0.895100
vt 0.710800 0.564100
vt 0.602100 0.573000
vt 0.610200 0.894600
vt 0.602300 0.575800
vt 0.487000 0.540800
vt 0.495900 0.875000
vt 0.610500 0.898000
vt 0.371600 0.520100
vt 0.379900 0.845300
vt 0.371800 0.522800
vt 0.252300 0.498600
vt 0.261500 0.838600
vt 0.380200 0.849400
vt 0.126700 0.446400
vt 0.135100 0.772700
vt 0.131400 0.459200
vt 0.013500 0.393800
vt 0.011100 0.713100
vt 0.001400 0.999500
vt 0.021900 0.999500
vt 0.024600 0.288600
vt 0.004100 0.288700
vt 0.167100 0.982000
vt 0.173400 0.009200
vt 0.028100 0.027100
vt 0.279600 1.007800
vt 0.285800 0.035000
vt 0.284100 0.985100
vt 0.390600 0.000500
vt 0.283200 0.047300
vt 0.505000 0.938300
vt 0.504100 0.000500
vt 0.504100 0.894600
vt 0.621000 0.894600
vt 0.621000 0.000500
vt 0.621900 0.894600
vt 0.742000 0.955800
vt 0.740200 0.000500
vt 0.620100 -0.060700
vt 0.864900 0.999500
vt 0.864900 0.000500
vt 0.742000 -0.043200
vt 0.995000 1.237200
vt 0.999700 0.390100
vt 0.520100 0.489800
vt 0.790900 0.351700
vt 1.115100 0.265100
vt 1.116000 0.358300
vt 1.105700 0.046400
vt 1.110000 0.115800
vt 0.500000 0.010200
vt 0.332900 0.069200
vt 0.758800 0.530000
vt 1.115300 0.286500
vt 0.000500 0.286500
vt 1.116200 0.379500
vt 1.117300 0.511600
vt -0.299400 -0.028200
vt -0.016300 0.625200
vt -0.826000 0.667900
vt -1.109100 -0.037700
vt 0.676200 1.299400
vt 1.182600 1.299400
vt 1.182600 2.109100
vt 0.676200 2.109100
vt -0.182600 0.625200
vt 0.323800 0.625200
vt 0.323800 0.667900
vt -0.182600 0.667900
vt 1.016400 0.625200
vt 1.299500 -0.028200
vt 2.109200 -0.037700
vt 1.826100 0.667900
vt 1.184600 0.625200
vt 1.184600 0.667900
vt -0.184600 1.299500
vt -0.184600 2.109200
vt 1.278800 1.299400
vt 1.278800 2.109100
vt 1.278800 0.625200
vt 1.278800 0.667900
vt -0.182600 -0.148300
vt -0.182600 0.022000
vt -0.278300 0.022000
vt 1.278300 0.597500
vt 1.184600 0.769700
vt 1.184600 0.597500
vt 1.182600 0.807500
vt 1.182600 0.625200
vt -0.278800 -0.028200
vt -0.184600 -0.212600
vt -0.184600 -0.028200
vt 2.164100 -0.361000
vt -0.622300 0.989500
vt -1.164100 -0.361000
vt 1.622300 0.989500
vt 2.164000 -0.361000
vt 1.622200 0.989400
vt -0.622300 0.989400
vt 1.182600 -0.413800
vt 1.182600 -0.622300
vt 1.298100 -0.622300
vt -0.298100 1.622300
vt -0.184600 1.417400
vt -0.184600 1.622300
vt 1.184600 -0.150200
vt 1.278300 0.022000
vt 1.184600 0.022000
vt -0.184600 0.769700
vt -0.184600 -0.150200
vt 0.676200 0.309800
vt -0.182600 0.597500
vt -0.182600 0.767900
vt -0.278300 0.597500
vt 1.182600 -0.148300
vt 1.182600 0.767900
vt -0.184600 0.809500
vt -0.278800 0.625200
vt -0.184600 0.625200
vt 1.184600 -0.212600
vt 1.184600 0.809500
vt 0.323800 0.298500
vt 1.182600 -0.028200
vt 1.182600 -0.210500
vt 1.278800 -0.028200
vt -0.182600 0.807500
vt -0.182600 -0.210500
vt -0.184600 -0.417400
vt -0.298100 -0.622300
vt -0.184600 -0.622300
vt 0.676200 0.500000
vt 1.182600 1.622200
vt 1.182600 1.413700
vt 1.298100 1.622200
vt 0.323800 0.597500
vt 0.676200 0.597500
vt 0.676200 -0.028200
vt 0.323800 -0.028200
vt 0.676200 1.622300
vt 0.323800 0.309800
vt -0.184600 0.022000
vt 0.676200 0.022000
vt 0.676200 0.298500
vt 0.676200 -0.622300
vt 0.323800 0.022000
vt 0.676200 0.625200
vt 1.182600 0.597500
vt -0.182600 -0.028200
vt -0.278800 1.299500
vt -0.182600 -0.622300
vt -0.182600 -0.413800
vt 1.182600 0.989400
vt 1.298100 0.989400
vt 1.298100 1.361000
vt -0.278800 2.109200
vt -0.278800 0.667900
vt 1.184600 0.989500
vt 1.298100 0.989500
vt 0.323800 -0.037700
vt -0.182600 -0.037700
vt -0.182600 -0.361000
vt 0.323800 -0.361000
vt -0.184600 0.989500
vt -0.298100 1.361000
vt -0.298100 0.989500
vt 0.323800 0.989400
vt -0.182600 0.989400
vt -0.413700 0.989400
vt -0.622200 0.989400
vt -0.298100 0.989400
vt -0.182600 1.413700
vt 1.622300 1.361000
vt -0.622300 1.361000
vt 1.622200 1.361000
vt 1.182600 -0.361000
vt 1.298100 -0.361000
vt 1.278300 -0.031000
vt 1.182600 -0.031100
vt -0.278300 0.659500
vt -0.184600 0.659500
vt -0.298100 -0.361000
vt -0.278300 -0.031000
vt 1.278300 0.659500
vt -0.184600 -0.361000
vt -0.184600 -0.031000
vt 1.182600 0.659500
vt 0.676200 0.989400
vt 0.676200 0.659500
vt 0.676200 -0.361000
vt 0.676200 -0.031100
vt 1.182600 0.022000
vt -0.184600 0.597500
vt -0.754600 0.659500
vt -1.031700 -0.031000
vt -0.315000 0.022000
vt -0.037900 0.597500
vt 2.031800 -0.031000
vt 1.754700 0.659500
vt 1.038000 0.597500
vt 1.315100 0.022000
vt 1.184600 -0.361000
vt 1.278800 -0.037700
vt 1.184600 -0.037700
vt -0.278800 -0.037700
s 1
usemtl 3d66_Standardmaterial_17342430_101
f 1/1/1 2/2/2 3/3/3
f 1/1/1 3/3/3 4/4/4
f 1/1/1 4/4/4 5/5/5
f 1/1/1 5/5/5 6/6/6
f 7/7/7 8/8/8 9/9/9
f 7/7/7 9/9/9 10/10/10
f 7/7/7 10/10/10 11/11/11
f 11/12/11 12/13/12 13/14/13
f 13/14/13 7/7/7 11/12/11
f 12/15/12 14/16/14 15/17/15
f 15/17/15 13/18/13 12/15/12
f 8/8/8 7/7/7 16/19/16
f 16/19/16 17/20/17 8/8/8
f 7/7/7 13/21/13 18/22/18
f 18/22/18 16/19/16 7/7/7
f 13/14/13 15/23/15 19/24/19
f 19/24/19 18/22/18 13/14/13
f 20/25/20 21/26/21 22/27/22
f 22/27/22 23/28/23 24/29/24
f 20/25/20 22/27/22 24/29/24
f 21/30/21 25/31/25 26/32/26
f 26/32/26 22/27/22 21/30/21
f 25/33/25 27/34/27 28/35/28
f 28/35/28 26/36/26 25/33/25
f 23/37/29 22/38/30 11/39/31
f 11/39/31 10/40/32 23/37/29
f 22/38/30 26/41/33 12/42/34
f 12/42/34 11/43/31 22/38/30
f 26/41/33 28/44/35 14/45/36
f 14/45/36 12/46/34 26/41/33
f 17/47/17 16/48/16 21/30/21
f 21/30/21 20/25/20 17/47/17
f 16/49/16 18/50/18 25/33/25
f 25/33/25 21/30/21 16/49/16
f 18/51/18 19/52/19 27/34/27
f 27/34/27 25/53/25 18/51/18
f 20/25/20 24/10/24 80/10/137
f 20/25/20 80/10/137 81/170/138
f 20/25/20 81/170/138 82/171/139
f 83/1/140 81/6/141 80/6/142
f 80/6/142 84/1/143 83/1/140
f 85/25/144 83/172/145 84/173/146
f 85/25/144 84/173/146 9/29/9
f 85/25/144 9/29/9 8/25/8
f 86/174/147 85/175/144 8/25/8
f 8/25/8 17/47/17 87/47/148
f 86/174/147 8/25/8 87/47/148
f 17/176/17 20/5/20 82/5/139
f 82/5/139 88/177/149 87/176/148
f 17/176/17 82/5/139 87/176/148
f 9/9/9 84/10/146 10/10/10
f 23/29/23 80/10/137 24/10/24
f 84/10/143 80/10/142 23/29/29
f 23/29/29 10/10/32 84/10/143
f 89/10/150 90/178/151 82/5/139
f 82/5/139 81/6/138 91/6/152
f 89/10/150 82/5/139 91/6/152
f 92/1/153 91/6/154 81/6/141
f 81/6/141 83/1/140 92/1/153
f 83/29/145 85/25/144 93/25/155
f 93/25/155 94/179/156 92/29/157
f 83/29/145 93/25/155 92/29/157
f 95/47/158 93/25/155 85/25/144
f 85/25/144 86/47/147 95/47/158
f 90/5/151 96/176/159 88/176/149
f 88/176/149 82/5/139 90/5/151
f 90/5/151 89/180/150 97/6/160
f 90/5/151 97/6/160 6/6/6
f 90/5/151 6/6/6 5/5/5
f 1/1/161 6/6/161 97/6/162
f 97/6/162 98/1/163 1/1/161
f 2/25/2 1/181/1 98/182/164
f 2/25/2 98/182/164 94/29/156
f 2/25/2 94/29/156 93/25/155
f 3/47/3 2/25/2 93/25/155
f 93/25/155 95/47/158 3/47/3
f 5/5/5 4/176/4 96/176/159
f 96/176/159 90/5/151 5/5/5
f 94/1/156 98/10/164 92/10/157
f 91/6/152 97/10/160 89/10/150
f 98/10/163 97/10/162 91/6/154
f 91/6/154 92/10/153 98/10/163
f 87/47/148 88/10/149 86/10/147
f 88/10/149 96/47/159 95/10/158
f 95/10/158 86/10/147 88/10/149
f 96/47/159 4/10/4 3/47/3
f 3/47/3 95/10/158 96/47/159
f 99/1/167 100/3/168 101/2/169
f 99/1/167 102/4/170 100/3/168
f 99/1/167 103/5/171 102/4/170
f 99/1/167 104/6/172 103/5/171
f 105/7/173 106/9/174 107/8/175
f 105/7/173 108/10/176 106/9/174
f 105/7/173 109/11/177 108/10/176
f 109/12/177 110/14/178 111/13/179
f 110/14/178 109/12/177 105/7/173
f 111/15/179 112/17/180 113/16/181
f 112/17/180 111/15/179 110/18/178
f 107/8/175 114/19/182 105/7/173
f 114/19/182 107/8/175 115/20/183
f 105/7/173 116/22/184 110/21/178
f 116/22/184 105/7/173 114/19/182
f 110/14/178 117/24/185 112/23/180
f 117/24/185 110/14/178 116/22/184
f 118/25/186 119/27/187 120/26/188
f 119/27/187 121/29/189 122/28/190
f 118/25/186 121/29/189 119/27/187
f 120/30/188 123/32/191 124/31/192
f 123/32/191 120/30/188 119/27/187
f 124/33/192 125/35/193 126/34/194
f 125/35/193 124/33/192 123/36/191
f 122/37/195 109/39/196 119/38/197
f 109/39/196 122/37/195 108/40/198
f 119/38/197 111/42/199 123/41/200
f 111/42/199 119/38/197 109/43/196
f 123/41/200 113/45/201 125/44/202
f 113/45/201 123/41/200 111/46/199
f 115/47/183 120/30/188 114/48/182
f 120/30/188 115/47/183 118/25/186
f 114/49/182 124/33/192 116/50/184
f 124/33/192 114/49/182 120/30/188
f 116/51/184 126/34/194 117/52/203
f 126/34/194 116/51/184 124/53/192
f 118/25/186 177/10/307 121/10/189
f 118/25/186 178/170/308 177/10/307
f 118/25/186 179/171/309 178/170/308
f 180/1/310 177/6/311 178/6/312
f 177/6/311 180/1/310 181/1/313
f 182/25/314 181/173/315 180/172/316
f 182/25/314 106/29/174 181/173/315
f 182/25/314 107/25/175 106/29/174
f 183/174/317 107/25/175 182/175/314
f 107/25/175 184/47/318 115/47/183
f 183/174/317 184/47/318 107/25/175
f 115/176/183 179/5/309 118/5/186
f 179/5/309 184/176/318 185/177/319
f 115/176/183 184/176/318 179/5/309
f 106/9/174 108/10/176 181/10/315
f 122/29/190 121/10/189 177/10/307
f 181/10/313 122/29/195 177/10/311
f 122/29/195 181/10/313 108/10/198
f 186/10/320 179/5/309 187/178/321
f 179/5/309 188/6/322 178/6/308
f 186/10/320 188/6/322 179/5/309
f 189/1/323 178/6/312 188/6/324
f 178/6/312 189/1/323 180/1/310
f 180/29/316 190/25/325 182/25/314
f 190/25/325 189/29/326 191/179/327
f 180/29/316 189/29/326 190/25/325
f 192/47/328 182/25/314 190/25/325
f 182/25/314 192/47/328 183/47/317
f 187/5/321 185/176/319 193/176/329
f 185/176/319 187/5/321 179/5/309
f 187/5/321 194/6/330 186/180/320
f 187/5/321 104/6/172 194/6/330
f 187/5/321 103/5/171 104/6/172
f 99/1/331 194/6/332 104/6/333
f 194/6/332 99/1/331 195/1/334
f 101/25/169 195/182/335 99/181/167
f 101/25/169 191/29/327 195/182/335
f 101/25/169 190/25/325 191/29/327
f 100/47/168 190/25/325 101/25/169
f 190/25/325 100/47/168 192/47/328
f 103/5/171 193/176/329 102/176/170
f 193/176/329 103/5/171 187/5/321
f 191/1/327 189/10/326 195/10/335
f 188/6/322 186/10/320 194/10/330
f 195/10/334 188/6/324 194/10/332
f 188/6/324 195/10/334 189/10/323
f 184/47/318 183/10/317 185/10/319
f 185/10/319 192/10/328 193/47/329
f 192/10/328 185/10/319 183/10/317
f 193/47/329 100/47/168 102/10/170
f 100/47/168 193/47/329 192/10/328
f 196/1/336 197/2/337 198/3/338
f 196/1/336 198/3/338 199/4/339
f 196/1/336 199/4/339 200/5/340
f 196/1/336 200/5/340 201/6/341
f 202/7/342 203/8/343 204/9/344
f 202/7/342 204/9/344 205/10/345
f 202/7/342 205/10/345 206/11/346
f 206/12/346 207/13/347 208/14/348
f 208/14/348 202/7/342 206/12/346
f 207/15/349 209/16/350 210/17/351
f 210/17/351 208/18/348 207/15/347
f 203/8/343 202/7/342 211/19/352
f 211/19/352 212/20/353 203/8/343
f 202/7/342 208/21/348 213/22/354
f 213/22/354 211/19/352 202/7/342
f 208/14/348 210/23/351 214/24/355
f 214/24/355 213/22/354 208/14/348
f 215/25/356 216/26/357 217/27/358
f 217/27/358 218/28/359 219/29/360
f 215/25/356 217/27/358 219/29/360
f 216/30/357 220/31/361 221/32/362
f 221/32/362 217/27/358 216/30/357
f 220/33/361 222/34/363 223/35/364
f 223/35/365 221/36/362 220/33/361
f 218/37/366 217/38/367 206/39/368
f 206/39/368 205/40/369 218/37/366
f 217/38/367 221/41/370 207/42/371
f 207/42/371 206/43/368 217/38/367
f 221/41/370 223/44/372 209/45/373
f 209/45/373 207/46/371 221/41/370
f 212/47/353 211/48/352 216/30/357
f 216/30/357 215/25/356 212/47/353
f 211/49/352 213/50/354 220/33/361
f 220/33/361 216/30/357 211/49/352
f 213/51/354 214/52/355 222/34/363
f 222/34/363 220/53/361 213/51/354
f 215/25/356 219/10/360 274/10/479
f 215/25/356 274/10/479 275/170/480
f 215/25/356 275/170/480 276/171/481
f 277/1/482 275/6/483 274/6/484
f 274/6/484 278/1/485 277/1/482
f 279/25/486 277/172/487 278/173/488
f 279/25/486 278/173/488 204/29/344
f 279/25/486 204/29/344 203/25/343
f 280/174/489 279/175/486 203/25/343
f 203/25/343 212/47/353 281/47/490
f 280/174/489 203/25/343 281/47/490
f 212/176/353 215/5/356 276/5/481
f 276/5/481 282/177/491 281/176/490
f 212/176/353 276/5/481 281/176/490
f 204/9/344 278/10/488 205/10/345
f 218/29/359 274/10/479 219/10/360
f 278/10/485 274/10/484 218/29/366
f 218/29/366 205/10/369 278/10/485
f 283/10/492 284/178/493 276/5/481
f 276/5/481 275/6/480 285/6/494
f 283/10/492 276/5/481 285/6/494
f 286/1/495 285/6/496 275/6/483
f 275/6/483 277/1/482 286/1/495
f 277/29/487 279/25/486 287/25/497
f 287/25/497 288/179/498 286/29/499
f 277/29/487 287/25/497 286/29/499
f 289/47/500 287/25/497 279/25/486
f 279/25/486 280/47/489 289/47/500
f 284/5/493 290/176/501 282/176/491
f 282/176/491 276/5/481 284/5/493
f 284/5/493 283/180/492 291/6/502
f 284/5/493 291/6/502 201/6/341
f 284/5/493 201/6/341 200/5/340
f 196/1/503 201/6/503 291/6/504
f 291/6/504 292/1/505 196/1/503
f 197/25/337 196/181/336 292/182/506
f 197/25/337 292/182/506 288/29/498
f 197/25/337 288/29/498 287/25/497
f 198/47/338 197/25/337 287/25/497
f 287/25/497 289/47/500 198/47/338
f 200/5/340 199/176/339 290/176/501
f 290/176/501 284/5/493 200/5/340
f 288/1/498 292/10/506 286/10/499
f 285/6/494 291/10/502 283/10/492
f 292/10/505 291/10/504 285/6/496
f 285/6/496 286/10/495 292/10/505
f 281/47/490 282/10/491 280/10/489
f 282/10/491 290/47/501 289/10/500
f 289/10/500 280/10/489 282/10/491
f 290/47/501 199/10/339 198/47/338
f 198/47/338 289/10/500 290/47/501
f 293/1/507 294/3/508 295/2/509
f 293/1/507 296/4/510 294/3/508
f 293/1/507 297/5/511 296/4/510
f 293/1/507 298/6/512 297/5/511
f 299/7/513 300/9/514 301/8/515
f 299/7/513 302/10/516 300/9/514
f 299/7/513 303/11/517 302/10/516
f 303/12/517 304/14/518 305/13/519
f 304/14/518 303/12/517 299/7/513
f 305/15/519 306/17/520 307/16/521
f 306/17/520 305/15/519 304/18/518
f 301/8/515 308/19/522 299/7/513
f 308/19/522 301/8/515 309/20/523
f 299/7/513 310/22/524 304/21/518
f 310/22/524 299/7/513 308/19/522
f 304/14/518 311/24/525 306/23/520
f 311/24/525 304/14/518 310/22/524
f 312/25/526 313/27/527 314/26/528
f 313/27/527 315/29/529 316/28/530
f 312/25/526 315/29/529 313/27/527
f 314/30/528 317/32/531 318/31/532
f 317/32/531 314/30/528 313/27/527
f 318/33/532 319/35/533 320/34/534
f 319/35/533 318/33/532 317/36/531
f 316/37/535 303/39/536 313/38/537
f 303/39/536 316/37/535 302/40/538
f 313/38/537 305/42/539 317/41/540
f 305/42/539 313/38/537 303/43/536
f 317/41/540 307/45/541 319/44/542
f 307/45/541 317/41/540 305/46/539
f 309/47/523 314/30/528 308/48/522
f 314/30/528 309/47/523 312/25/526
f 308/49/522 318/33/532 310/50/524
f 318/33/532 308/49/522 314/30/528
f 310/51/524 320/34/534 311/52/543
f 320/34/534 310/51/524 318/53/532
f 312/25/526 374/10/650 315/10/529
f 312/25/526 375/170/651 374/10/650
f 312/25/526 376/171/652 375/170/651
f 377/1/653 374/6/654 375/6/655
f 374/6/654 377/1/653 378/1/656
f 379/25/657 378/173/658 377/172/659
f 379/25/657 300/29/514 378/173/658
f 379/25/657 301/25/515 300/29/514
f 380/174/660 301/25/515 379/175/657
f 301/25/515 381/47/661 309/47/523
f 380/174/660 381/47/661 301/25/515
f 309/176/523 376/5/652 312/5/526
f 376/5/652 381/176/661 382/177/662
f 309/176/523 381/176/661 376/5/652
f 300/9/514 302/10/516 378/10/658
f 316/29/530 315/10/529 374/10/650
f 378/10/656 316/29/535 374/10/654
f 316/29/535 378/10/656 302/10/538
f 383/10/663 376/5/652 384/178/664
f 376/5/652 385/6/665 375/6/651
f 383/10/663 385/6/665 376/5/652
f 386/1/666 375/6/655 385/6/667
f 375/6/655 386/1/666 377/1/653
f 377/29/659 387/25/668 379/25/657
f 387/25/668 386/29/669 388/179/670
f 377/29/659 386/29/669 387/25/668
f 389/47/671 379/25/657 387/25/668
f 379/25/657 389/47/671 380/47/660
f 384/5/664 382/176/662 390/176/672
f 382/176/662 384/5/664 376/5/652
f 384/5/664 391/6/673 383/180/663
f 384/5/664 298/6/512 391/6/673
f 384/5/664 297/5/511 298/6/512
f 293/1/674 391/6/675 298/6/676
f 391/6/675 293/1/674 392/1/677
f 295/25/509 392/182/678 293/181/507
f 295/25/509 388/29/670 392/182/678
f 295/25/509 387/25/668 388/29/670
f 294/47/508 387/25/668 295/25/509
f 387/25/668 294/47/508 389/47/671
f 297/5/511 390/176/672 296/176/510
f 390/176/672 297/5/511 384/5/664
f 388/1/670 386/10/669 392/10/678
f 385/6/665 383/10/663 391/10/673
f 392/10/677 385/6/667 391/10/675
f 385/6/667 392/10/677 386/10/666
f 381/47/661 380/10/660 382/10/662
f 382/10/662 389/10/671 390/47/672
f 389/10/671 382/10/662 380/10/660
f 390/47/672 294/47/508 296/10/510
f 294/47/508 390/47/672 389/10/671
usemtl 3d66_Standardmaterial_17342430_102
f 15/54/37 29/55/38 30/56/39
f 30/56/39 19/57/40 15/54/37
f 29/55/38 31/58/41 32/59/42
f 32/59/42 30/56/39 29/55/38
f 31/58/41 33/60/43 34/61/44
f 34/61/44 32/59/42 31/58/41
f 33/60/43 35/62/45 36/63/46
f 36/63/46 34/61/44 33/60/43
f 35/62/45 37/64/47 38/65/48
f 38/65/48 36/63/46 35/62/45
f 37/64/47 39/66/49 40/67/50
f 40/67/50 38/65/48 37/64/47
f 39/66/49 41/68/51 42/69/52
f 42/69/52 40/67/50 39/66/49
f 41/68/53 43/70/54 44/71/55
f 44/71/55 42/69/52 41/68/53
f 43/70/54 45/72/56 46/73/57
f 46/73/57 44/71/55 43/70/54
f 19/57/40 30/56/39 47/74/58
f 47/74/58 27/75/59 19/57/40
f 30/56/39 32/59/42 48/76/60
f 48/76/60 47/74/58 30/56/39
f 32/59/42 34/61/44 49/77/61
f 49/77/61 48/76/60 32/59/42
f 34/61/44 36/63/46 50/78/62
f 50/78/62 49/77/63 34/61/44
f 36/63/46 38/65/48 51/79/64
f 51/79/64 50/78/62 36/63/46
f 38/65/48 40/67/50 52/80/65
f 52/80/65 51/79/64 38/65/48
f 40/67/50 42/69/52 53/81/66
f 53/81/66 52/80/65 40/67/50
f 42/69/52 44/71/55 54/82/67
f 54/82/67 53/81/66 42/69/52
f 44/71/55 46/73/57 55/83/68
f 55/83/68 54/82/67 44/71/55
f 112/54/204 127/56/205 128/55/206
f 127/56/205 112/54/207 117/57/208
f 128/55/206 129/59/209 130/58/210
f 129/59/209 128/55/206 127/56/205
f 130/58/210 131/61/211 132/60/212
f 131/61/211 130/58/210 129/59/209
f 132/60/212 133/63/213 134/62/214
f 133/63/213 132/60/212 131/61/211
f 134/62/214 135/65/215 136/64/216
f 135/65/215 134/62/214 133/63/213
f 136/64/217 137/67/218 138/66/219
f 137/67/220 136/64/216 135/65/215
f 138/66/219 139/69/221 140/68/222
f 139/69/221 138/66/219 137/67/218
f 140/68/222 141/71/223 142/70/224
f 141/71/223 140/68/222 139/69/221
f 142/70/224 143/73/225 144/72/226
f 143/73/225 142/70/224 141/71/223
f 117/57/208 145/74/227 127/56/205
f 145/74/227 117/57/208 146/75/228
f 127/56/205 147/76/229 129/59/209
f 147/76/229 127/56/205 145/74/227
f 129/59/209 148/77/230 131/61/211
f 148/77/230 129/59/209 147/76/229
f 131/61/211 149/78/231 133/63/213
f 149/78/231 131/61/211 148/77/230
f 133/63/213 150/79/232 135/65/215
f 150/79/232 133/63/213 149/78/231
f 135/65/215 151/80/233 137/67/220
f 151/80/233 135/65/215 150/79/232
f 137/67/218 152/81/234 139/69/221
f 152/81/235 137/67/220 151/80/233
f 139/69/221 153/82/236 141/71/223
f 153/82/236 139/69/221 152/81/234
f 141/71/223 154/83/237 143/73/225
f 154/83/237 141/71/223 153/82/236
f 210/54/374 224/55/375 225/56/376
f 225/56/376 214/57/377 210/54/374
f 224/55/378 226/58/379 227/59/380
f 227/59/380 225/56/376 224/55/378
f 226/58/379 228/60/381 229/61/382
f 229/61/382 227/59/380 226/58/379
f 228/60/381 230/62/383 231/63/384
f 231/63/384 229/61/382 228/60/381
f 230/62/383 232/64/385 233/65/386
f 233/65/386 231/63/384 230/62/383
f 232/64/385 234/66/387 235/67/388
f 235/67/388 233/65/386 232/64/385
f 234/66/387 236/68/389 237/69/390
f 237/69/390 235/67/388 234/66/387
f 236/68/391 238/70/392 239/71/393
f 239/71/393 237/69/390 236/68/391
f 238/70/392 240/72/394 241/73/395
f 241/73/395 239/71/393 238/70/392
f 214/57/377 225/56/376 242/74/396
f 242/74/397 243/75/398 214/57/377
f 225/56/376 227/59/380 244/76/399
f 244/76/399 242/74/396 225/56/376
f 227/59/380 229/61/382 245/77/400
f 245/77/400 244/76/399 227/59/380
f 229/61/382 231/63/384 246/78/401
f 246/78/401 245/77/400 229/61/382
f 231/63/384 233/65/386 247/79/402
f 247/79/402 246/78/401 231/63/384
f 233/65/386 235/67/388 248/80/403
f 248/80/403 247/79/402 233/65/386
f 235/67/388 237/69/390 249/81/404
f 249/81/404 248/80/403 235/67/388
f 237/69/390 239/71/393 250/82/405
f 250/82/405 249/81/404 237/69/390
f 239/71/393 241/73/395 251/83/406
f 251/83/406 250/82/405 239/71/393
f 306/54/544 321/56/545 322/55/546
f 321/56/547 306/54/548 311/57/549
f 322/55/546 323/59/550 324/58/551
f 323/59/550 322/55/546 321/56/545
f 324/58/551 325/61/552 326/60/553
f 325/61/552 324/58/551 323/59/550
f 326/60/554 327/63/555 328/62/556
f 327/63/555 326/60/553 325/61/552
f 328/62/556 329/65/557 330/64/558
f 329/65/557 328/62/556 327/63/555
f 330/64/558 331/67/559 332/66/560
f 331/67/559 330/64/558 329/65/557
f 332/66/560 333/69/561 334/68/562
f 333/69/561 332/66/560 331/67/559
f 334/68/562 335/71/563 336/70/564
f 335/71/563 334/68/562 333/69/561
f 336/70/564 337/73/565 338/72/566
f 337/73/565 336/70/564 335/71/563
f 311/57/549 339/74/567 321/56/547
f 339/74/567 311/57/549 340/75/568
f 321/56/545 341/76/569 323/59/550
f 341/76/570 321/56/547 339/74/567
f 323/59/550 342/77/571 325/61/552
f 342/77/571 323/59/550 341/76/569
f 325/61/552 343/78/572 327/63/555
f 343/78/572 325/61/552 342/77/571
f 327/63/555 344/79/573 329/65/557
f 344/79/573 327/63/555 343/78/572
f 329/65/557 345/80/574 331/67/559
f 345/80/574 329/65/557 344/79/573
f 331/67/559 346/81/575 333/69/561
f 346/81/576 331/67/559 345/80/574
f 333/69/561 347/82/577 335/71/563
f 347/82/577 333/69/561 346/81/575
f 335/71/563 348/83/578 337/73/579
f 348/83/578 335/71/563 347/82/577
usemtl 3d66_Standardmaterial_17342430_103
f 46/84/69 45/85/70 56/86/71
f 57/87/72 46/84/73 56/86/74
f 57/87/72 56/86/74 58/88/75
f 14/89/76 59/90/77 29/91/78
f 29/91/78 15/92/79 14/89/76
f 59/90/77 60/93/80 31/94/81
f 31/94/81 29/95/78 59/90/77
f 60/93/80 61/96/82 33/97/83
f 33/97/83 31/94/81 60/93/80
f 61/98/82 62/99/84 35/100/85
f 35/100/85 33/97/83 61/98/82
f 62/101/84 63/102/86 37/103/87
f 37/103/87 35/104/85 62/101/84
f 63/102/86 64/105/88 65/106/89
f 65/106/89 37/103/90 63/102/86
f 64/107/88 66/108/91 41/109/92
f 41/109/92 65/110/89 64/107/88
f 66/108/91 67/111/93 43/112/94
f 43/112/94 41/109/92 66/108/91
f 67/113/93 56/114/95 45/115/96
f 45/115/96 43/116/94 67/113/93
f 27/117/97 68/118/98 69/119/99
f 69/119/99 28/120/100 27/117/97
f 68/118/98 48/121/101 70/122/102
f 70/122/102 69/123/99 68/118/98
f 48/121/101 49/124/103 71/125/104
f 71/125/104 70/122/105 48/121/101
f 49/126/103 72/127/106 73/128/107
f 73/128/107 71/125/104 49/126/103
f 72/129/106 51/130/108 74/131/109
f 74/131/109 73/132/107 72/129/106
f 51/130/108 75/133/110 76/134/111
f 76/134/111 74/131/109 51/130/108
f 75/135/110 77/136/112 78/137/112
f 78/137/112 76/138/111 75/135/110
f 77/136/112 54/139/113 79/140/114
f 79/140/114 78/137/112 77/136/112
f 54/141/113 57/142/115 58/143/116
f 58/143/116 79/140/114 54/141/113
f 28/144/117 69/145/118 59/146/119
f 59/146/119 14/147/120 28/144/117
f 69/145/118 70/148/121 60/149/122
f 60/149/122 59/150/119 69/145/118
f 70/148/121 71/151/123 61/152/124
f 61/152/124 60/149/122 70/148/121
f 71/153/123 73/101/125 62/154/126
f 62/154/126 61/155/124 71/153/123
f 73/101/125 74/156/127 63/157/128
f 63/157/128 62/154/126 73/101/125
f 74/158/127 76/159/129 64/160/130
f 64/160/130 63/157/128 74/158/127
f 76/161/129 78/162/131 66/163/132
f 66/163/132 64/164/130 76/161/129
f 78/162/131 79/165/133 67/166/134
f 67/166/134 66/167/132 78/162/131
f 79/165/133 58/168/135 56/169/136
f 56/169/136 67/166/134 79/165/133
f 143/84/238 155/86/239 144/85/240
f 154/87/241 155/86/239 143/84/238
f 154/87/241 156/88/242 155/86/239
f 113/89/243 128/91/244 157/90/245
f 128/91/246 113/89/247 158/92/248
f 157/90/245 130/94/249 159/93/250
f 130/94/249 157/90/245 128/95/244
f 159/93/250 132/97/251 160/96/252
f 132/97/251 159/93/250 130/94/249
f 160/98/252 134/100/253 161/99/254
f 134/100/253 160/98/252 132/97/251
f 161/101/254 136/103/255 162/102/256
f 136/103/255 161/101/254 134/104/253
f 162/102/256 163/106/257 164/105/258
f 163/106/257 162/102/256 136/103/255
f 164/107/258 140/109/259 165/108/259
f 140/109/260 164/107/258 163/110/257
f 165/108/259 142/112/261 166/111/262
f 142/112/261 165/108/259 140/109/259
f 166/113/262 144/115/263 155/114/264
f 144/115/263 166/113/262 142/116/261
f 146/117/265 167/119/266 145/118/267
f 167/119/266 146/117/265 125/120/268
f 145/118/267 168/122/269 147/121/270
f 168/122/269 145/118/267 167/123/266
f 147/121/270 169/125/271 148/124/272
f 169/125/271 147/121/270 168/122/269
f 148/126/273 170/128/274 171/127/275
f 170/128/276 148/126/272 169/125/271
f 171/129/275 172/131/277 150/130/278
f 172/131/277 171/129/275 170/132/274
f 150/130/278 173/134/279 174/133/280
f 173/134/279 150/130/278 172/131/277
f 174/135/280 175/137/281 152/136/282
f 175/137/281 174/135/280 173/138/279
f 152/136/282 176/140/283 153/139/284
f 176/140/283 152/136/282 175/137/281
f 153/141/284 156/143/285 154/142/286
f 156/143/285 153/141/284 176/140/283
f 125/144/287 157/146/288 167/145/289
f 157/146/288 125/144/287 113/147/290
f 167/145/289 159/149/291 168/148/292
f 159/149/291 167/145/289 157/150/288
f 168/148/292 160/152/293 169/151/294
f 160/152/293 168/148/292 159/149/291
f 169/153/294 161/154/295 170/101/296
f 161/154/295 169/153/294 160/155/293
f 170/101/296 162/157/297 172/156/298
f 162/157/297 170/101/296 161/154/295
f 172/158/298 164/160/299 173/159/300
f 164/160/299 172/158/298 162/157/297
f 173/161/300 165/163/301 175/162/302
f 165/163/301 173/161/300 164/164/299
f 175/162/302 166/166/303 176/165/304
f 166/166/303 175/162/302 165/167/301
f 176/165/304 155/169/305 156/168/306
f 155/169/305 176/165/304 166/166/303
f 241/84/407 240/85/408 252/86/409
f 251/87/410 241/84/407 252/86/409
f 251/87/410 252/86/409 253/88/411
f 209/89/412 254/90/413 224/91/414
f 224/91/415 255/92/416 209/89/417
f 254/90/413 256/93/418 226/94/419
f 226/94/419 224/95/414 254/90/413
f 256/93/418 257/96/420 228/97/421
f 228/97/421 226/94/419 256/93/418
f 257/98/420 258/99/422 230/100/423
f 230/100/423 228/97/421 257/98/420
f 258/101/422 259/102/424 232/103/425
f 232/103/425 230/104/423 258/101/422
f 259/102/426 260/105/427 261/106/428
f 261/106/428 232/103/429 259/102/426
f 260/107/427 262/108/430 236/109/430
f 236/109/430 261/110/428 260/107/427
f 262/108/430 263/111/431 238/112/432
f 238/112/432 236/109/430 262/108/430
f 263/113/431 252/114/433 240/115/434
f 240/115/434 238/116/432 263/113/431
f 243/117/435 242/118/436 264/119/437
f 264/119/438 223/120/439 243/117/440
f 242/118/436 244/121/441 265/122/442
f 265/122/442 264/123/437 242/118/436
f 244/121/441 245/124/443 266/125/444
f 266/125/444 265/122/442 244/121/441
f 245/126/443 267/127/445 268/128/446
f 268/128/446 266/125/444 245/126/443
f 267/129/445 247/130/447 269/131/448
f 269/131/448 268/132/446 267/129/445
f 247/130/447 270/133/449 271/134/450
f 271/134/450 269/131/448 247/130/447
f 270/135/449 249/136/451 272/137/452
f 272/137/452 271/138/450 270/135/449
f 249/136/453 250/139/454 273/140/455
f 273/140/455 272/137/456 249/136/453
f 250/141/454 251/142/457 253/143/458
f 253/143/458 273/140/455 250/141/454
f 223/144/459 264/145/460 254/146/461
f 254/146/461 209/147/462 223/144/459
f 264/145/460 265/148/463 256/149/464
f 256/149/464 254/150/461 264/145/460
f 265/148/463 266/151/465 257/152/466
f 257/152/466 256/149/464 265/148/463
f 266/153/465 268/101/467 258/154/468
f 258/154/468 257/155/466 266/153/465
f 268/101/467 269/156/469 259/157/470
f 259/157/470 258/154/468 268/101/467
f 269/158/469 271/159/471 260/160/472
f 260/160/472 259/157/470 269/158/469
f 271/161/471 272/162/473 262/163/474
f 262/163/474 260/164/472 271/161/471
f 272/162/473 273/165/475 263/166/476
f 263/166/476 262/167/474 272/162/473
f 273/165/475 253/168/477 252/169/478
f 252/169/478 263/166/476 273/165/475
f 337/84/580 349/86/581 338/85/582
f 350/87/583 349/86/581 337/84/580
f 350/87/584 351/88/585 349/86/581
f 307/89/586 322/91/587 352/90/588
f 322/91/589 307/89/590 353/92/591
f 352/90/588 324/94/592 354/93/593
f 324/94/592 352/90/588 322/95/587
f 354/93/593 326/97/594 355/96/595
f 326/97/594 354/93/593 324/94/592
f 355/98/595 356/100/596 357/99/597
f 356/100/596 355/98/595 326/97/594
f 357/101/597 330/103/598 358/102/599
f 330/103/598 357/101/597 356/104/596
f 358/102/599 359/106/600 360/105/601
f 359/106/600 358/102/599 330/103/598
f 360/107/602 334/109/603 361/108/603
f 334/109/604 360/107/601 359/110/600
f 361/108/603 336/112/605 362/111/606
f 336/112/605 361/108/603 334/109/603
f 362/113/606 338/115/607 349/114/608
f 338/115/607 362/113/606 336/116/605
f 340/117/609 363/119/610 364/118/611
f 363/119/610 340/117/609 319/120/612
f 364/118/611 365/122/613 341/121/614
f 365/122/613 364/118/611 363/123/610
f 341/121/614 366/125/615 342/124/616
f 366/125/615 341/121/614 365/122/613
f 342/126/617 367/128/618 368/127/619
f 367/128/620 342/126/616 366/125/615
f 368/129/619 369/131/621 344/130/622
f 369/131/621 368/129/619 367/132/618
f 344/130/622 370/134/623 371/133/624
f 370/134/623 344/130/622 369/131/621
f 371/135/624 372/137/625 346/136/625
f 372/137/625 371/135/624 370/138/623
f 346/136/625 373/140/626 347/139/627
f 373/140/626 346/136/625 372/137/625
f 347/141/627 351/143/628 350/142/629
f 351/143/628 347/141/627 373/140/626
f 319/144/630 352/146/631 363/145/632
f 352/146/631 319/144/630 307/147/633
f 363/145/632 354/149/634 365/148/635
f 354/149/634 363/145/632 352/150/631
f 365/148/635 355/152/636 366/151/637
f 355/152/636 365/148/635 354/149/634
f 366/153/637 357/154/638 367/101/639
f 357/154/638 366/153/637 355/155/636
f 367/101/639 358/157/640 369/156/641
f 358/157/640 367/101/639 357/154/638
f 369/158/641 360/160/642 370/159/643
f 360/160/642 369/158/641 358/157/640
f 370/161/643 361/163/644 372/162/645
f 361/163/644 370/161/643 360/164/642
f 372/162/645 362/166/646 373/165/647
f 362/166/646 372/162/645 361/167/644
f 373/165/647 349/169/648 351/168/649
f 349/169/648 373/165/647 362/166/646
usemtl 3d66_Standardmaterial_17342430_099
f 432/183/165 401/184/165 463/185/165
f 463/185/165 469/186/165 432/183/165
f 443/187/166 430/188/166 472/189/166
f 472/189/166 474/190/166 443/187/166
f 400/191/679 446/192/679 476/193/679
f 476/193/679 464/194/679 400/191/679
f 427/195/680 402/196/680 466/197/680
f 466/197/680 468/198/680 427/195/680
f 446/192/679 428/199/679 470/200/679
f 470/200/679 476/193/679 446/192/679
f 404/201/166 443/187/166 474/190/166
f 474/190/166 467/202/166 404/201/166
f 430/188/166 432/203/166 469/204/166
f 469/204/166 472/189/166 430/188/166
f 428/199/679 427/205/679 468/206/679
f 468/206/679 470/200/679 428/199/679
f 393/207/681 394/208/681 395/209/681
f 396/210/682 397/211/682 398/212/682
f 399/213/683 400/214/683 401/205/683
f 402/215/684 403/216/684 404/217/684
f 405/218/165 406/219/165 407/220/165
f 408/221/165 406/219/165 405/218/165
f 409/220/680 410/222/680 411/223/680
f 412/224/680 409/220/680 411/223/680
f 419/231/682 420/232/682 421/233/682
f 397/234/687 419/235/687 422/236/687
f 423/237/681 424/238/681 425/239/681
f 422/236/688 393/240/687 424/241/687
f 426/242/684 427/243/684 428/244/684
f 403/245/689 426/246/689 429/247/689
f 430/248/690 431/249/690 432/250/690
f 429/247/689 399/251/689 431/252/689
f 398/212/682 397/211/682 442/260/682
f 397/234/687 422/236/687 442/261/687
f 404/217/684 403/216/684 443/262/684
f 403/245/689 429/247/689 443/263/689
f 422/265/682 419/231/682 421/233/682
f 422/236/688 421/266/688 445/267/688
f 397/234/687 420/209/687 419/235/687
f 396/239/687 420/209/687 397/234/687
f 429/268/684 426/242/684 428/244/684
f 429/247/689 428/199/689 446/192/689
f 403/245/689 427/205/689 426/246/689
f 402/250/689 427/205/689 403/245/689
f 393/207/681 445/270/681 394/208/681
f 422/236/688 445/267/688 393/240/687
f 399/213/683 446/271/683 400/214/683
f 429/247/689 446/192/689 399/251/689
f 423/237/681 422/265/681 424/238/681
f 442/261/687 422/236/687 423/272/687
f 424/241/687 393/240/687 425/210/687
f 393/240/687 395/232/687 425/210/687
f 430/248/690 429/268/690 431/249/690
f 443/263/689 429/247/689 430/273/689
f 431/252/689 399/251/689 432/215/689
f 399/251/689 401/243/689 432/215/689
f 402/274/166 404/201/166 467/202/166
f 467/202/166 466/280/166 402/274/166
f 401/243/679 400/191/679 464/194/679
f 464/194/679 463/281/679 401/243/679
f 474/284/697 472/285/697 471/286/697
f 471/286/697 473/287/697 474/284/697
f 464/194/698 476/193/698 475/291/698
f 475/291/698 448/292/698 464/194/698
f 476/193/698 470/200/698 418/282/698
f 418/282/698 475/291/698 476/193/698
f 449/300/707 409/301/707 450/302/707
f 450/302/707 451/303/707 449/300/707
f 435/288/707 408/290/708 452/304/709
f 452/304/709 453/305/707 435/288/707
f 408/290/708 405/306/707 454/307/707
f 454/307/707 452/304/709 408/290/708
f 409/301/709 412/278/707 455/308/707
f 455/308/707 450/302/709 409/301/709
f 405/306/707 456/309/707 457/310/707
f 457/310/707 454/307/707 405/306/707
f 412/278/707 414/277/707 458/311/707
f 458/311/707 455/308/707 412/278/707
f 459/312/707 435/288/707 453/305/707
f 453/305/707 460/313/707 459/312/707
f 456/309/707 461/314/707 462/315/707
f 462/315/707 457/310/707 456/309/707
f 461/314/707 449/300/707 451/303/707
f 451/303/707 462/315/707 461/314/707
f 414/277/707 459/312/707 460/313/707
f 460/313/707 458/311/707 414/277/707
f 451/303/710 450/302/710 395/232/710
f 395/232/710 394/316/710 451/303/710
f 453/305/711 452/304/711 396/239/711
f 396/239/711 398/317/711 453/305/711
f 454/307/710 457/310/710 421/266/710
f 421/266/710 420/209/710 454/307/710
f 455/308/711 458/311/711 423/272/711
f 423/272/711 425/210/711 455/308/711
f 460/313/711 453/305/711 398/317/711
f 398/317/711 442/261/711 460/313/711
f 457/310/710 462/315/710 445/267/710
f 445/267/710 421/266/710 457/310/710
f 452/318/680 454/319/680 420/320/680
f 420/320/680 396/321/680 452/318/680
f 462/315/710 451/303/710 394/316/710
f 394/316/710 445/267/710 462/315/710
f 458/311/711 460/313/711 442/261/711
f 442/261/711 423/272/711 458/311/711
f 450/322/165 455/323/165 425/324/165
f 425/324/165 395/325/165 450/322/165
f 448/292/698 411/295/698 463/281/698
f 463/281/698 464/194/698 448/292/698
f 465/326/697 407/301/697 466/327/697
f 466/327/697 467/328/697 465/326/697
f 407/301/712 406/283/713 468/206/713
f 468/206/713 466/327/712 407/301/712
f 411/295/714 410/306/714 469/329/714
f 469/329/714 463/281/715 411/295/714
f 406/283/698 418/282/698 470/200/698
f 470/200/698 468/206/698 406/283/698
f 410/306/697 471/286/697 472/285/697
f 472/285/697 469/329/697 410/306/697
f 473/287/697 465/326/697 467/328/697
f 467/328/697 474/284/697 473/287/697
usemtl 3d66_Standardmaterial_17342430_100
f 413/225/685 414/226/685 415/227/685
f 416/228/686 417/229/686 418/230/686
f 433/253/686 434/254/686 435/255/686
f 417/229/691 433/253/691 436/256/691
f 437/257/685 438/258/685 439/259/685
f 436/256/691 440/225/691 441/258/691
f 418/230/691 417/229/691 444/264/691
f 417/229/691 436/256/691 444/264/691
f 436/256/691 433/253/691 435/255/691
f 436/256/691 435/255/691 447/269/691
f 417/229/686 434/254/686 433/253/686
f 416/228/686 434/254/686 417/229/686
f 440/225/691 447/269/691 414/226/691
f 436/256/691 447/269/691 440/225/691
f 448/257/691 436/256/691 441/258/691
f 444/264/691 436/256/691 448/257/691
f 438/258/685 413/225/685 439/259/685
f 413/225/685 415/227/685 439/259/685
f 414/275/692 413/276/693 440/276/694
f 414/277/695 412/278/695 415/279/695
f 418/282/696 406/283/696 416/279/696
f 435/288/695 434/289/695 408/290/695
f 448/257/699 441/258/700 438/258/701
f 438/293/702 437/294/702 448/294/702
f 411/295/696 448/292/703 437/292/704
f 437/292/704 439/289/696 411/295/696
f 441/296/705 440/276/694 413/276/693
f 413/225/706 438/258/701 441/258/700
f 406/219/165 408/221/165 434/297/165
f 434/297/165 416/298/165 406/219/165
f 412/224/680 411/223/680 439/299/680
f 439/299/680 415/298/680 412/224/680
