# Blender 4.3.2
# www.blender.org
mtllib 右鸱吻.mtl
o 右鸱吻
v 0.263927 -0.209103 1.364793
v 0.262449 -0.211776 1.366569
v 0.257971 -0.214946 1.358067
v 0.259449 -0.212273 1.356292
v 0.265637 -0.218292 1.367320
v 0.261159 -0.221462 1.358819
v 0.265613 -0.221077 1.368371
v 0.261135 -0.224247 1.359869
v 0.263078 -0.222135 1.370101
v 0.258600 -0.225306 1.361600
v 0.263620 -0.225382 1.371027
v 0.259142 -0.228553 1.362525
v 0.259207 -0.227550 1.374160
v 0.254729 -0.230721 1.365658
v 0.259426 -0.231608 1.375557
v 0.254948 -0.234779 1.367056
v 0.265023 -0.253917 1.380929
v 0.260545 -0.257087 1.372428
v 0.268103 -0.254572 1.379551
v 0.263625 -0.257743 1.371050
v 0.270379 -0.267289 1.383095
v 0.265901 -0.270459 1.374593
v 0.274191 -0.270370 1.382236
v 0.269713 -0.273540 1.373734
v 0.278194 -0.271097 1.380398
v 0.273716 -0.274267 1.371897
v 0.281801 -0.268727 1.377615
v 0.277323 -0.271898 1.369113
v 0.280020 -0.264827 1.377098
v 0.275542 -0.267998 1.368597
v 0.279982 -0.256743 1.374103
v 0.275504 -0.259913 1.365602
v 0.282037 -0.256204 1.372820
v 0.277559 -0.259375 1.364319
v 0.283518 -0.259663 1.373330
v 0.279040 -0.262833 1.364828
v 0.287894 -0.261672 1.371774
v 0.283416 -0.264843 1.363273
v 0.290276 -0.260323 1.370017
v 0.285798 -0.263494 1.361515
v 0.294339 -0.263284 1.368981
v 0.289861 -0.266454 1.360479
v 0.293944 -0.266319 1.370320
v 0.289467 -0.269490 1.361819
v 0.294919 -0.271550 1.371758
v 0.290441 -0.274720 1.363256
v 0.298912 -0.276735 1.371588
v 0.294434 -0.279905 1.363087
v 0.304131 -0.277834 1.369249
v 0.299653 -0.281005 1.360748
v 0.311045 -0.277252 1.365390
v 0.306567 -0.280423 1.356889
v 0.314807 -0.270575 1.360919
v 0.310329 -0.273746 1.352417
v 0.313072 -0.262638 1.358873
v 0.308594 -0.265809 1.350371
v 0.306312 -0.251248 1.358185
v 0.301834 -0.254418 1.349684
v 0.303315 -0.243910 1.357028
v 0.298837 -0.247081 1.348526
v 0.303642 -0.240488 1.355579
v 0.299164 -0.243659 1.347077
v 0.306548 -0.240258 1.353962
v 0.302070 -0.243428 1.345461
v 0.309014 -0.242956 1.353670
v 0.304537 -0.246127 1.345168
v 0.311551 -0.243431 1.352511
v 0.307073 -0.246601 1.344009
v 0.312758 -0.240431 1.350756
v 0.308280 -0.243602 1.342255
v 0.312293 -0.238080 1.350124
v 0.307815 -0.241250 1.341623
v 0.312670 -0.235342 1.348905
v 0.308192 -0.238512 1.340403
v 0.307676 -0.230451 1.349711
v 0.303198 -0.233622 1.341210
v 0.301699 -0.229712 1.352584
v 0.297221 -0.232882 1.344082
v 0.300045 -0.212027 1.346859
v 0.295567 -0.215197 1.338358
vn -0.7932 0.5739 0.2038
vn -0.7830 -0.3216 0.5324
vn -0.8967 0.1629 0.4116
vn -0.4409 0.8919 -0.1004
vn -0.8826 -0.0135 0.4699
vn -0.4808 0.8738 -0.0726
vn -0.8953 0.1010 0.4339
vn -0.8649 -0.0984 0.4923
vn -0.0346 -0.9303 0.3652
vn -0.8805 -0.0257 0.4734
vn -0.4660 -0.7201 0.5140
vn -0.0078 -0.9356 0.3530
vn 0.5575 -0.8300 0.0159
vn 0.5579 -0.8298 0.0156
vn 0.7963 0.2935 -0.5289
vn 0.8967 -0.1500 -0.4164
vn 0.3443 -0.9245 0.1634
vn -0.8074 -0.2684 0.5254
vn -0.2373 -0.8626 0.4467
vn 0.5178 -0.8543 0.0458
vn -0.4214 -0.7544 0.5033
vn -0.8889 0.2770 0.3649
vn -0.8889 0.2767 0.3650
vn -0.8791 -0.0331 0.4754
vn -0.6573 -0.5240 0.5416
vn -0.0327 -0.9307 0.3643
vn 0.2139 -0.9468 0.2405
vn 0.7902 -0.5793 -0.2002
vn 0.8725 0.0659 -0.4842
vn 0.7378 0.4053 -0.5398
vn 0.7376 0.4056 -0.5398
vn 0.8150 0.2504 -0.5226
vn 0.8924 -0.2456 -0.3785
vn 0.2100 -0.9471 0.2426
vn -0.5932 -0.6004 0.5364
vn -0.0125 -0.9347 0.3552
vn 0.8345 -0.4869 -0.2580
vn 0.8769 0.0449 -0.4786
vn 0.8880 -0.2835 -0.3620
vn 0.8880 -0.2838 -0.3619
vn 0.5480 0.6471 -0.5300
vn -0.0418 0.9431 -0.3297
vn 0.8923 -0.0613 -0.4472
vn -0.0782 0.9469 -0.3119
vn 0.4426 0.3133 0.8402
vn 0.4421 0.3134 0.8404
vn 0.4434 0.3133 0.8398
vn 0.4430 0.3133 0.8400
vn -0.4426 -0.3133 -0.8402
vn -0.4430 -0.3133 -0.8400
vn -0.4421 -0.3134 -0.8404
vn -0.4421 -0.3134 -0.8405
vn -0.4423 -0.3134 -0.8404
vn -0.4429 -0.3133 -0.8401
vn -0.4433 -0.3133 -0.8399
vt 0.903400 0.042900
vt 0.872100 0.000500
vt 0.855300 0.138400
vt 0.860100 0.180800
vt 0.908200 0.199900
vt 0.903400 0.248700
vt 0.987700 0.286800
vt 0.990100 0.348300
vt 0.922700 0.681300
vt 0.867300 0.687700
vt 0.845600 0.878600
vt 0.780600 0.921000
vt 0.708400 0.927400
vt 0.638600 0.887100
vt 0.665000 0.829800
vt 0.653000 0.706800
vt 0.614500 0.696200
vt 0.592800 0.747100
vt 0.515800 0.772600
vt 0.470000 0.749200
vt 0.400200 0.789500
vt 0.412200 0.836200
vt 0.402600 0.914700
vt 0.337600 0.988900
vt 0.243700 0.999500
vt 0.116100 0.982500
vt 0.036600 0.876500
vt 0.055900 0.757700
vt 0.161800 0.592300
vt 0.205100 0.484100
vt 0.193700 0.431600
vt 0.140100 0.424700
vt 0.099200 0.462900
vt 0.053400 0.467100
vt 0.026600 0.420100
vt 0.031400 0.384800
vt 0.020200 0.342700
vt 0.104000 0.274100
vt 0.212400 0.269900
vt 0.214800 0.002600
s 1
usemtl 3d66_Standardmaterial_17342430_086
f 3/1/1 2/1/1 1/2/1
f 4/2/1 3/1/1 1/2/1
f 6/3/2 5/3/2 2/1/2
f 3/1/2 6/3/2 2/1/2
f 8/4/3 7/4/3 5/3/3
f 6/3/3 8/4/3 5/3/3
f 10/5/4 9/5/4 7/4/4
f 8/4/4 10/5/4 7/4/4
f 12/6/5 11/6/5 9/5/5
f 10/5/5 12/6/5 9/5/5
f 14/7/6 13/7/6 11/6/6
f 12/6/6 14/7/6 11/6/6
f 16/8/7 15/8/7 13/7/7
f 14/7/7 16/8/7 13/7/7
f 18/9/8 17/9/8 15/8/8
f 16/8/8 18/9/8 15/8/8
f 20/10/9 19/10/9 17/9/9
f 18/9/9 20/10/9 17/9/9
f 22/11/10 21/11/10 19/10/10
f 20/10/10 22/11/10 19/10/10
f 24/12/11 23/12/11 21/11/11
f 22/11/11 24/12/11 21/11/11
f 26/13/12 25/13/12 23/12/12
f 24/12/12 26/13/12 23/12/12
f 28/14/13 27/14/13 25/13/13
f 26/13/14 28/14/13 25/13/13
f 30/15/15 29/15/15 27/14/15
f 28/14/15 30/15/15 27/14/15
f 32/16/16 31/16/16 29/15/16
f 30/15/16 32/16/16 29/15/16
f 34/17/17 33/17/17 31/16/17
f 32/16/17 34/17/17 31/16/17
f 36/18/18 35/18/18 33/17/18
f 34/17/18 36/18/18 33/17/18
f 38/19/19 37/19/19 35/18/19
f 36/18/19 38/19/19 35/18/19
f 40/20/20 39/20/20 37/19/20
f 38/19/20 40/20/20 37/19/20
f 42/21/21 41/21/21 39/20/21
f 40/20/21 42/21/21 39/20/21
f 44/22/22 43/22/23 41/21/23
f 42/21/23 44/22/22 41/21/23
f 46/23/24 45/23/24 43/22/24
f 44/22/24 46/23/24 43/22/24
f 48/24/25 47/24/25 45/23/25
f 46/23/25 48/24/25 45/23/25
f 50/25/26 49/25/26 47/24/26
f 48/24/26 50/25/26 47/24/26
f 52/26/27 51/26/27 49/25/27
f 50/25/27 52/26/27 49/25/27
f 54/27/28 53/27/28 51/26/28
f 52/26/28 54/27/28 51/26/28
f 56/28/29 55/28/29 53/27/29
f 54/27/29 56/28/29 53/27/29
f 58/29/30 57/29/31 55/28/30
f 56/28/30 58/29/30 55/28/30
f 60/30/32 59/30/32 57/29/32
f 58/29/32 60/30/32 57/29/32
f 62/31/33 61/31/33 59/30/33
f 60/30/33 62/31/33 59/30/33
f 64/32/34 63/32/34 61/31/34
f 62/31/34 64/32/34 61/31/34
f 66/33/35 65/33/35 63/32/35
f 64/32/35 66/33/35 63/32/35
f 68/34/36 67/34/36 65/33/36
f 66/33/36 68/34/36 65/33/36
f 70/35/37 69/35/37 67/34/37
f 68/34/37 70/35/37 67/34/37
f 72/36/38 71/36/38 69/35/38
f 70/35/38 72/36/38 69/35/38
f 74/37/39 73/37/40 71/36/39
f 72/36/39 74/37/39 71/36/39
f 76/38/41 75/38/41 73/37/41
f 74/37/41 76/38/41 73/37/41
f 78/39/42 77/39/42 75/38/42
f 76/38/42 78/39/42 75/38/42
f 80/40/43 79/40/43 77/39/43
f 78/39/43 80/40/43 77/39/43
f 4/2/44 1/2/44 79/40/44
f 80/40/44 4/2/44 79/40/44
f 79/40/45 1/2/45 77/39/45
f 1/2/45 2/1/45 77/39/45
f 2/1/45 5/3/45 77/39/45
f 5/3/45 7/4/45 77/39/45
f 27/14/45 29/15/45 25/13/45
f 25/13/45 29/15/45 23/12/45
f 23/12/45 29/15/45 21/11/45
f 21/11/45 29/15/45 19/10/45
f 29/15/45 31/16/46 19/10/45
f 17/9/45 19/10/45 15/8/45
f 9/5/47 11/6/45 7/4/45
f 7/4/45 11/6/45 77/39/45
f 67/34/45 69/35/45 65/33/45
f 65/33/45 69/35/45 63/32/45
f 69/35/45 71/36/45 63/32/45
f 19/10/45 31/16/46 15/8/45
f 31/16/46 33/17/45 15/8/45
f 13/7/45 15/8/45 11/6/45
f 15/8/45 33/17/45 11/6/45
f 11/6/45 33/17/45 77/39/45
f 73/37/45 75/38/45 71/36/45
f 71/36/45 75/38/45 63/32/45
f 75/38/45 77/39/45 63/32/45
f 63/32/45 77/39/45 61/31/45
f 77/39/45 33/17/45 61/31/45
f 61/31/45 33/17/45 59/30/45
f 59/30/45 33/17/45 57/29/45
f 33/17/45 35/18/45 57/29/45
f 37/19/45 39/20/46 35/18/45
f 35/18/45 39/20/46 57/29/45
f 39/20/46 41/21/45 57/29/45
f 57/29/45 41/21/45 55/28/45
f 55/28/45 41/21/45 53/27/45
f 53/27/45 41/21/45 51/26/45
f 51/26/45 41/21/45 49/25/45
f 41/21/45 43/22/45 49/25/45
f 43/22/45 45/23/45 49/25/45
f 45/23/45 47/24/48 49/25/45
f 4/2/49 80/40/49 78/39/49
f 3/1/49 4/2/49 78/39/49
f 6/3/49 3/1/49 78/39/49
f 8/4/49 6/3/49 78/39/49
f 30/15/49 28/14/49 26/13/49
f 30/15/49 26/13/49 24/12/49
f 30/15/49 24/12/49 22/11/49
f 30/15/49 22/11/49 20/10/49
f 32/16/50 30/15/49 20/10/49
f 20/10/49 18/9/49 16/8/49
f 12/6/49 10/5/49 8/4/49
f 12/6/49 8/4/49 78/39/49
f 70/35/51 68/34/52 66/33/49
f 70/35/51 66/33/49 64/32/49
f 72/36/53 70/35/51 64/32/49
f 32/16/50 20/10/49 16/8/49
f 34/17/49 32/16/50 16/8/49
f 16/8/49 14/7/50 12/6/49
f 34/17/49 16/8/49 12/6/49
f 34/17/49 12/6/49 78/39/49
f 76/38/49 74/37/51 72/36/53
f 76/38/49 72/36/53 64/32/49
f 78/39/49 76/38/49 64/32/49
f 78/39/49 64/32/49 62/31/49
f 34/17/49 78/39/49 62/31/49
f 34/17/49 62/31/49 60/30/49
f 34/17/49 60/30/49 58/29/49
f 36/18/49 34/17/49 58/29/49
f 40/20/49 38/19/51 36/18/49
f 40/20/49 36/18/49 58/29/49
f 42/21/49 40/20/49 58/29/49
f 42/21/49 58/29/49 56/28/49
f 42/21/49 56/28/49 54/27/49
f 42/21/49 54/27/49 52/26/49
f 42/21/49 52/26/49 50/25/49
f 44/22/54 42/21/49 50/25/49
f 46/23/55 44/22/54 50/25/49
f 48/24/49 46/23/55 50/25/49
