# Blender 4.3.2
# www.blender.org
mtllib 屋顶枢轴.mtl
o 屋顶枢轴
v 1.236521 0.021977 1.089988
v 0.163816 0.104688 1.624173
v 0.166489 0.073618 1.634351
v 1.239195 -0.009092 1.100166
v -0.085013 -0.071485 1.151774
v -0.082340 -0.102555 1.161952
v 0.987693 -0.154196 0.617588
v 0.990366 -0.185265 0.627767
v 1.244904 0.036755 1.088920
v 0.159798 0.120422 1.629281
v 0.160910 0.107498 1.633514
v 1.246016 0.023832 1.093153
v -0.095619 -0.060416 1.144374
v -0.094507 -0.073339 1.148608
v 0.989487 -0.144082 0.604013
v 0.990599 -0.157006 0.608247
v 0.970776 -0.125991 0.664149
v -0.034519 -0.048478 1.164765
v -0.033407 -0.061402 1.168999
v 0.971887 -0.138914 0.668383
v 0.178487 0.102332 1.569155
v 0.179599 0.089408 1.573389
v 1.183782 0.024819 1.068539
v 1.184894 0.011896 1.072773
vn 0.4426 0.3133 0.8402
vn -0.8930 0.0689 0.4447
vn -0.4426 -0.3133 -0.8402
vn 0.8930 -0.0689 -0.4447
vn -0.0815 0.9471 -0.3103
vn 0.0815 -0.9471 0.3103
vt 0.006200 0.294000
vt 0.993800 0.294000
vt 0.993800 0.999500
vt 0.006200 0.999500
vt 0.013400 0.294000
vt 0.986600 0.294000
vt 0.986600 0.999500
vt 0.013400 0.999500
vt 0.993800 0.013400
vt 0.006200 0.986600
vt 0.006200 0.013400
vt 0.993800 0.986600
vt 0.000500 0.000500
vt 0.999500 0.000500
vt 0.999500 0.294000
vt 0.000500 0.294000
vt 0.037200 0.000500
vt 0.962800 0.000500
vt 0.962800 0.294000
vt 0.037200 0.294000
vt 0.083400 0.000500
vt 0.916600 0.000500
vt 0.916600 0.294000
vt 0.083400 0.294000
vt 0.037200 0.916600
vt 0.000500 0.999500
vt 0.037200 0.083400
vt 0.962800 0.083400
vt 0.999500 0.999500
vt 0.962800 0.916600
s 1
usemtl 3d66_Standardmaterial_17342430_097
f 1/1/1 2/2/1 3/3/1
f 1/1/1 3/3/1 4/4/1
f 2/5/2 5/6/2 6/7/2
f 2/5/2 6/7/2 3/8/2
f 5/1/3 7/2/3 8/3/3
f 5/1/3 8/3/3 6/4/3
f 7/5/4 1/6/4 4/7/4
f 7/5/4 4/7/4 8/8/4
f 5/9/5 1/10/5 7/11/5
f 5/9/5 2/12/5 1/10/5
f 6/11/6 8/9/6 4/12/6
f 6/11/6 4/12/6 3/10/6
f 9/13/1 10/14/1 11/15/1
f 9/13/1 11/15/1 12/16/1
f 10/13/2 13/14/2 14/15/2
f 10/13/2 14/15/2 11/16/2
f 13/13/3 15/14/3 16/15/3
f 13/13/3 16/15/3 14/16/3
f 15/13/4 9/14/4 12/15/4
f 15/13/4 12/15/4 16/16/4
f 17/17/1 18/18/1 19/19/1
f 17/17/1 19/19/1 20/20/1
f 18/21/4 21/22/4 22/23/4
f 18/21/4 22/23/4 19/24/4
f 21/17/3 23/18/3 24/19/3
f 21/17/3 24/19/3 22/20/3
f 23/21/2 17/22/2 20/23/2
f 23/21/2 20/23/2 24/24/2
f 23/25/5 9/26/5 17/27/5
f 15/13/5 17/27/5 9/26/5
f 13/14/5 17/27/5 15/13/5
f 13/14/5 18/28/5 17/27/5
f 10/29/5 18/28/5 13/14/5
f 10/29/5 21/30/5 18/28/5
f 23/25/5 10/29/5 9/26/5
f 21/30/5 10/29/5 23/25/5
f 24/30/6 20/28/6 12/29/6
f 16/14/6 12/29/6 20/28/6
f 14/13/6 16/14/6 20/28/6
f 14/13/6 20/28/6 19/27/6
f 11/26/6 14/13/6 19/27/6
f 11/26/6 19/27/6 22/25/6
f 24/30/6 12/29/6 11/26/6
f 22/25/6 24/30/6 11/26/6
