# Blender 4.3.2
# www.blender.org
mtllib 左鸱吻.mtl
o 左鸱吻
v 0.926940 -0.260224 1.034627
v 0.928901 -0.263162 1.034690
v 0.924423 -0.266332 1.026188
v 0.922462 -0.263394 1.026125
v 0.926800 -0.269270 1.038074
v 0.922322 -0.272441 1.029573
v 0.927306 -0.272096 1.038862
v 0.922828 -0.275267 1.030360
v 0.930059 -0.273563 1.037958
v 0.925581 -0.276733 1.029457
v 0.930072 -0.276769 1.039147
v 0.925594 -0.279939 1.030646
v 0.934920 -0.279651 1.037669
v 0.930442 -0.282821 1.029167
v 0.935400 -0.283729 1.038936
v 0.930922 -0.286899 1.030435
v 0.933593 -0.305467 1.047995
v 0.929115 -0.308637 1.039493
v 0.930586 -0.305653 1.049648
v 0.926108 -0.308823 1.041147
v 0.930482 -0.318186 1.054377
v 0.926004 -0.321356 1.045875
v 0.927152 -0.320716 1.057074
v 0.922674 -0.323886 1.048573
v 0.923222 -0.320831 1.059188
v 0.918744 -0.324001 1.050686
v 0.919157 -0.317870 1.060225
v 0.914679 -0.321040 1.051723
v 0.920285 -0.314195 1.058259
v 0.915807 -0.317365 1.049758
v 0.918923 -0.306008 1.055924
v 0.914445 -0.309178 1.047422
v 0.916748 -0.305143 1.056747
v 0.912270 -0.308314 1.048246
v 0.915846 -0.308418 1.058443
v 0.911368 -0.311588 1.049942
v 0.911760 -0.309775 1.061102
v 0.907282 -0.312945 1.052601
v 0.909113 -0.308038 1.061848
v 0.904635 -0.311208 1.053347
v 0.905508 -0.310408 1.064631
v 0.901030 -0.313578 1.056130
v 0.906434 -0.313545 1.065313
v 0.901956 -0.316715 1.056812
v 0.906353 -0.318694 1.067276
v 0.901875 -0.321865 1.058775
v 0.903204 -0.323328 1.070663
v 0.898726 -0.326499 1.062162
v 0.898106 -0.323632 1.073462
v 0.893628 -0.326803 1.064960
v 0.890999 -0.321969 1.076585
v 0.886521 -0.325140 1.068084
v 0.886030 -0.314619 1.076461
v 0.881552 -0.317789 1.067960
v 0.886413 -0.306845 1.073360
v 0.881935 -0.310016 1.064859
v 0.891290 -0.296352 1.066878
v 0.886812 -0.299523 1.058377
v 0.893056 -0.289382 1.063348
v 0.888578 -0.292552 1.054847
v 0.892132 -0.285863 1.062523
v 0.887654 -0.289034 1.054022
v 0.889147 -0.285179 1.063840
v 0.884669 -0.288349 1.055339
v 0.887115 -0.287530 1.065787
v 0.882637 -0.290701 1.057286
v 0.884628 -0.287617 1.067130
v 0.880150 -0.290788 1.058629
v 0.882884 -0.284390 1.066845
v 0.878406 -0.287561 1.058344
v 0.882949 -0.282080 1.065950
v 0.878471 -0.285250 1.057448
v 0.882092 -0.279247 1.065344
v 0.877614 -0.282417 1.056843
v 0.886306 -0.275066 1.061565
v 0.881828 -0.278237 1.053064
v 0.892235 -0.275245 1.058509
v 0.887757 -0.278415 1.050008
v 0.890846 -0.257580 1.052653
v 0.886368 -0.260750 1.044151
vn 0.7043 0.4585 -0.5420
vn 0.8492 -0.4475 -0.2804
vn 0.8805 0.0258 -0.4734
vn 0.2922 0.8354 -0.4655
vn 0.8967 -0.1507 -0.4161
vn 0.3359 0.8108 -0.4793
vn 0.8897 -0.0366 -0.4550
vn 0.8935 -0.2340 -0.3833
vn 0.1962 -0.9481 0.2502
vn 0.8967 -0.1627 -0.4116
vn 0.5970 -0.8021 -0.0153
vn 0.5972 -0.8019 -0.0155
vn 0.1700 -0.9493 0.2645
vn -0.4212 -0.7545 0.5032
vn -0.8578 0.4211 0.2948
vn -0.8827 -0.0128 0.4697
vn -0.1888 -0.8834 0.4289
vn 0.8647 -0.3974 -0.3073
vn 0.3899 -0.9110 0.1344
vn -0.3768 -0.7853 0.4913
vn 0.5577 -0.8299 0.0157
vn 0.8529 0.1424 -0.5023
vn 0.8966 -0.1700 -0.4089
vn 0.7568 -0.6331 -0.1626
vn 0.1944 -0.9482 0.2512
vn -0.0527 -0.9263 0.3732
vn -0.7004 -0.4644 0.5421
vn -0.7006 -0.4641 0.5421
vn -0.8956 0.2023 0.3963
vn -0.8179 0.5253 0.2349
vn -0.8178 0.5255 0.2348
vn -0.8692 0.3803 0.3160
vn -0.8618 -0.1104 0.4951
vn -0.0488 -0.9272 0.3715
vn 0.7051 -0.7005 -0.1102
vn 0.1746 -0.9491 0.2620
vn -0.7613 -0.3639 0.5367
vn -0.8964 0.1817 0.4044
vn -0.8508 -0.1494 0.5039
vn -0.8507 -0.1498 0.5039
vn -0.6675 0.7408 0.0753
vn -0.1211 0.9493 -0.2902
vn -0.8936 0.0764 0.4422
vn -0.0848 0.9474 -0.3087
vn 0.4426 0.3133 0.8402
vn 0.4421 0.3134 0.8404
vn 0.4430 0.3133 0.8400
vn 0.4417 0.3134 0.8406
vn 0.4429 0.3133 0.8401
vn -0.4426 -0.3133 -0.8402
vn -0.4421 -0.3134 -0.8404
vn -0.4430 -0.3133 -0.8400
vn -0.4436 -0.3133 -0.8397
vn -0.4423 -0.3134 -0.8404
vt 0.872100 0.000500
vt 0.903400 0.042900
vt 0.855300 0.138400
vt 0.860100 0.180800
vt 0.908200 0.199900
vt 0.903400 0.248700
vt 0.987700 0.286800
vt 0.990100 0.348300
vt 0.922700 0.681300
vt 0.867300 0.687700
vt 0.845600 0.878600
vt 0.780600 0.921000
vt 0.708400 0.927400
vt 0.638600 0.887100
vt 0.665000 0.829800
vt 0.653000 0.706800
vt 0.614500 0.696200
vt 0.592800 0.747100
vt 0.515800 0.772600
vt 0.470000 0.749200
vt 0.400200 0.789500
vt 0.412200 0.836200
vt 0.402600 0.914700
vt 0.337600 0.988900
vt 0.243700 0.999500
vt 0.116100 0.982500
vt 0.036600 0.876500
vt 0.055900 0.757700
vt 0.161800 0.592300
vt 0.205100 0.484100
vt 0.193700 0.431600
vt 0.140100 0.424700
vt 0.099200 0.462900
vt 0.053400 0.467100
vt 0.026600 0.420100
vt 0.031400 0.384800
vt 0.020200 0.342700
vt 0.104000 0.274100
vt 0.212400 0.269900
vt 0.214800 0.002600
s 1
usemtl 3d66_Standardmaterial_17342430_086
f 1/1/1 2/2/1 3/2/1
f 1/1/1 3/2/1 4/1/1
f 2/2/2 5/3/2 6/3/2
f 2/2/2 6/3/2 3/2/2
f 5/3/3 7/4/3 8/4/3
f 5/3/3 8/4/3 6/3/3
f 7/4/4 9/5/4 10/5/4
f 7/4/4 10/5/4 8/4/4
f 9/5/5 11/6/5 12/6/5
f 9/5/5 12/6/5 10/5/5
f 11/6/6 13/7/6 14/7/6
f 11/6/6 14/7/6 12/6/6
f 13/7/7 15/8/7 16/8/7
f 13/7/7 16/8/7 14/7/7
f 15/8/8 17/9/8 18/9/8
f 15/8/8 18/9/8 16/8/8
f 17/9/9 19/10/9 20/10/9
f 17/9/9 20/10/9 18/9/9
f 19/10/10 21/11/10 22/11/10
f 19/10/10 22/11/10 20/10/10
f 21/11/11 23/12/11 24/12/11
f 21/11/11 24/12/11 22/11/12
f 23/12/13 25/13/13 26/13/13
f 23/12/13 26/13/13 24/12/13
f 25/13/14 27/14/14 28/14/14
f 25/13/14 28/14/14 26/13/14
f 27/14/15 29/15/15 30/15/15
f 27/14/15 30/15/15 28/14/15
f 29/15/16 31/16/16 32/16/16
f 29/15/16 32/16/16 30/15/16
f 31/16/17 33/17/17 34/17/17
f 31/16/17 34/17/17 32/16/17
f 33/17/18 35/18/18 36/18/18
f 33/17/18 36/18/18 34/17/18
f 35/18/19 37/19/19 38/19/19
f 35/18/19 38/19/19 36/18/19
f 37/19/20 39/20/20 40/20/20
f 37/19/20 40/20/20 38/19/20
f 39/20/21 41/21/21 42/21/21
f 39/20/21 42/21/21 40/20/21
f 41/21/22 43/22/22 44/22/22
f 41/21/22 44/22/22 42/21/22
f 43/22/23 45/23/23 46/23/23
f 43/22/23 46/23/23 44/22/23
f 45/23/24 47/24/24 48/24/24
f 45/23/24 48/24/24 46/23/24
f 47/24/25 49/25/25 50/25/25
f 47/24/25 50/25/25 48/24/25
f 49/25/26 51/26/26 52/26/26
f 49/25/26 52/26/26 50/25/26
f 51/26/27 53/27/27 54/27/27
f 51/26/27 54/27/27 52/26/28
f 53/27/29 55/28/29 56/28/29
f 53/27/29 56/28/29 54/27/29
f 55/28/30 57/29/31 58/29/30
f 55/28/30 58/29/30 56/28/30
f 57/29/32 59/30/32 60/30/32
f 57/29/32 60/30/32 58/29/32
f 59/30/33 61/31/33 62/31/33
f 59/30/33 62/31/33 60/30/33
f 61/31/34 63/32/34 64/32/34
f 61/31/34 64/32/34 62/31/34
f 63/32/35 65/33/35 66/33/35
f 63/32/35 66/33/35 64/32/35
f 65/33/36 67/34/36 68/34/36
f 65/33/36 68/34/36 66/33/36
f 67/34/37 69/35/37 70/35/37
f 67/34/37 70/35/37 68/34/37
f 69/35/38 71/36/38 72/36/38
f 69/35/38 72/36/38 70/35/38
f 71/36/39 73/37/40 74/37/39
f 71/36/39 74/37/39 72/36/39
f 73/37/41 75/38/41 76/38/41
f 73/37/41 76/38/41 74/37/41
f 75/38/42 77/39/42 78/39/42
f 75/38/42 78/39/42 76/38/42
f 77/39/43 79/40/43 80/40/43
f 77/39/43 80/40/43 78/39/43
f 79/40/44 1/1/44 4/1/44
f 79/40/44 4/1/44 80/40/44
f 77/39/45 1/1/45 79/40/45
f 77/39/45 2/2/45 1/1/45
f 77/39/45 5/3/45 2/2/45
f 77/39/45 7/4/45 5/3/45
f 25/13/45 29/15/45 27/14/46
f 23/12/45 29/15/45 25/13/45
f 21/11/45 29/15/45 23/12/45
f 19/10/45 29/15/45 21/11/45
f 19/10/45 31/16/47 29/15/45
f 15/8/45 19/10/45 17/9/45
f 7/4/45 11/6/45 9/5/48
f 77/39/45 11/6/45 7/4/45
f 65/33/45 69/35/45 67/34/45
f 63/32/45 69/35/45 65/33/45
f 63/32/45 71/36/45 69/35/45
f 15/8/45 31/16/47 19/10/45
f 15/8/45 33/17/45 31/16/47
f 11/6/45 15/8/45 13/7/46
f 11/6/45 33/17/45 15/8/45
f 77/39/45 33/17/45 11/6/45
f 71/36/45 75/38/45 73/37/47
f 63/32/45 75/38/45 71/36/45
f 63/32/45 77/39/45 75/38/45
f 61/31/45 77/39/45 63/32/45
f 61/31/45 33/17/45 77/39/45
f 59/30/49 33/17/45 61/31/45
f 57/29/45 33/17/45 59/30/49
f 57/29/45 35/18/45 33/17/45
f 35/18/45 39/20/45 37/19/45
f 57/29/45 39/20/45 35/18/45
f 57/29/45 41/21/45 39/20/45
f 55/28/45 41/21/45 57/29/45
f 53/27/45 41/21/45 55/28/45
f 51/26/45 41/21/45 53/27/45
f 49/25/45 41/21/45 51/26/45
f 49/25/45 43/22/45 41/21/45
f 49/25/45 45/23/45 43/22/45
f 49/25/45 47/24/45 45/23/45
f 78/39/50 80/40/50 4/1/50
f 78/39/50 4/1/50 3/2/50
f 78/39/50 3/2/50 6/3/50
f 78/39/50 6/3/50 8/4/50
f 26/13/50 28/14/50 30/15/50
f 24/12/50 26/13/50 30/15/50
f 22/11/50 24/12/50 30/15/50
f 20/10/50 22/11/50 30/15/50
f 20/10/50 30/15/50 32/16/51
f 16/8/50 18/9/50 20/10/50
f 8/4/50 10/5/50 12/6/50
f 78/39/50 8/4/50 12/6/50
f 66/33/52 68/34/53 70/35/52
f 64/32/50 66/33/52 70/35/52
f 64/32/50 70/35/52 72/36/50
f 16/8/50 20/10/50 32/16/51
f 16/8/50 32/16/51 34/17/50
f 12/6/50 14/7/50 16/8/50
f 12/6/50 16/8/50 34/17/50
f 78/39/50 12/6/50 34/17/50
f 72/36/50 74/37/52 76/38/50
f 64/32/50 72/36/50 76/38/50
f 64/32/50 76/38/50 78/39/50
f 62/31/50 64/32/50 78/39/50
f 62/31/50 78/39/50 34/17/50
f 60/30/50 62/31/50 34/17/50
f 58/29/50 60/30/50 34/17/50
f 58/29/50 34/17/50 36/18/50
f 36/18/50 38/19/50 40/20/50
f 58/29/50 36/18/50 40/20/50
f 58/29/50 40/20/50 42/21/50
f 56/28/50 58/29/50 42/21/50
f 54/27/50 56/28/50 42/21/50
f 52/26/50 54/27/50 42/21/50
f 50/25/50 52/26/50 42/21/50
f 50/25/50 42/21/50 44/22/54
f 50/25/50 44/22/54 46/23/51
f 50/25/50 46/23/51 48/24/50
