# Blender 4.3.2
# www.blender.org
mtllib 上屋脊.mtl
o Obj3d66_17342430_20_550
v 1689.543091 961.841248 -27084.152344
v 1691.118042 965.345398 -27085.888672
v 1689.760620 966.936951 -27086.566406
v 1685.901367 966.928345 -27089.355469
v 1684.769165 965.155518 -27090.509766
v 1683.176270 961.653809 -27088.787109
v 1783.901733 979.230408 -27183.962891
v 1724.884277 971.243530 -27112.720703
v 1724.866333 965.820496 -27112.386719
v 1732.874023 949.145508 -27120.738281
v 1787.083740 970.910034 -27187.625000
v 1841.616699 986.331909 -27252.347656
v 1838.616699 993.495300 -27248.910156
v 1895.912720 996.351196 -27319.841797
v 1895.889404 1009.866028 -27319.779297
v 1771.408203 990.080139 -27188.488281
v 1715.128662 982.596497 -27119.833984
v 1825.938232 1003.642700 -27253.289062
v 1885.799316 1021.315125 -27327.115234
v 1705.346558 970.706543 -27126.980469
v 1763.767456 978.821655 -27198.628906
v 1766.935791 970.516113 -27202.296875
v 1713.229736 948.636536 -27135.080078
v 1705.315186 965.293701 -27126.662109
v 1818.457031 993.231323 -27263.599609
v 1821.463013 986.081299 -27267.033203
v 1875.709595 1009.811523 -27334.451172
v 1875.729248 996.302551 -27334.513672
v 1901.292236 1023.394653 -27326.027344
v 1891.198730 1034.848511 -27333.363281
v 1961.251221 1043.201050 -27395.960938
v 1951.150024 1054.679810 -27403.296875
v 2014.884155 1073.013794 -27459.955078
v 2004.782837 1084.492554 -27467.289062
v 2063.669189 1104.065063 -27517.775391
v 2053.568115 1115.543823 -27525.111328
v 2116.038574 1143.841309 -27581.337891
v 2105.937256 1155.320068 -27588.673828
v 2162.662598 1182.092896 -27638.392578
v 2152.561279 1193.571533 -27645.728516
v 2212.917236 1230.145508 -27697.673828
v 2202.815918 1241.624146 -27705.009766
v 2263.136230 1281.860107 -27756.906250
v 2253.035156 1293.338989 -27764.242188
v 2312.230225 1332.439209 -27816.810547
v 2301.643555 1343.917969 -27821.886719
v 1881.105957 1020.985352 -27340.699219
v 1941.048706 1043.201050 -27410.630859
v 1994.681763 1073.013794 -27474.625000
v 2043.466797 1104.065063 -27532.445312
v 2095.836182 1143.841309 -27596.009766
v 2142.460205 1182.092896 -27653.062500
v 2192.714600 1230.145386 -27712.345703
v 2242.934082 1281.860107 -27771.576172
v 2292.293945 1332.439209 -27828.916016
v 2320.700195 1297.214966 -27828.720703
v 2292.293945 1332.439209 -27828.917969
v 2300.857422 1297.215088 -27838.251953
v 1906.437134 999.540100 -27331.943359
v 1966.814209 1005.414307 -27402.353516
v 2020.447144 1035.453857 -27466.347656
v 2069.232178 1067.682129 -27524.167969
v 2121.601318 1105.974976 -27587.730469
v 2168.225586 1145.350708 -27644.785156
v 2162.662598 1182.092651 -27638.392578
v 2218.479980 1191.728149 -27704.066406
v 2268.699219 1245.143677 -27763.298828
v 1881.106079 1020.985352 -27340.699219
v 1886.246948 999.499695 -27346.615234
v 1946.611816 1005.414307 -27417.023438
v 2000.244751 1035.453857 -27481.017578
v 2043.466797 1104.064941 -27532.445312
v 2049.029785 1067.682129 -27538.837891
v 2101.398926 1105.974854 -27602.400391
v 2142.460205 1182.092651 -27653.062500
v 2148.023193 1145.350708 -27659.455078
v 2192.714844 1230.145386 -27712.345703
v 2198.277832 1191.728271 -27718.736328
v 2248.496826 1245.143677 -27777.968750
v 1698.660522 951.609741 -27116.453125
v 1700.049316 950.716553 -27114.111328
v 1702.518188 961.945923 -27116.646484
v 1711.891724 951.065002 -27105.490234
v 1716.522583 951.954041 -27103.414062
v 1714.327393 962.299011 -27108.050781
v 1710.621460 967.017944 -27111.105469
v 1709.709351 972.631226 -27113.822266
v 1706.627563 966.956299 -27114.017578
v 1691.314087 958.204895 -27102.818359
v 1692.606079 961.767822 -27104.146484
v 1692.334595 954.019043 -27104.380859
v 1704.176880 954.367615 -27095.759766
v 1704.415283 962.120911 -27095.550781
v 1703.140259 958.554749 -27094.210938
v 1700.709351 966.839844 -27098.605469
v 1696.715454 966.778198 -27101.515625
v 1688.537720 956.497803 -27098.664062
v 1699.121948 956.809448 -27090.958984
v 4182.204102 961.841248 -27084.169922
v 4181.986816 966.936829 -27086.583984
v 4180.629395 965.345398 -27085.906250
v 4185.846191 966.928345 -27089.373047
v 4186.978516 965.155396 -27090.527344
v 4188.571289 961.653748 -27088.806641
v 4087.845703 979.230408 -27183.980469
v 4146.880859 965.820496 -27112.406250
v 4146.863281 971.243530 -27112.738281
v 4138.873047 949.145508 -27120.757812
v 4084.663574 970.909912 -27187.642578
v 4033.130859 993.495239 -27248.927734
v 4030.130859 986.331909 -27252.365234
v 3975.858154 1009.866028 -27319.796875
v 3975.834717 996.351196 -27319.859375
v 4100.338867 990.080139 -27188.505859
v 4156.618652 982.596497 -27119.851562
v 4045.809082 1003.642700 -27253.306641
v 3985.947998 1021.315125 -27327.132812
v 4166.400879 970.706543 -27127.000000
v 4104.811523 970.516113 -27202.316406
v 4107.979980 978.821655 -27198.648438
v 4166.432617 965.293701 -27126.679688
v 4158.517578 948.636414 -27135.097656
v 4050.284180 986.081299 -27267.050781
v 4053.290283 993.231323 -27263.617188
v 3996.018066 996.302551 -27334.531250
v 3996.037598 1009.811523 -27334.468750
v 3980.548828 1034.848511 -27333.380859
v 3970.455078 1023.394653 -27326.044922
v 3920.597412 1054.679810 -27403.314453
v 3910.496338 1043.201050 -27395.978516
v 3866.964355 1084.492554 -27467.308594
v 3856.863281 1073.013794 -27459.972656
v 3818.179443 1115.543823 -27525.128906
v 3808.078125 1104.065063 -27517.792969
v 3765.810059 1155.320068 -27588.691406
v 3755.708984 1143.841309 -27581.357422
v 3719.186035 1193.571533 -27645.746094
v 3709.084961 1182.092896 -27638.412109
v 3668.931641 1241.624146 -27705.027344
v 3658.830078 1230.145386 -27697.693359
v 3618.712402 1293.338867 -27764.259766
v 3608.611328 1281.860107 -27756.925781
v 3570.104004 1343.917969 -27821.904297
v 3559.517090 1332.439087 -27816.828125
v 3990.641357 1020.985352 -27340.716797
v 3996.038086 1009.811523 -27334.468750
v 3930.698730 1043.201050 -27410.648438
v 3877.065674 1073.013794 -27474.642578
v 3828.280518 1104.065063 -27532.464844
v 3775.911133 1143.841309 -27596.027344
v 3729.287354 1182.092896 -27653.082031
v 3679.032715 1230.145264 -27712.363281
v 3628.813477 1281.860107 -27771.595703
v 3579.453369 1332.439087 -27828.935547
v 3551.046875 1297.214966 -27828.738281
v 3570.890137 1297.215088 -27838.269531
v 3965.310303 999.540100 -27331.960938
v 3975.858154 1009.865906 -27319.796875
v 3904.933105 1005.414246 -27402.371094
v 3851.300293 1035.453857 -27466.365234
v 3802.515381 1067.682129 -27524.185547
v 3750.145996 1105.974976 -27587.748047
v 3709.084961 1182.092651 -27638.412109
v 3703.521729 1145.350586 -27644.802734
v 3653.267090 1191.728149 -27704.085938
v 3603.048340 1245.143677 -27763.316406
v 3985.500244 999.499695 -27346.632812
v 3925.135498 1005.414307 -27417.041016
v 3871.502686 1035.453857 -27481.035156
v 3822.717529 1067.682007 -27538.857422
v 3828.280762 1104.064941 -27532.464844
v 3770.348633 1105.974854 -27602.419922
v 3723.724121 1145.350586 -27659.474609
v 3729.287354 1182.092651 -27653.082031
v 3673.469727 1191.728149 -27718.755859
v 3623.250488 1245.143677 -27777.988281
v 4173.086914 951.609741 -27116.470703
v 4171.698242 950.716431 -27114.128906
v 4169.229492 961.945923 -27116.664062
v 4159.855469 951.065002 -27105.507812
v 4155.224609 951.954041 -27103.433594
v 4157.419922 962.299011 -27108.070312
v 4161.125977 967.017944 -27111.123047
v 4162.038086 972.631226 -27113.841797
v 4165.120117 966.956238 -27114.035156
v 4180.433594 958.204834 -27102.837891
v 4179.141113 961.767822 -27104.164062
v 4179.412598 954.019043 -27104.400391
v 4167.570312 954.367615 -27095.779297
v 4167.332031 962.120911 -27095.570312
v 4168.607422 958.554749 -27094.228516
v 4171.038086 966.839844 -27098.623047
v 4175.031738 966.778198 -27101.535156
v 4183.209961 956.497803 -27098.681641
v 4172.625488 956.809448 -27090.976562
v 4182.204102 961.841187 -28566.722656
v 4180.629395 965.345337 -28564.986328
v 4181.986816 966.936768 -28564.308594
v 4185.846191 966.928284 -28561.519531
v 4186.978516 965.155334 -28560.365234
v 4188.571289 961.653687 -28562.085938
v 4087.845703 979.230347 -28466.912109
v 4146.863281 971.243469 -28538.154297
v 4146.880859 965.820435 -28538.486328
v 4138.873047 949.145447 -28530.136719
v 4084.663574 970.909851 -28463.250000
v 4030.130859 986.331848 -28398.527344
v 4033.130859 993.495178 -28401.964844
v 3975.834717 996.351135 -28331.033203
v 3975.858154 1009.865967 -28331.095703
v 4100.338867 990.080078 -28462.386719
v 4156.618652 982.596436 -28531.041016
v 4045.809082 1003.642639 -28397.585938
v 3985.947998 1021.315063 -28323.759766
v 4166.400879 970.706482 -28523.892578
v 4107.979980 978.821594 -28452.246094
v 4104.811523 970.516052 -28448.578125
v 4158.517578 948.636353 -28515.794922
v 4166.432617 965.293640 -28524.212891
v 4053.290283 993.231262 -28387.275391
v 4050.284180 986.081238 -28383.841797
v 3996.037598 1009.811462 -28316.423828
v 3996.018066 996.302490 -28316.361328
v 3970.455078 1023.394592 -28324.847656
v 3980.548828 1034.848389 -28317.511719
v 3910.496338 1043.201050 -28254.914062
v 3920.597412 1054.679810 -28247.578125
v 3856.863281 1073.013794 -28190.919922
v 3866.964355 1084.492554 -28183.583984
v 3808.078125 1104.065063 -28133.099609
v 3818.179443 1115.543823 -28125.763672
v 3755.708984 1143.841309 -28069.535156
v 3765.810059 1155.320068 -28062.201172
v 3709.084961 1182.092896 -28012.480469
v 3719.186035 1193.571533 -28005.146484
v 3658.830078 1230.145386 -27953.199219
v 3668.931641 1241.624146 -27945.865234
v 3608.611328 1281.860107 -27893.966797
v 3618.712402 1293.338867 -27886.632812
v 3559.517090 1332.439087 -27834.064453
v 3570.104004 1343.917969 -27828.988281
v 3990.641357 1020.985291 -28310.175781
v 3996.038086 1009.811462 -28316.423828
v 3930.698730 1043.201050 -28240.244141
v 3877.065674 1073.013794 -28176.250000
v 3828.280518 1104.065063 -28118.429688
v 3775.911133 1143.841309 -28054.865234
v 3729.287354 1182.092896 -27997.810547
v 3679.032715 1230.145264 -27938.529297
v 3628.813477 1281.860107 -27879.296875
v 3579.453369 1332.439087 -27821.957031
v 3551.046875 1297.214966 -27822.154297
v 3570.890137 1297.215088 -27812.623047
v 3965.310303 999.540039 -28318.931641
v 3975.858154 1009.865845 -28331.095703
v 3904.933105 1005.414185 -28248.521484
v 3851.300293 1035.453857 -28184.527344
v 3802.515381 1067.682129 -28126.707031
v 3750.145996 1105.974976 -28063.144531
v 3703.521729 1145.350586 -28006.089844
v 3709.084961 1182.092651 -28012.480469
v 3653.267090 1191.728149 -27946.806641
v 3603.048340 1245.143677 -27887.576172
v 3985.500244 999.499634 -28304.259766
v 3925.135498 1005.414246 -28233.851562
v 3871.502686 1035.453857 -28169.857422
v 3828.280762 1104.064941 -28118.429688
v 3822.717529 1067.682007 -28112.037109
v 3770.348633 1105.974854 -28048.472656
v 3729.287354 1182.092651 -27997.810547
v 3723.724121 1145.350586 -27991.419922
v 3673.469727 1191.728149 -27932.136719
v 3623.250488 1245.143677 -27872.906250
v 4173.086914 951.609680 -28534.421875
v 4171.698242 950.716370 -28536.763672
v 4169.229492 961.945862 -28534.228516
v 4159.855469 951.064941 -28545.384766
v 4155.224609 951.953979 -28547.460938
v 4157.419922 962.298950 -28542.822266
v 4161.125977 967.017883 -28539.769531
v 4162.038086 972.631165 -28537.050781
v 4165.120117 966.956177 -28536.857422
v 4180.433594 958.204773 -28548.056641
v 4179.141113 961.767761 -28546.728516
v 4179.412598 954.018982 -28546.494141
v 4167.570312 954.367554 -28555.115234
v 4167.332031 962.120850 -28555.324219
v 4168.607422 958.554688 -28556.664062
v 4171.038086 966.839783 -28552.269531
v 4175.031738 966.778137 -28549.359375
v 4183.209961 956.497742 -28552.210938
v 4172.625488 956.809387 -28559.916016
v 1689.543579 961.841187 -28566.722656
v 1689.761108 966.936768 -28564.308594
v 1691.118530 965.345337 -28564.986328
v 1685.901855 966.928284 -28561.519531
v 1684.769653 965.155334 -28560.365234
v 1683.176758 961.653687 -28562.085938
v 1783.902222 979.230347 -28466.912109
v 1724.866821 965.820435 -28538.486328
v 1724.884766 971.243469 -28538.154297
v 1732.874512 949.145447 -28530.136719
v 1787.084229 970.909851 -28463.250000
v 1838.617188 993.495178 -28401.964844
v 1841.617188 986.331848 -28398.527344
v 1895.889893 1009.865967 -28331.095703
v 1895.913208 996.351135 -28331.033203
v 1771.408691 990.080078 -28462.386719
v 1715.129150 982.596436 -28531.041016
v 1825.938721 1003.642639 -28397.585938
v 1885.799805 1021.315063 -28323.759766
v 1705.347046 970.706482 -28523.892578
v 1766.936279 970.516052 -28448.578125
v 1763.767944 978.821594 -28452.246094
v 1705.315674 965.293640 -28524.212891
v 1713.230225 948.636353 -28515.794922
v 1821.463501 986.081238 -28383.841797
v 1818.457520 993.231262 -28387.275391
v 1875.729736 996.302490 -28316.361328
v 1875.710205 1009.811462 -28316.423828
v 1891.199219 1034.848389 -28317.511719
v 1901.292725 1023.394592 -28324.847656
v 1951.150635 1054.679810 -28247.578125
v 1961.251709 1043.201050 -28254.914062
v 2004.783447 1084.492554 -28183.583984
v 2014.884644 1073.013794 -28190.919922
v 2053.568604 1115.543823 -28125.763672
v 2063.669922 1104.065063 -28133.099609
v 2105.937744 1155.320068 -28062.201172
v 2116.039062 1143.841309 -28069.535156
v 2152.561768 1193.571533 -28005.146484
v 2162.663086 1182.092896 -28012.480469
v 2202.816406 1241.624146 -27945.865234
v 2212.917725 1230.145386 -27953.199219
v 2253.035645 1293.338867 -27886.632812
v 2263.136719 1281.860107 -27893.966797
v 2301.644043 1343.917969 -27828.988281
v 2312.230713 1332.439087 -27834.064453
v 1881.106445 1020.985291 -28310.175781
v 1875.710083 1009.811462 -28316.423828
v 1941.049194 1043.201050 -28240.244141
v 1994.682251 1073.013794 -28176.250000
v 2043.467407 1104.065063 -28118.429688
v 2095.836670 1143.841309 -28054.865234
v 2142.460693 1182.092896 -27997.810547
v 2192.715088 1230.145264 -27938.529297
v 2242.934570 1281.860107 -27879.296875
v 2292.294434 1332.439087 -27821.957031
v 2320.700684 1297.214966 -27822.154297
v 2292.294678 1332.439087 -27821.957031
v 2300.857910 1297.215088 -27812.623047
v 1906.437622 999.540039 -28318.931641
v 1895.889893 1009.865845 -28331.095703
v 1966.814819 1005.414185 -28248.521484
v 2020.447632 1035.453857 -28184.527344
v 2063.669678 1104.065063 -28133.099609
v 2069.232666 1067.682129 -28126.707031
v 2121.601807 1105.974976 -28063.144531
v 2162.663086 1182.092651 -28012.480469
v 2168.226074 1145.350586 -28006.089844
v 2218.480713 1191.728149 -27946.806641
v 2268.699707 1245.143677 -27887.576172
v 1886.247559 999.499634 -28304.259766
v 1881.106567 1020.985291 -28310.175781
v 1946.612305 1005.414246 -28233.851562
v 2000.245239 1035.453857 -28169.857422
v 2049.030273 1067.682007 -28112.037109
v 2043.467285 1104.064941 -28118.429688
v 2101.399414 1105.974854 -28048.472656
v 2148.023682 1145.350586 -27991.419922
v 2142.460693 1182.092651 -27997.810547
v 2198.278320 1191.728149 -27932.136719
v 2248.497314 1245.143677 -27872.906250
v 1698.661011 951.609680 -28534.421875
v 1700.049805 950.716370 -28536.763672
v 1702.518677 961.945862 -28534.228516
v 1711.892212 951.064941 -28545.384766
v 1716.523071 951.953979 -28547.460938
v 1714.327881 962.298950 -28542.822266
v 1710.621948 967.017883 -28539.769531
v 1709.709839 972.631165 -28537.050781
v 1706.628052 966.956177 -28536.857422
v 1691.314575 958.204773 -28548.056641
v 1692.606689 961.767761 -28546.728516
v 1692.335083 954.018982 -28546.494141
v 1704.177368 954.367554 -28555.115234
v 1704.415771 962.120850 -28555.324219
v 1703.140747 958.554688 -28556.664062
v 1700.709839 966.839783 -28552.269531
v 1696.715942 966.778137 -28549.359375
v 1688.538208 956.497742 -28552.210938
v 1699.122437 956.809387 -28559.916016
v 3481.228027 1318.921875 -27822.144531
v 3481.228027 1327.089233 -27822.800781
v 3557.728516 1327.089233 -27822.800781
v 2313.972900 1354.678833 -27825.013672
v 2388.839844 1362.934814 -27825.675781
v 2388.839844 1354.678833 -27825.013672
v 3481.227539 1364.744873 -27832.806641
v 3481.227539 1356.003540 -27833.437500
v 3558.089355 1356.003540 -27833.437500
v 2313.612061 1324.681641 -27835.701172
v 2388.839844 1315.842041 -27836.337891
v 2388.839844 1324.681641 -27835.701172
v 2298.121094 1308.728271 -27816.015625
v 2298.121338 1373.468384 -27838.279297
v 2298.121338 1308.728271 -27842.609375
v 2298.121338 1373.468384 -27820.345703
v 3573.580078 1308.728271 -27816.015625
v 3573.580078 1308.728149 -27842.609375
v 3573.580078 1373.468140 -27838.279297
v 3573.580078 1373.468262 -27820.345703
v 3481.227539 1373.468262 -27822.011719
v 3481.228027 1373.468262 -27820.345703
v 3573.580078 1391.278809 -27820.345703
v 2298.121338 1391.278931 -27838.279297
v 2388.839844 1373.468384 -27836.642578
v 2388.839844 1373.468384 -27838.279297
v 2388.839844 1318.833252 -27822.138672
v 2313.972900 1327.089233 -27822.800781
v 2388.839844 1327.089233 -27822.800781
v 3076.631348 1340.883911 -27823.906250
v 3481.228027 1354.678711 -27825.013672
v 3481.228027 1362.845947 -27825.669922
v 3557.728516 1354.678711 -27825.013672
v 2388.839844 1364.843628 -27832.800781
v 2313.611816 1356.003906 -27833.437500
v 2388.839844 1356.003906 -27833.437500
v 3076.631348 1340.342651 -27834.568359
v 3481.228027 1324.681519 -27835.699219
v 3481.228027 1315.940308 -27836.332031
v 3558.089600 1324.681519 -27835.699219
v 2388.839844 1373.468384 -27821.982422
v 2298.121338 1391.278931 -27820.345703
v 2388.839844 1373.468384 -27820.345703
v 3076.630615 1373.468262 -27829.312500
v 3481.227539 1373.468262 -27838.279297
v 3481.228027 1373.468262 -27836.613281
v 3573.580078 1391.278809 -27838.279297
v 3481.228027 1373.468262 -27822.011719
v 3481.227539 1373.468140 -27836.613281
v 3076.631348 1354.678711 -27825.013672
v 3076.631348 1324.681519 -27835.699219
v 3076.630859 1373.468140 -27838.279297
v 3076.631348 1327.089233 -27822.800781
v 3076.631348 1356.003540 -27833.437500
v 3076.631104 1373.468262 -27820.345703
v 3481.227539 1373.468140 -27838.279297
v 3481.228027 1308.728149 -27816.015625
v 3557.728516 1324.544556 -27817.074219
v 3481.228027 1324.544556 -27817.074219
v 2313.972900 1357.652100 -27819.287109
v 2388.839844 1357.652100 -27819.287109
v 2313.972900 1324.544556 -27817.074219
v 3557.728516 1357.651978 -27819.287109
v 2388.839844 1308.728271 -27816.015625
v 2388.839844 1324.544556 -27817.074219
v 3481.228027 1357.651978 -27819.287109
v 3076.631348 1373.468262 -27820.345703
v 3076.631348 1357.651978 -27819.287109
v 3076.631348 1308.728149 -27816.015625
v 3076.631348 1324.544556 -27817.074219
v 3558.089355 1358.051880 -27839.908203
v 3481.227539 1358.051880 -27839.908203
v 2388.839844 1308.728271 -27842.609375
v 2313.612061 1324.224121 -27842.169922
v 2388.839844 1324.224121 -27842.169922
v 2313.611816 1358.052124 -27839.908203
v 3558.089600 1324.223877 -27842.169922
v 2388.839844 1358.052124 -27839.908203
v 3481.228027 1308.728149 -27842.609375
v 3481.228027 1324.223877 -27842.169922
v 3076.631348 1308.728149 -27842.609375
v 3076.631348 1324.223877 -27842.169922
v 3076.631348 1373.468140 -27838.279297
v 3076.631348 1358.051880 -27839.908203
vn 0.0283 0.3331 0.9425
vn 0.4228 0.4385 0.7931
vn -0.0453 0.8047 0.5919
vn -0.6357 0.7437 0.2071
vn -0.8752 0.4763 -0.0851
vn -0.8838 0.4542 0.1126
vn 0.6708 0.4019 0.6233
vn 0.4514 0.4024 0.7964
vn 0.6060 0.0820 0.7912
vn 0.7552 0.0334 0.6546
vn 0.7679 0.0119 0.6404
vn 0.7711 0.0162 0.6365
vn 0.6521 0.4140 0.6351
vn 0.7793 -0.0016 0.6267
vn 0.6517 0.4301 0.6247
vn -0.0843 0.9926 0.0876
vn -0.2612 0.9105 0.3207
vn -0.1089 0.9852 0.1321
vn -0.0924 0.9834 0.1560
vn -0.8663 0.4024 -0.2959
vn -0.7432 0.3793 -0.5512
vn -0.7680 -0.0125 -0.6403
vn -0.7785 -0.0539 -0.6253
vn -0.7956 -0.0413 -0.6044
vn -0.7489 0.3988 -0.5293
vn -0.7723 -0.0196 -0.6349
vn -0.7454 0.4439 -0.4973
vn -0.7780 0.0004 -0.6283
vn 0.0492 -0.9982 -0.0350
vn 0.1380 -0.9767 -0.1641
vn 0.1370 -0.9774 -0.1612
vn 0.0603 -0.9971 -0.0472
vn 0.0953 -0.9888 -0.1151
vn 0.0945 -0.9892 -0.1120
vn 0.0705 -0.9931 -0.0937
vn 0.0714 -0.9932 -0.0925
vn -0.1230 0.4561 0.8814
vn 0.1020 0.5986 0.7945
vn -0.3485 0.8589 0.3754
vn -0.5434 0.5366 0.6456
vn 0.3840 0.7129 0.5868
vn -0.1709 0.9593 0.2247
vn 0.3369 0.6993 0.6305
vn -0.2215 0.9323 0.2859
vn 0.3088 0.6901 0.6545
vn -0.2496 0.9107 0.3290
vn 0.2855 0.6817 0.6736
vn -0.2726 0.8927 0.3589
vn 0.2548 0.6699 0.6973
vn -0.3070 0.8654 0.3959
vn 0.2141 0.6528 0.7267
vn -0.3316 0.8391 0.4313
vn 0.2056 0.6446 0.7364
vn -0.3390 0.8321 0.4389
vn 0.2923 0.5991 0.7454
vn -0.2592 0.8304 0.4932
vn -0.8015 0.5966 0.0404
vn -0.8021 0.5354 0.2643
vn -0.6327 0.7238 -0.2753
vn -0.6660 0.7172 -0.2051
vn -0.6849 0.7093 -0.1668
vn -0.7028 0.6999 -0.1272
vn -0.7165 0.6911 -0.0947
vn -0.7320 0.6791 -0.0547
vn -0.7379 0.6738 -0.0385
vn -0.7530 0.6552 -0.0610
vn 0.4794 0.3154 -0.8190
vn 0.6983 0.3742 -0.6102
vn 0.4451 0.3252 -0.8344
vn 0.3582 0.2838 -0.8895
vn 0.4792 0.3154 -0.8191
vn 0.4450 0.3252 -0.8344
vn 0.4095 0.3254 -0.8523
vn 0.7553 -0.0004 0.6554
vn 0.7570 0.0011 0.6534
vn 0.7577 0.0012 0.6527
vn 0.7581 -0.0017 0.6521
vn 0.7623 0.0028 0.6472
vn 0.7624 0.0028 0.6471
vn 0.7646 0.0036 0.6445
vn 0.7644 0.0035 0.6447
vn 0.7663 0.0043 0.6424
vn 0.7672 0.0046 0.6414
vn 0.7710 0.0058 0.6368
vn 0.7713 0.0059 0.6364
vn 0.7711 0.0058 0.6367
vn 0.7679 0.0048 0.6405
vn 0.7661 0.0041 0.6427
vn 0.7617 0.0025 0.6479
vn 0.7674 0.0013 0.6412
vn 0.7674 0.0046 0.6412
vn 0.7895 -0.0176 0.6135
vn 0.7853 -0.0121 0.6190
vn -0.7558 0.0003 -0.6548
vn -0.7579 -0.0016 -0.6524
vn -0.7576 -0.0010 -0.6527
vn -0.7549 0.0020 -0.6558
vn -0.7624 -0.0028 -0.6471
vn -0.7623 -0.0028 -0.6472
vn -0.7644 -0.0035 -0.6447
vn -0.7646 -0.0035 -0.6445
vn -0.7672 -0.0046 -0.6414
vn -0.7664 -0.0043 -0.6424
vn -0.7713 -0.0059 -0.6364
vn -0.7710 -0.0058 -0.6368
vn -0.7661 -0.0041 -0.6427
vn -0.7680 -0.0048 -0.6405
vn -0.7617 -0.0025 -0.6479
vn -0.7574 -0.0023 -0.6530
vn -0.7591 -0.0016 -0.6510
vn -0.7538 -0.0092 -0.6570
vn -0.7541 -0.0072 -0.6567
vn 0.1166 -0.9806 -0.1575
vn 0.0797 -0.9910 -0.1072
vn 0.0756 -0.9920 -0.1012
vn 0.1166 -0.9807 -0.1571
vn 0.1158 -0.9804 -0.1595
vn 0.1235 -0.9777 -0.1699
vn 0.2145 -0.9310 -0.2954
vn 0.2158 -0.9301 -0.2972
vn 0.2391 -0.9134 -0.3293
vn 0.2398 -0.9129 -0.3303
vn 0.2623 -0.8948 -0.3612
vn 0.2633 -0.8940 -0.3626
vn 0.2891 -0.8705 -0.3982
vn 0.2900 -0.8697 -0.3994
vn 0.3172 -0.8418 -0.4368
vn 0.3185 -0.8404 -0.4386
vn 0.3183 -0.8344 -0.4499
vn 0.3220 -0.8365 -0.4434
vn 0.2425 -0.8284 -0.5049
vn 0.2549 -0.8327 -0.4917
vn -0.8829 0.4202 0.2095
vn -0.9390 0.2665 -0.2174
vn -0.8909 0.3837 -0.2430
vn 0.2159 -0.9397 -0.2653
vn 0.2251 -0.9357 -0.2716
vn 0.0585 -0.9969 -0.0518
vn -0.0008 -0.9995 0.0315
vn 0.3460 0.4544 0.8209
vn 0.3069 0.1445 0.9407
vn 0.0932 0.2760 0.9566
vn 0.0048 0.7283 0.6852
vn -0.5317 0.5542 0.6404
vn -0.6464 0.7191 0.2551
vn -0.8218 0.0606 -0.5666
vn -0.7348 0.3848 -0.5586
vn -0.7949 0.0289 -0.6061
vn -0.1560 -0.9549 0.2528
vn -0.1574 -0.9541 0.2548
vn 0.6844 0.3585 0.6349
vn 0.6838 -0.0117 0.7296
vn 0.7457 -0.0608 0.6634
vn 0.2884 0.9247 0.2486
vn -0.3017 0.9202 -0.2493
vn -0.8447 0.0896 -0.5277
vn -0.2284 -0.9084 0.3503
vn -0.2037 -0.9262 0.3172
vn -0.2016 -0.9276 0.3144
vn 0.6170 0.0501 0.7853
vn -1.0000 -0.0000 -0.0000
vn -0.0000 0.9975 -0.0705
vn -0.0000 0.9975 -0.0706
vn -0.0286 0.3331 0.9425
vn 0.0448 0.8047 0.5920
vn -0.4232 0.4385 0.7928
vn 0.6356 0.7437 0.2072
vn 0.8752 0.4762 -0.0851
vn 0.8839 0.4540 0.1124
vn -0.6708 0.4019 0.6233
vn -0.6060 0.0819 0.7912
vn -0.4513 0.4023 0.7965
vn -0.7552 0.0334 0.6546
vn -0.7680 0.0119 0.6404
vn -0.6521 0.4140 0.6351
vn -0.7711 0.0162 0.6365
vn -0.6517 0.4301 0.6247
vn -0.7793 -0.0016 0.6267
vn 0.0842 0.9926 0.0876
vn 0.2613 0.9104 0.3207
vn 0.1089 0.9852 0.1321
vn 0.0925 0.9834 0.1561
vn 0.8664 0.4022 -0.2959
vn 0.7680 -0.0125 -0.6403
vn 0.7432 0.3794 -0.5512
vn 0.7957 -0.0414 -0.6042
vn 0.7785 -0.0539 -0.6253
vn 0.7723 -0.0197 -0.6350
vn 0.7489 0.3987 -0.5293
vn 0.7780 0.0004 -0.6283
vn 0.7454 0.4439 -0.4972
vn -0.0492 -0.9982 -0.0350
vn -0.1370 -0.9774 -0.1612
vn -0.1380 -0.9767 -0.1641
vn -0.0603 -0.9971 -0.0472
vn -0.0946 -0.9892 -0.1120
vn -0.0953 -0.9888 -0.1151
vn -0.0714 -0.9932 -0.0925
vn -0.0705 -0.9931 -0.0937
vn 0.0923 0.9834 0.1561
vn 0.1232 0.4561 0.8813
vn 0.3485 0.8588 0.3754
vn -0.1017 0.5986 0.7946
vn 0.1228 0.4561 0.8814
vn 0.5434 0.5366 0.6456
vn 0.1708 0.9594 0.2247
vn -0.3841 0.7129 0.5867
vn 0.2216 0.9323 0.2859
vn -0.3368 0.6993 0.6305
vn 0.2496 0.9107 0.3290
vn -0.3089 0.6901 0.6545
vn 0.2726 0.8927 0.3589
vn -0.2855 0.6817 0.6736
vn 0.3071 0.8654 0.3959
vn -0.2548 0.6699 0.6974
vn 0.3070 0.8654 0.3959
vn 0.3316 0.8391 0.4313
vn -0.2142 0.6527 0.7267
vn 0.3390 0.8322 0.4389
vn -0.2056 0.6445 0.7364
vn 0.2593 0.8304 0.4932
vn -0.2923 0.5991 0.7454
vn 0.8016 0.5965 0.0404
vn 0.8024 0.5352 0.2642
vn 0.6327 0.7238 -0.2753
vn 0.6661 0.7171 -0.2051
vn 0.6849 0.7093 -0.1668
vn 0.7029 0.6998 -0.1272
vn 0.7165 0.6911 -0.0947
vn 0.7320 0.6791 -0.0547
vn 0.7378 0.6739 -0.0385
vn 0.7531 0.6551 -0.0610
vn -0.4793 0.3155 -0.8190
vn -0.4449 0.3253 -0.8344
vn -0.6982 0.3743 -0.6103
vn -0.3581 0.2838 -0.8895
vn -0.4093 0.3254 -0.8524
vn -0.7553 -0.0004 0.6554
vn -0.7576 0.0015 0.6528
vn -0.7570 0.0011 0.6535
vn -0.7577 0.0012 0.6526
vn -0.7554 -0.0004 0.6553
vn -0.7586 -0.0017 0.6516
vn -0.7624 0.0028 0.6471
vn -0.7623 0.0028 0.6472
vn -0.7644 0.0035 0.6448
vn -0.7646 0.0036 0.6445
vn -0.7672 0.0046 0.6414
vn -0.7664 0.0043 0.6424
vn -0.7714 0.0059 0.6364
vn -0.7710 0.0058 0.6368
vn -0.7660 0.0042 0.6428
vn -0.7680 0.0048 0.6404
vn -0.7680 0.0048 0.6405
vn -0.7617 0.0025 0.6479
vn -0.7618 0.0025 0.6478
vn -0.7617 0.0027 0.6479
vn -0.7674 0.0046 0.6412
vn -0.7673 0.0014 0.6412
vn -0.7853 -0.0121 0.6191
vn -0.7895 -0.0176 0.6135
vn 0.7557 0.0003 -0.6550
vn 0.7575 -0.0011 -0.6528
vn 0.7579 -0.0016 -0.6524
vn 0.7549 0.0019 -0.6558
vn 0.7623 -0.0028 -0.6472
vn 0.7624 -0.0028 -0.6471
vn 0.7646 -0.0036 -0.6445
vn 0.7645 -0.0035 -0.6446
vn 0.7643 -0.0035 -0.6448
vn 0.7669 -0.0045 -0.6418
vn 0.7672 -0.0046 -0.6414
vn 0.7664 -0.0043 -0.6424
vn 0.7710 -0.0058 -0.6368
vn 0.7713 -0.0059 -0.6364
vn 0.7680 -0.0048 -0.6404
vn 0.7661 -0.0042 -0.6427
vn 0.7617 -0.0025 -0.6479
vn 0.7590 -0.0016 -0.6510
vn 0.7574 -0.0023 -0.6530
vn 0.7541 -0.0071 -0.6568
vn 0.7538 -0.0092 -0.6570
vn -0.1166 -0.9806 -0.1575
vn -0.0756 -0.9920 -0.1012
vn -0.0797 -0.9910 -0.1072
vn -0.1166 -0.9807 -0.1571
vn -0.1235 -0.9777 -0.1699
vn -0.1158 -0.9804 -0.1595
vn -0.2158 -0.9301 -0.2972
vn -0.2145 -0.9310 -0.2954
vn -0.2399 -0.9129 -0.3302
vn -0.2392 -0.9134 -0.3293
vn -0.2633 -0.8940 -0.3626
vn -0.2623 -0.8948 -0.3612
vn -0.2901 -0.8697 -0.3994
vn -0.2892 -0.8705 -0.3982
vn -0.3185 -0.8404 -0.4386
vn -0.3172 -0.8418 -0.4368
vn -0.3220 -0.8365 -0.4434
vn -0.3184 -0.8344 -0.4499
vn -0.2549 -0.8326 -0.4917
vn -0.2425 -0.8284 -0.5049
vn 0.8824 0.4209 0.2102
vn 0.9389 0.2668 -0.2173
vn 0.8909 0.3837 -0.2430
vn -0.2157 -0.9398 -0.2651
vn -0.0586 -0.9969 -0.0518
vn -0.2252 -0.9357 -0.2715
vn 0.0007 -0.9995 0.0315
vn -0.3461 0.4543 0.8209
vn -0.0934 0.2760 0.9566
vn -0.3071 0.1447 0.9406
vn -0.0049 0.7284 0.6852
vn 0.5317 0.5544 0.6403
vn 0.6466 0.7190 0.2547
vn 0.8220 0.0608 -0.5662
vn 0.7348 0.3849 -0.5586
vn 0.7949 0.0289 -0.6060
vn 0.1558 -0.9549 0.2528
vn 0.1574 -0.9541 0.2548
vn -0.6846 0.3585 0.6347
vn -0.7459 -0.0609 0.6633
vn -0.6841 -0.0117 0.7293
vn -0.2885 0.9246 0.2486
vn 0.3017 0.9202 -0.2494
vn 0.8448 0.0896 -0.5276
vn 0.2283 -0.9084 0.3503
vn 0.2037 -0.9262 0.3172
vn 0.2284 -0.9084 0.3503
vn 0.2014 -0.9277 0.3143
vn -0.6168 0.0501 0.7855
vn -0.0284 0.3331 -0.9425
vn -0.4232 0.4385 -0.7928
vn 0.0453 0.8048 -0.5918
vn 0.6357 0.7436 -0.2070
vn 0.8751 0.4763 0.0851
vn 0.8839 0.4540 -0.1125
vn -0.6708 0.4019 -0.6233
vn -0.4514 0.4023 -0.7965
vn -0.6060 0.0819 -0.7912
vn -0.7552 0.0334 -0.6547
vn -0.7679 0.0119 -0.6404
vn -0.7710 0.0164 -0.6366
vn -0.6521 0.4140 -0.6351
vn -0.7711 0.0162 -0.6365
vn -0.7793 -0.0016 -0.6266
vn -0.6517 0.4300 -0.6248
vn -0.6517 0.4301 -0.6247
vn 0.0842 0.9926 -0.0876
vn 0.2612 0.9105 -0.3207
vn 0.1089 0.9852 -0.1321
vn 0.0924 0.9834 -0.1560
vn 0.8663 0.4023 0.2960
vn 0.7432 0.3793 0.5512
vn 0.7680 -0.0125 0.6403
vn 0.7785 -0.0539 0.6253
vn 0.7955 -0.0414 0.6046
vn 0.7489 0.3987 0.5293
vn 0.7723 -0.0197 0.6349
vn 0.7454 0.4439 0.4972
vn 0.7780 0.0005 0.6283
vn -0.0492 -0.9982 0.0350
vn -0.1380 -0.9767 0.1641
vn -0.1370 -0.9774 0.1612
vn -0.0603 -0.9971 0.0472
vn -0.0953 -0.9888 0.1151
vn -0.0945 -0.9892 0.1120
vn -0.0705 -0.9931 0.0937
vn -0.0714 -0.9932 0.0925
vn 0.1230 0.4561 -0.8814
vn -0.1018 0.5986 -0.7946
vn 0.3484 0.8589 -0.3754
vn 0.5433 0.5366 -0.6457
vn -0.1020 0.5986 -0.7945
vn -0.3840 0.7129 -0.5868
vn 0.1708 0.9593 -0.2247
vn -0.3368 0.6993 -0.6305
vn 0.2216 0.9323 -0.2859
vn -0.3089 0.6901 -0.6545
vn 0.2496 0.9107 -0.3290
vn -0.2856 0.6817 -0.6736
vn 0.2726 0.8927 -0.3589
vn -0.2549 0.6698 -0.6974
vn 0.3070 0.8654 -0.3960
vn -0.2141 0.6528 -0.7267
vn 0.3316 0.8391 -0.4313
vn -0.2058 0.6445 -0.7364
vn 0.3389 0.8322 -0.4389
vn -0.2921 0.5992 -0.7454
vn 0.2594 0.8303 -0.4932
vn 0.8016 0.5965 -0.0403
vn 0.8016 0.5965 -0.0405
vn 0.8023 0.5353 -0.2642
vn 0.5433 0.5366 -0.6456
vn 0.6327 0.7238 0.2753
vn 0.6660 0.7172 0.2051
vn 0.6849 0.7093 0.1668
vn 0.7029 0.6998 0.1272
vn 0.7166 0.6911 0.0947
vn 0.7320 0.6791 0.0547
vn 0.7378 0.6739 0.0385
vn 0.7530 0.6551 0.0610
vn -0.4794 0.3154 0.8190
vn -0.6983 0.3742 0.6102
vn -0.4449 0.3252 0.8344
vn -0.3581 0.2838 0.8895
vn -0.4094 0.3254 0.8524
vn -0.7554 -0.0004 -0.6553
vn -0.7570 0.0011 -0.6534
vn -0.7576 0.0015 -0.6527
vn -0.7577 0.0012 -0.6526
vn -0.7583 -0.0017 -0.6519
vn -0.7623 0.0028 -0.6472
vn -0.7624 0.0028 -0.6471
vn -0.7646 0.0036 -0.6445
vn -0.7644 0.0035 -0.6447
vn -0.7663 0.0043 -0.6424
vn -0.7671 0.0046 -0.6415
vn -0.7709 0.0058 -0.6369
vn -0.7713 0.0059 -0.6364
vn -0.7710 0.0058 -0.6368
vn -0.7679 0.0049 -0.6405
vn -0.7661 0.0042 -0.6428
vn -0.7617 0.0025 -0.6479
vn -0.7673 0.0014 -0.6413
vn -0.7674 0.0046 -0.6412
vn -0.7895 -0.0176 -0.6135
vn -0.7853 -0.0121 -0.6191
vn 0.7557 0.0002 0.6549
vn 0.7579 -0.0016 0.6524
vn 0.7575 -0.0010 0.6528
vn 0.7549 0.0019 0.6558
vn 0.7557 0.0004 0.6549
vn 0.7624 -0.0028 0.6471
vn 0.7623 -0.0028 0.6472
vn 0.7644 -0.0035 0.6448
vn 0.7646 -0.0036 0.6445
vn 0.7672 -0.0046 0.6414
vn 0.7664 -0.0043 0.6424
vn 0.7713 -0.0059 0.6364
vn 0.7710 -0.0058 0.6368
vn 0.7661 -0.0042 0.6427
vn 0.7680 -0.0049 0.6404
vn 0.7618 -0.0025 0.6478
vn 0.7615 -0.0024 0.6481
vn 0.7616 -0.0025 0.6480
vn 0.7573 -0.0023 0.6530
vn 0.7590 -0.0017 0.6510
vn 0.7617 -0.0025 0.6480
vn 0.7538 -0.0092 0.6570
vn 0.7541 -0.0071 0.6568
vn -0.1166 -0.9806 0.1575
vn -0.0797 -0.9910 0.1072
vn -0.0756 -0.9920 0.1012
vn -0.1165 -0.9807 0.1571
vn -0.1158 -0.9804 0.1595
vn -0.1235 -0.9777 0.1699
vn -0.2145 -0.9310 0.2954
vn -0.2158 -0.9301 0.2972
vn -0.2391 -0.9134 0.3293
vn -0.2398 -0.9129 0.3303
vn -0.2623 -0.8948 0.3612
vn -0.2633 -0.8940 0.3626
vn -0.2892 -0.8705 0.3982
vn -0.2900 -0.8697 0.3994
vn -0.3173 -0.8417 0.4368
vn -0.3185 -0.8403 0.4386
vn -0.3183 -0.8344 0.4499
vn -0.3220 -0.8365 0.4435
vn -0.2425 -0.8284 0.5049
vn -0.2549 -0.8327 0.4917
vn 0.8827 0.4204 -0.2098
vn 0.9390 0.2666 0.2174
vn 0.8909 0.3837 0.2430
vn -0.2158 -0.9397 0.2654
vn -0.2251 -0.9357 0.2715
vn -0.0585 -0.9969 0.0518
vn 0.0008 -0.9995 -0.0315
vn -0.3461 0.4543 -0.8208
vn -0.3070 0.1447 -0.9406
vn -0.0934 0.2761 -0.9566
vn -0.0048 0.7284 -0.6852
vn 0.5318 0.5542 -0.6403
vn 0.6459 0.7195 -0.2552
vn 0.8219 0.0605 0.5664
vn 0.7348 0.3848 0.5586
vn 0.7949 0.0289 0.6061
vn 0.1559 -0.9549 -0.2528
vn 0.1574 -0.9541 -0.2548
vn -0.6844 0.3586 -0.6348
vn -0.6836 -0.0117 -0.7298
vn -0.7458 -0.0609 -0.6634
vn -0.2884 0.9247 -0.2486
vn 0.3017 0.9202 0.2493
vn 0.8446 0.0896 0.5278
vn 0.2284 -0.9084 -0.3503
vn 0.2038 -0.9262 -0.3172
vn 0.2016 -0.9277 -0.3144
vn -0.6169 0.0501 -0.7854
vn 0.0284 0.3331 -0.9425
vn -0.0453 0.8048 -0.5918
vn 0.4232 0.4385 -0.7928
vn -0.6357 0.7436 -0.2070
vn -0.8752 0.4763 0.0851
vn -0.8838 0.4542 -0.1125
vn 0.6708 0.4019 -0.6233
vn 0.6060 0.0819 -0.7912
vn 0.4514 0.4023 -0.7965
vn 0.7552 0.0334 -0.6547
vn 0.7679 0.0119 -0.6404
vn 0.6520 0.4141 -0.6351
vn 0.7711 0.0162 -0.6365
vn 0.6517 0.4301 -0.6247
vn 0.7793 -0.0016 -0.6266
vn -0.0843 0.9926 -0.0876
vn -0.2612 0.9105 -0.3207
vn -0.1089 0.9852 -0.1321
vn -0.0924 0.9834 -0.1560
vn -0.8663 0.4023 0.2960
vn -0.7680 -0.0125 0.6403
vn -0.7432 0.3793 0.5512
vn -0.7955 -0.0414 0.6046
vn -0.7785 -0.0539 0.6253
vn -0.7723 -0.0196 0.6349
vn -0.7489 0.3988 0.5293
vn -0.7780 0.0005 0.6283
vn -0.7454 0.4439 0.4972
vn 0.0492 -0.9982 0.0350
vn 0.1370 -0.9774 0.1612
vn 0.1380 -0.9767 0.1641
vn 0.0603 -0.9971 0.0472
vn 0.0945 -0.9892 0.1120
vn 0.0953 -0.9888 0.1151
vn 0.0714 -0.9932 0.0925
vn 0.0705 -0.9931 0.0937
vn -0.0923 0.9834 -0.1561
vn -0.1230 0.4562 -0.8814
vn -0.3485 0.8589 -0.3754
vn 0.1019 0.5986 -0.7946
vn -0.3484 0.8589 -0.3754
vn -0.1230 0.4561 -0.8814
vn -0.5433 0.5366 -0.6457
vn -0.1708 0.9593 -0.2247
vn 0.3840 0.7129 -0.5868
vn -0.2216 0.9323 -0.2859
vn 0.3368 0.6993 -0.6305
vn -0.2496 0.9107 -0.3290
vn 0.3089 0.6901 -0.6545
vn -0.2726 0.8927 -0.3589
vn 0.2856 0.6817 -0.6736
vn -0.3070 0.8654 -0.3960
vn 0.2549 0.6699 -0.6974
vn -0.3316 0.8391 -0.4313
vn 0.2142 0.6527 -0.7267
vn -0.3389 0.8322 -0.4389
vn 0.2058 0.6445 -0.7364
vn -0.2593 0.8304 -0.4931
vn 0.2921 0.5992 -0.7454
vn -0.8016 0.5966 -0.0404
vn -0.8023 0.5353 -0.2642
vn -0.6327 0.7238 0.2753
vn -0.6661 0.7171 0.2051
vn -0.6849 0.7093 0.1668
vn -0.7029 0.6998 0.1272
vn -0.7166 0.6911 0.0947
vn -0.7321 0.6791 0.0546
vn -0.7320 0.6791 0.0547
vn -0.7378 0.6739 0.0385
vn -0.7530 0.6551 0.0610
vn -0.2592 0.8303 -0.4933
vn 0.4794 0.3154 0.8190
vn 0.4450 0.3252 0.8344
vn 0.6983 0.3743 0.6102
vn 0.3581 0.2838 0.8895
vn 0.4094 0.3254 0.8524
vn 0.7553 -0.0004 -0.6553
vn 0.7576 0.0015 -0.6527
vn 0.7570 0.0011 -0.6534
vn 0.7577 0.0012 -0.6526
vn 0.7554 -0.0004 -0.6553
vn 0.7583 -0.0017 -0.6519
vn 0.7624 0.0028 -0.6471
vn 0.7623 0.0028 -0.6472
vn 0.7644 0.0035 -0.6447
vn 0.7646 0.0036 -0.6445
vn 0.7671 0.0046 -0.6415
vn 0.7663 0.0043 -0.6424
vn 0.7714 0.0059 -0.6363
vn 0.7710 0.0058 -0.6368
vn 0.7661 0.0042 -0.6428
vn 0.7680 0.0048 -0.6404
vn 0.7680 0.0048 -0.6405
vn 0.7617 0.0025 -0.6479
vn 0.7618 0.0026 -0.6478
vn 0.7674 0.0047 -0.6412
vn 0.7673 0.0014 -0.6413
vn 0.7853 -0.0121 -0.6191
vn 0.7895 -0.0176 -0.6135
vn -0.7557 0.0003 0.6549
vn -0.7575 -0.0010 0.6528
vn -0.7579 -0.0016 0.6524
vn -0.7549 0.0019 0.6558
vn -0.7623 -0.0028 0.6472
vn -0.7624 -0.0028 0.6471
vn -0.7646 -0.0035 0.6445
vn -0.7645 -0.0035 0.6446
vn -0.7644 -0.0035 0.6448
vn -0.7666 -0.0044 0.6421
vn -0.7672 -0.0046 0.6414
vn -0.7664 -0.0043 0.6424
vn -0.7710 -0.0058 0.6368
vn -0.7713 -0.0059 0.6364
vn -0.7680 -0.0048 0.6404
vn -0.7661 -0.0042 0.6427
vn -0.7617 -0.0025 0.6479
vn -0.7590 -0.0017 0.6510
vn -0.7574 -0.0023 0.6530
vn -0.7541 -0.0071 0.6567
vn -0.7538 -0.0092 0.6570
vn 0.1166 -0.9806 0.1575
vn 0.0756 -0.9920 0.1012
vn 0.0797 -0.9910 0.1072
vn 0.1165 -0.9807 0.1571
vn 0.1235 -0.9777 0.1699
vn 0.1158 -0.9804 0.1595
vn 0.2158 -0.9301 0.2972
vn 0.2145 -0.9310 0.2954
vn 0.2398 -0.9129 0.3303
vn 0.2391 -0.9134 0.3293
vn 0.2633 -0.8940 0.3626
vn 0.2623 -0.8948 0.3612
vn 0.2900 -0.8697 0.3994
vn 0.2892 -0.8705 0.3982
vn 0.3185 -0.8403 0.4386
vn 0.3173 -0.8417 0.4368
vn 0.3220 -0.8365 0.4435
vn 0.3183 -0.8344 0.4499
vn 0.2549 -0.8327 0.4917
vn 0.2425 -0.8284 0.5049
vn -0.8827 0.4205 -0.2098
vn -0.9390 0.2666 0.2174
vn -0.8909 0.3837 0.2430
vn 0.2158 -0.9397 0.2653
vn 0.0585 -0.9969 0.0518
vn 0.2252 -0.9357 0.2716
vn -0.0008 -0.9995 -0.0315
vn 0.3461 0.4543 -0.8208
vn 0.0934 0.2761 -0.9566
vn 0.3070 0.1447 -0.9406
vn 0.0048 0.7284 -0.6852
vn -0.5318 0.5542 -0.6403
vn -0.6460 0.7194 -0.2552
vn -0.8219 0.0609 0.5663
vn -0.7347 0.3848 0.5586
vn -0.7949 0.0289 0.6061
vn -0.1559 -0.9549 -0.2528
vn -0.1574 -0.9541 -0.2548
vn 0.6844 0.3585 -0.6348
vn 0.7458 -0.0609 -0.6634
vn 0.6837 -0.0117 -0.7297
vn 0.2885 0.9247 -0.2486
vn -0.3017 0.9202 0.2493
vn -0.8447 0.0896 0.5278
vn -0.2284 -0.9084 -0.3503
vn -0.2038 -0.9262 -0.3172
vn -0.2016 -0.9277 -0.3144
vn 0.6169 0.0502 -0.7854
vn -0.0000 -0.9534 -0.3018
vn 1.0000 -0.0000 -0.0000
vn -0.0000 -0.0801 -0.9968
vn -0.0000 -0.0799 -0.9968
vn -0.0000 -0.0720 0.9974
vn -0.0000 -0.0718 0.9974
vn -0.1896 0.9819 -0.0000
vn -0.1898 0.9818 0.0001
vn -0.1893 0.9819 -0.0000
vn 0.1927 0.9813 -0.0000
vn 0.1926 0.9813 -0.0000
vn 0.1925 0.9813 -0.0000
vn -0.0000 0.0799 0.9968
vn -0.0000 0.0800 0.9968
vn -0.0000 0.0720 -0.9974
vn -0.0000 -0.0722 0.9974
vn 0.1927 0.9812 -0.0000
vn 0.1929 0.9812 -0.0000
vn -0.0000 1.0000 -0.0000
vn -0.1895 0.9819 0.0001
vn -0.1894 0.9819 -0.0000
vn 0.0001 0.0800 0.9968
vn -0.0000 0.0721 -0.9974
vn 0.0001 0.0721 -0.9974
vn 0.0001 0.0720 -0.9974
vn -0.0000 -1.0000 -0.0000
vn -0.0000 -1.0000 -0.0001
vn -0.0000 -0.0000 1.0000
vn -0.0000 -0.0000 -1.0000
vn -0.0000 0.0283 -0.9996
vn -0.0000 0.1051 -0.9945
vn -0.3161 0.9487 -0.0000
vn -0.3162 0.9487 -0.0000
vn -1.0000 -0.0000 0.0006
vn -0.0003 -0.0000 -1.0000
vn -0.0000 -0.0000 -0.0000
vn -0.3163 0.9487 -0.0000
vn -0.0000 0.0668 0.9978
vn -0.0001 0.0667 0.9978
vn -0.0002 0.0667 0.9978
vn 0.0001 0.0668 0.9978
vn -0.0000 0.0667 0.9978
vn -0.0001 0.0668 0.9978
vn 0.0002 0.0667 0.9978
vn -0.0000 0.9138 0.4061
vn -0.0000 -0.8875 0.4608
vn -0.0385 0.0667 -0.9970
vn -0.0384 0.0667 -0.9970
vn 0.0384 0.0667 -0.9970
vn 0.0385 0.0667 -0.9970
vn 0.0383 0.0667 -0.9970
vt 0.999500 0.377400
vt 0.941600 0.228100
vt 0.764500 0.157100
vt 0.194000 0.127800
vt 0.000500 0.186600
vt 0.000500 0.377400
vt 0.154800 0.323400
vt -0.114400 0.186600
vt -0.116100 0.377400
vt 0.500000 0.500000
vt 0.454800 0.384000
vt 0.159800 0.513500
vt 0.447900 0.524200
vt 0.442300 0.359300
vt 0.447400 0.534000
vt 0.876900 0.620200
vt 0.871600 0.339400
vt 0.428700 0.365500
vt 0.153100 0.144300
vt -0.105200 0.012800
vt 0.442200 0.363500
vt 0.439200 0.188700
vt 0.872200 0.337200
vt 0.882500 0.163000
vt 1.114400 0.186600
vt 0.853100 0.372300
vt 0.840200 0.513500
vt 1.085100 0.665000
vt 1.116100 0.377400
vt 0.845200 0.323400
vt 0.558200 0.369000
vt 0.552600 0.534000
vt 0.557700 0.359300
vt 0.128400 0.339400
vt 0.123100 0.620200
vt 0.539400 0.528000
vt -0.116100 0.999500
vt 0.159800 0.999500
vt 0.159800 0.000500
vt -0.116100 0.024600
vt 0.447400 0.999500
vt 0.447400 0.000500
vt 0.159900 0.001000
vt 0.876900 0.999500
vt 0.876900 0.000500
vt 0.447400 0.001100
vt 1.103500 0.010200
vt 0.844900 0.142800
vt 0.846900 0.144300
vt 0.560600 0.185900
vt 0.560800 0.188700
vt 0.117500 0.163000
vt 0.558400 0.362800
vt -0.289200 0.000500
vt -0.251700 0.000500
vt -0.242600 0.500000
vt -0.280100 0.500000
vt -0.011000 0.000500
vt -0.001900 0.500000
vt 0.173700 0.000500
vt 0.182900 0.500000
vt 0.347100 0.000500
vt 0.356300 0.500000
vt 0.528800 0.000500
vt 0.538000 0.500000
vt 0.712600 0.000500
vt 0.721700 0.500000
vt 0.901500 0.000500
vt 0.910600 0.500000
vt 1.094200 0.000500
vt 1.103400 0.500000
vt 1.284200 0.066400
vt 1.289200 0.521000
vt -0.251700 0.999500
vt -0.289200 0.999500
vt -0.011000 0.999500
vt 0.173700 0.999500
vt 0.347100 0.999500
vt 0.528800 0.999500
vt 0.712600 0.999500
vt 0.901500 0.999500
vt 1.094200 0.999500
vt 1.280400 0.989700
vt 0.004100 0.288600
vt 0.001900 0.330300
vt 0.006600 0.731700
vt 0.009600 0.500400
vt 0.013900 0.887600
vt 0.002300 0.761200
vt 0.022800 0.803900
vt 0.029200 0.609000
vt 0.008400 0.695400
vt 0.167100 0.809900
vt 0.177800 0.642500
vt 0.032400 0.651700
vt 0.282200 0.817900
vt 0.292800 0.651500
vt 0.284900 0.907800
vt 0.392200 0.868300
vt 0.399500 0.619500
vt 0.391500 0.938300
vt 0.504100 0.875000
vt 0.513000 0.540800
vt 0.399700 0.616200
vt 0.621700 0.804200
vt 0.630000 0.479100
vt 0.621900 0.801600
vt 0.742000 0.751200
vt 0.751300 0.411200
vt 0.630200 0.475200
vt 0.860200 0.701600
vt 0.868600 0.375300
vt 0.864900 0.597800
vt 0.998800 0.640700
vt 0.999700 0.396200
vt 0.874500 0.368600
vt 1.000400 0.564700
vt 0.976200 0.518000
vt 0.980800 0.882600
vt 1.011900 0.737500
vt 0.826700 0.563900
vt 0.833800 0.879800
vt 0.978600 0.706300
vt 0.712600 0.581000
vt 0.719500 0.895100
vt 0.710800 0.564100
vt 0.602100 0.573000
vt 0.610200 0.894600
vt 0.602300 0.575800
vt 0.487000 0.540800
vt 0.495900 0.875000
vt 0.610500 0.898000
vt 0.371600 0.520100
vt 0.379900 0.845300
vt 0.371800 0.522800
vt 0.252300 0.498600
vt 0.261500 0.838600
vt 0.380200 0.849400
vt 0.126700 0.446400
vt 0.135100 0.772700
vt 0.131400 0.459200
vt 0.013500 0.393800
vt 0.011100 0.713100
vt 0.001400 0.999500
vt 0.021900 0.999500
vt 0.024600 0.288600
vt 0.004100 0.288700
vt 0.167100 0.982000
vt 0.173400 0.009200
vt 0.028100 0.027100
vt 0.279600 1.007800
vt 0.285800 0.035000
vt 0.284100 0.985100
vt 0.390600 0.000500
vt 0.283200 0.047300
vt 0.505000 0.938300
vt 0.504100 0.000500
vt 0.504100 0.894600
vt 0.621000 0.894600
vt 0.621000 0.000500
vt 0.621900 0.894600
vt 0.742000 0.955800
vt 0.740200 0.000500
vt 0.620100 -0.060700
vt 0.864900 0.999500
vt 0.864900 0.000500
vt 0.742000 -0.043200
vt 0.995000 1.237200
vt 0.999700 0.390100
vt 0.520100 0.489800
vt 0.790900 0.351700
vt 1.115100 0.265100
vt 1.116000 0.358300
vt 1.105700 0.046400
vt 1.110000 0.115800
vt 0.500000 0.010200
vt 0.332900 0.069200
vt 0.758800 0.530000
vt 1.115300 0.286500
vt 0.000500 0.286500
vt 1.116200 0.379500
vt 1.117300 0.511600
vt -0.299400 -0.028200
vt -0.016300 0.625200
vt -0.826000 0.667900
vt -1.109100 -0.037700
vt 0.676200 1.299400
vt 1.182600 1.299400
vt 1.182600 2.109100
vt 0.676200 2.109100
vt -0.182600 0.625200
vt 0.323800 0.625200
vt 0.323800 0.667900
vt -0.182600 0.667900
vt 1.016400 0.625200
vt 1.299500 -0.028200
vt 2.109200 -0.037700
vt 1.826100 0.667900
vt 1.184600 0.625200
vt 1.184600 0.667900
vt -0.184600 1.299500
vt -0.184600 2.109200
vt 1.278800 1.299400
vt 1.278800 2.109100
vt 1.278800 0.625200
vt 1.278800 0.667900
vt -0.182600 -0.148300
vt -0.182600 0.022000
vt -0.278300 0.022000
vt 1.278300 0.597500
vt 1.184600 0.769700
vt 1.184600 0.597500
vt 1.182600 0.807500
vt 1.182600 0.625200
vt -0.278800 -0.028200
vt -0.184600 -0.212600
vt -0.184600 -0.028200
vt 2.164100 -0.361000
vt -0.622300 0.989500
vt -1.164100 -0.361000
vt 1.622300 0.989500
vt 2.164000 -0.361000
vt 1.622200 0.989400
vt -0.622300 0.989400
vt 1.182600 -0.413800
vt 1.182600 -0.622300
vt 1.298100 -0.622300
vt -0.298100 1.622300
vt -0.184600 1.417400
vt -0.184600 1.622300
vt 1.184600 -0.150200
vt 1.278300 0.022000
vt 1.184600 0.022000
vt -0.184600 0.769700
vt -0.184600 -0.150200
vt 0.676200 0.309800
vt -0.182600 0.597500
vt -0.182600 0.767900
vt -0.278300 0.597500
vt 1.182600 -0.148300
vt 1.182600 0.767900
vt -0.184600 0.809500
vt -0.278800 0.625200
vt -0.184600 0.625200
vt 1.184600 -0.212600
vt 1.184600 0.809500
vt 0.323800 0.298500
vt 1.182600 -0.028200
vt 1.182600 -0.210500
vt 1.278800 -0.028200
vt -0.182600 0.807500
vt -0.182600 -0.210500
vt -0.184600 -0.417400
vt -0.298100 -0.622300
vt -0.184600 -0.622300
vt 0.676200 0.500000
vt 1.182600 1.622200
vt 1.182600 1.413700
vt 1.298100 1.622200
vt 0.323800 0.597500
vt 0.676200 0.597500
vt 0.676200 -0.028200
vt 0.323800 -0.028200
vt 0.676200 1.622300
vt 0.323800 0.309800
vt -0.184600 0.022000
vt 0.676200 0.022000
vt 0.676200 0.298500
vt 0.676200 -0.622300
vt 0.323800 0.022000
vt 0.676200 0.625200
vt 1.182600 0.597500
vt -0.182600 -0.028200
vt -0.278800 1.299500
vt -0.182600 -0.622300
vt -0.182600 -0.413800
vt 1.182600 0.989400
vt 1.298100 0.989400
vt 1.298100 1.361000
vt -0.278800 2.109200
vt -0.278800 0.667900
vt 1.184600 0.989500
vt 1.298100 0.989500
vt 0.323800 -0.037700
vt -0.182600 -0.037700
vt -0.182600 -0.361000
vt 0.323800 -0.361000
vt -0.184600 0.989500
vt -0.298100 1.361000
vt -0.298100 0.989500
vt 0.323800 0.989400
vt -0.182600 0.989400
vt -0.413700 0.989400
vt -0.622200 0.989400
vt -0.298100 0.989400
vt -0.182600 1.413700
vt 1.622300 1.361000
vt -0.622300 1.361000
vt 1.622200 1.361000
vt 1.182600 -0.361000
vt 1.298100 -0.361000
vt 1.278300 -0.031000
vt 1.182600 -0.031100
vt -0.278300 0.659500
vt -0.184600 0.659500
vt -0.298100 -0.361000
vt -0.278300 -0.031000
vt 1.278300 0.659500
vt -0.184600 -0.361000
vt -0.184600 -0.031000
vt 1.182600 0.659500
vt 0.676200 0.989400
vt 0.676200 0.659500
vt 0.676200 -0.361000
vt 0.676200 -0.031100
vt 1.182600 0.022000
vt -0.184600 0.597500
vt -0.754600 0.659500
vt -1.031700 -0.031000
vt -0.315000 0.022000
vt -0.037900 0.597500
vt 2.031800 -0.031000
vt 1.754700 0.659500
vt 1.038000 0.597500
vt 1.315100 0.022000
vt 1.184600 -0.361000
vt 1.278800 -0.037700
vt 1.184600 -0.037700
vt -0.278800 -0.037700
s 1
usemtl 3d66_Standardmaterial_17342430_101
f 1/1/1 2/2/2 3/3/3
f 1/1/1 3/3/3 4/4/4
f 1/1/1 4/4/4 5/5/5
f 1/1/1 5/5/5 6/6/6
f 7/7/7 8/8/8 9/9/9
f 7/7/7 9/9/9 10/10/10
f 7/7/7 10/10/10 11/11/11
f 11/12/11 12/13/12 13/14/13
f 13/14/13 7/7/7 11/12/11
f 12/15/12 14/16/14 15/17/15
f 15/17/15 13/18/13 12/15/12
f 8/8/8 7/7/7 16/19/16
f 16/19/16 17/20/17 8/8/8
f 7/7/7 13/21/13 18/22/18
f 18/22/18 16/19/16 7/7/7
f 13/14/13 15/23/15 19/24/19
f 19/24/19 18/22/18 13/14/13
f 20/25/20 21/26/21 22/27/22
f 22/27/22 23/28/23 24/29/24
f 20/25/20 22/27/22 24/29/24
f 21/30/21 25/31/25 26/32/26
f 26/32/26 22/27/22 21/30/21
f 25/33/25 27/34/27 28/35/28
f 28/35/28 26/36/26 25/33/25
f 23/37/29 22/38/30 11/39/31
f 11/39/31 10/40/32 23/37/29
f 22/38/30 26/41/33 12/42/34
f 12/42/34 11/43/31 22/38/30
f 26/41/33 28/44/35 14/45/36
f 14/45/36 12/46/34 26/41/33
f 17/47/17 16/48/16 21/30/21
f 21/30/21 20/25/20 17/47/17
f 16/49/16 18/50/18 25/33/25
f 25/33/25 21/30/21 16/49/16
f 18/51/18 19/52/19 27/34/27
f 27/34/27 25/53/25 18/51/18
f 20/25/20 24/10/24 80/10/133
f 20/25/20 80/10/133 81/170/134
f 20/25/20 81/170/134 82/171/135
f 83/1/136 81/6/137 80/6/138
f 80/6/138 84/1/139 83/1/136
f 85/25/140 83/172/141 84/173/142
f 85/25/140 84/173/142 9/29/9
f 85/25/140 9/29/9 8/25/8
f 86/174/143 85/175/140 8/25/8
f 8/25/8 17/47/17 87/47/144
f 86/174/143 8/25/8 87/47/144
f 17/176/17 20/5/20 82/5/135
f 82/5/135 88/177/145 87/176/144
f 17/176/17 82/5/135 87/176/144
f 9/9/9 84/10/142 10/10/10
f 23/29/23 80/10/133 24/10/24
f 84/10/139 80/10/138 23/29/29
f 23/29/29 10/10/32 84/10/139
f 89/10/146 90/178/147 82/5/135
f 82/5/135 81/6/134 91/6/148
f 89/10/146 82/5/135 91/6/148
f 92/1/149 91/6/150 81/6/137
f 81/6/137 83/1/136 92/1/149
f 83/29/141 85/25/140 93/25/151
f 93/25/151 94/179/152 92/29/153
f 83/29/141 93/25/151 92/29/153
f 95/47/154 93/25/151 85/25/140
f 85/25/140 86/47/143 95/47/154
f 90/5/147 96/176/155 88/176/145
f 88/176/145 82/5/135 90/5/147
f 90/5/147 89/180/146 97/6/156
f 90/5/147 97/6/156 6/6/6
f 90/5/147 6/6/6 5/5/5
f 1/1/157 6/6/157 97/6/158
f 97/6/158 98/1/159 1/1/157
f 2/25/2 1/181/1 98/182/160
f 2/25/2 98/182/160 94/29/152
f 2/25/2 94/29/152 93/25/151
f 3/47/3 2/25/2 93/25/151
f 93/25/151 95/47/154 3/47/3
f 5/5/5 4/176/4 96/176/155
f 96/176/155 90/5/147 5/5/5
f 94/1/152 98/10/160 92/10/153
f 91/6/148 97/10/156 89/10/146
f 98/10/159 97/10/158 91/6/150
f 91/6/150 92/10/149 98/10/159
f 87/47/144 88/10/145 86/10/143
f 88/10/145 96/47/155 95/10/154
f 95/10/154 86/10/143 88/10/145
f 96/47/155 4/10/4 3/47/3
f 3/47/3 95/10/154 96/47/155
f 99/1/164 100/3/165 101/2/166
f 99/1/164 102/4/167 100/3/165
f 99/1/164 103/5/168 102/4/167
f 99/1/164 104/6/169 103/5/168
f 105/7/170 106/9/171 107/8/172
f 105/7/170 108/10/173 106/9/171
f 105/7/170 109/11/174 108/10/173
f 109/12/174 110/14/175 111/13/176
f 110/14/175 109/12/174 105/7/170
f 111/15/176 112/17/177 113/16/178
f 112/17/177 111/15/176 110/18/175
f 107/8/172 114/19/179 105/7/170
f 114/19/179 107/8/172 115/20/180
f 105/7/170 116/22/181 110/21/175
f 116/22/181 105/7/170 114/19/179
f 110/14/175 117/24/182 112/23/177
f 117/24/182 110/14/175 116/22/181
f 118/25/183 119/27/184 120/26/185
f 119/27/184 121/29/186 122/28/187
f 118/25/183 121/29/186 119/27/184
f 120/30/185 123/32/188 124/31/189
f 123/32/188 120/30/185 119/27/184
f 124/33/189 125/35/190 126/34/191
f 125/35/190 124/33/189 123/36/188
f 122/37/192 109/39/193 119/38/194
f 109/39/193 122/37/192 108/40/195
f 119/38/194 111/42/196 123/41/197
f 111/42/196 119/38/194 109/43/193
f 123/41/197 113/45/198 125/44/199
f 113/45/198 123/41/197 111/46/196
f 115/47/180 120/30/185 114/48/179
f 120/30/185 115/47/180 118/25/183
f 114/49/179 124/33/189 116/50/181
f 124/33/189 114/49/179 120/30/185
f 116/51/181 126/34/191 117/52/200
f 126/34/191 116/51/181 124/53/189
f 118/25/183 177/10/303 121/10/186
f 118/25/183 178/170/304 177/10/303
f 118/25/183 179/171/305 178/170/304
f 180/1/306 177/6/307 178/6/308
f 177/6/307 180/1/306 181/1/309
f 182/25/310 181/173/311 180/172/312
f 182/25/310 106/29/171 181/173/311
f 182/25/310 107/25/172 106/29/171
f 183/174/313 107/25/172 182/175/310
f 107/25/172 184/47/314 115/47/180
f 183/174/313 184/47/314 107/25/172
f 115/176/180 179/5/305 118/5/183
f 179/5/305 184/176/314 185/177/315
f 115/176/180 184/176/314 179/5/305
f 106/9/171 108/10/173 181/10/311
f 122/29/187 121/10/186 177/10/303
f 181/10/309 122/29/192 177/10/307
f 122/29/192 181/10/309 108/10/195
f 186/10/316 179/5/305 187/178/317
f 179/5/305 188/6/318 178/6/304
f 186/10/316 188/6/318 179/5/305
f 189/1/319 178/6/308 188/6/320
f 178/6/308 189/1/319 180/1/306
f 180/29/312 190/25/321 182/25/310
f 190/25/321 189/29/322 191/179/323
f 180/29/312 189/29/322 190/25/321
f 192/47/324 182/25/310 190/25/321
f 182/25/310 192/47/324 183/47/313
f 187/5/317 185/176/315 193/176/325
f 185/176/315 187/5/317 179/5/305
f 187/5/317 194/6/326 186/180/316
f 187/5/317 104/6/169 194/6/326
f 187/5/317 103/5/168 104/6/169
f 99/1/327 194/6/328 104/6/329
f 194/6/328 99/1/327 195/1/330
f 101/25/166 195/182/331 99/181/164
f 101/25/166 191/29/323 195/182/331
f 101/25/166 190/25/321 191/29/323
f 100/47/165 190/25/321 101/25/166
f 190/25/321 100/47/165 192/47/324
f 103/5/168 193/176/325 102/176/167
f 193/176/325 103/5/168 187/5/317
f 191/1/323 189/10/322 195/10/331
f 188/6/318 186/10/316 194/10/326
f 195/10/330 188/6/320 194/10/328
f 188/6/320 195/10/330 189/10/319
f 184/47/314 183/10/313 185/10/315
f 185/10/315 192/10/324 193/47/325
f 192/10/324 185/10/315 183/10/313
f 193/47/325 100/47/165 102/10/167
f 100/47/165 193/47/325 192/10/324
f 196/1/332 197/2/333 198/3/334
f 196/1/332 198/3/334 199/4/335
f 196/1/332 199/4/335 200/5/336
f 196/1/332 200/5/336 201/6/337
f 202/7/338 203/8/339 204/9/340
f 202/7/338 204/9/340 205/10/341
f 202/7/338 205/10/341 206/11/342
f 206/12/342 207/13/343 208/14/344
f 208/14/344 202/7/338 206/12/342
f 207/15/345 209/16/346 210/17/347
f 210/17/348 208/18/344 207/15/343
f 203/8/339 202/7/338 211/19/349
f 211/19/349 212/20/350 203/8/339
f 202/7/338 208/21/344 213/22/351
f 213/22/351 211/19/349 202/7/338
f 208/14/344 210/23/348 214/24/352
f 214/24/352 213/22/351 208/14/344
f 215/25/353 216/26/354 217/27/355
f 217/27/355 218/28/356 219/29/357
f 215/25/353 217/27/355 219/29/357
f 216/30/354 220/31/358 221/32/359
f 221/32/359 217/27/355 216/30/354
f 220/33/358 222/34/360 223/35/361
f 223/35/361 221/36/359 220/33/358
f 218/37/362 217/38/363 206/39/364
f 206/39/364 205/40/365 218/37/362
f 217/38/363 221/41/366 207/42/367
f 207/42/367 206/43/364 217/38/363
f 221/41/366 223/44/368 209/45/369
f 209/45/369 207/46/367 221/41/366
f 212/47/350 211/48/349 216/30/354
f 216/30/354 215/25/353 212/47/350
f 211/49/349 213/50/351 220/33/358
f 220/33/358 216/30/354 211/49/349
f 213/51/351 214/52/352 222/34/360
f 222/34/360 220/53/358 213/51/351
f 215/25/353 219/10/357 274/10/472
f 215/25/353 274/10/472 275/170/473
f 215/25/353 275/170/473 276/171/474
f 277/1/475 275/6/476 274/6/477
f 274/6/477 278/1/478 277/1/475
f 279/25/479 277/172/480 278/173/481
f 279/25/479 278/173/481 204/29/340
f 279/25/479 204/29/340 203/25/339
f 280/174/482 279/175/479 203/25/339
f 203/25/339 212/47/350 281/47/483
f 280/174/482 203/25/339 281/47/483
f 212/176/350 215/5/353 276/5/474
f 276/5/474 282/177/484 281/176/483
f 212/176/350 276/5/474 281/176/483
f 204/9/340 278/10/481 205/10/341
f 218/29/356 274/10/472 219/10/357
f 278/10/478 274/10/477 218/29/362
f 218/29/362 205/10/365 278/10/478
f 283/10/485 284/178/486 276/5/474
f 276/5/474 275/6/473 285/6/487
f 283/10/485 276/5/474 285/6/487
f 286/1/488 285/6/489 275/6/476
f 275/6/476 277/1/475 286/1/488
f 277/29/480 279/25/479 287/25/490
f 287/25/490 288/179/491 286/29/492
f 277/29/480 287/25/490 286/29/492
f 289/47/493 287/25/490 279/25/479
f 279/25/479 280/47/482 289/47/493
f 284/5/486 290/176/494 282/176/484
f 282/176/484 276/5/474 284/5/486
f 284/5/486 283/180/485 291/6/495
f 284/5/486 291/6/495 201/6/337
f 284/5/486 201/6/337 200/5/336
f 196/1/496 201/6/496 291/6/497
f 291/6/497 292/1/498 196/1/496
f 197/25/333 196/181/332 292/182/499
f 197/25/333 292/182/499 288/29/491
f 197/25/333 288/29/491 287/25/490
f 198/47/334 197/25/333 287/25/490
f 287/25/490 289/47/493 198/47/334
f 200/5/336 199/176/335 290/176/494
f 290/176/494 284/5/486 200/5/336
f 288/1/491 292/10/499 286/10/492
f 285/6/487 291/10/495 283/10/485
f 292/10/498 291/10/497 285/6/489
f 285/6/489 286/10/488 292/10/498
f 281/47/483 282/10/484 280/10/482
f 282/10/484 290/47/494 289/10/493
f 289/10/493 280/10/482 282/10/484
f 290/47/494 199/10/335 198/47/334
f 198/47/334 289/10/493 290/47/494
f 293/1/500 294/3/501 295/2/502
f 293/1/500 296/4/503 294/3/501
f 293/1/500 297/5/504 296/4/503
f 293/1/500 298/6/505 297/5/504
f 299/7/506 300/9/507 301/8/508
f 299/7/506 302/10/509 300/9/507
f 299/7/506 303/11/510 302/10/509
f 303/12/510 304/14/511 305/13/512
f 304/14/511 303/12/510 299/7/506
f 305/15/512 306/17/513 307/16/514
f 306/17/513 305/15/512 304/18/511
f 301/8/508 308/19/515 299/7/506
f 308/19/515 301/8/508 309/20/516
f 299/7/506 310/22/517 304/21/511
f 310/22/517 299/7/506 308/19/515
f 304/14/511 311/24/518 306/23/513
f 311/24/518 304/14/511 310/22/517
f 312/25/519 313/27/520 314/26/521
f 313/27/520 315/29/522 316/28/523
f 312/25/519 315/29/522 313/27/520
f 314/30/521 317/32/524 318/31/525
f 317/32/524 314/30/521 313/27/520
f 318/33/525 319/35/526 320/34/527
f 319/35/526 318/33/525 317/36/524
f 316/37/528 303/39/529 313/38/530
f 303/39/529 316/37/528 302/40/531
f 313/38/530 305/42/532 317/41/533
f 305/42/532 313/38/530 303/43/529
f 317/41/533 307/45/534 319/44/535
f 307/45/534 317/41/533 305/46/532
f 309/47/516 314/30/521 308/48/515
f 314/30/521 309/47/516 312/25/519
f 308/49/515 318/33/525 310/50/517
f 318/33/525 308/49/515 314/30/521
f 310/51/517 320/34/527 311/52/536
f 320/34/527 310/51/517 318/53/525
f 312/25/519 374/10/640 315/10/522
f 312/25/519 375/170/641 374/10/640
f 312/25/519 376/171/642 375/170/641
f 377/1/643 374/6/644 375/6/645
f 374/6/644 377/1/643 378/1/646
f 379/25/647 378/173/648 377/172/649
f 379/25/647 300/29/507 378/173/648
f 379/25/647 301/25/508 300/29/507
f 380/174/650 301/25/508 379/175/647
f 301/25/508 381/47/651 309/47/516
f 380/174/650 381/47/651 301/25/508
f 309/176/516 376/5/642 312/5/519
f 376/5/642 381/176/651 382/177/652
f 309/176/516 381/176/651 376/5/642
f 300/9/507 302/10/509 378/10/648
f 316/29/523 315/10/522 374/10/640
f 378/10/646 316/29/528 374/10/644
f 316/29/528 378/10/646 302/10/531
f 383/10/653 376/5/642 384/178/654
f 376/5/642 385/6/655 375/6/641
f 383/10/653 385/6/655 376/5/642
f 386/1/656 375/6/645 385/6/657
f 375/6/645 386/1/656 377/1/643
f 377/29/649 387/25/658 379/25/647
f 387/25/658 386/29/659 388/179/660
f 377/29/649 386/29/659 387/25/658
f 389/47/661 379/25/647 387/25/658
f 379/25/647 389/47/661 380/47/650
f 384/5/654 382/176/652 390/176/662
f 382/176/652 384/5/654 376/5/642
f 384/5/654 391/6/663 383/180/653
f 384/5/654 298/6/505 391/6/663
f 384/5/654 297/5/504 298/6/505
f 293/1/664 391/6/665 298/6/664
f 391/6/665 293/1/664 392/1/666
f 295/25/502 392/182/667 293/181/500
f 295/25/502 388/29/660 392/182/667
f 295/25/502 387/25/658 388/29/660
f 294/47/501 387/25/658 295/25/502
f 387/25/658 294/47/501 389/47/661
f 297/5/504 390/176/662 296/176/503
f 390/176/662 297/5/504 384/5/654
f 388/1/660 386/10/659 392/10/667
f 385/6/655 383/10/653 391/10/663
f 392/10/666 385/6/657 391/10/665
f 385/6/657 392/10/666 386/10/656
f 381/47/651 380/10/650 382/10/652
f 382/10/652 389/10/661 390/47/662
f 389/10/661 382/10/652 380/10/650
f 390/47/662 294/47/501 296/10/503
f 294/47/501 390/47/662 389/10/661
usemtl 3d66_Standardmaterial_17342430_102
f 15/54/37 29/55/38 30/56/39
f 30/56/39 19/57/40 15/54/37
f 29/55/38 31/58/41 32/59/42
f 32/59/42 30/56/39 29/55/38
f 31/58/41 33/60/43 34/61/44
f 34/61/44 32/59/42 31/58/41
f 33/60/43 35/62/45 36/63/46
f 36/63/46 34/61/44 33/60/43
f 35/62/45 37/64/47 38/65/48
f 38/65/48 36/63/46 35/62/45
f 37/64/47 39/66/49 40/67/50
f 40/67/50 38/65/48 37/64/47
f 39/66/49 41/68/51 42/69/52
f 42/69/52 40/67/50 39/66/49
f 41/68/51 43/70/53 44/71/54
f 44/71/54 42/69/52 41/68/51
f 43/70/53 45/72/55 46/73/56
f 46/73/56 44/71/54 43/70/53
f 19/57/40 30/56/39 47/74/57
f 47/74/57 27/75/58 19/57/40
f 30/56/39 32/59/42 48/76/59
f 48/76/59 47/74/57 30/56/39
f 32/59/42 34/61/44 49/77/60
f 49/77/60 48/76/59 32/59/42
f 34/61/44 36/63/46 50/78/61
f 50/78/61 49/77/60 34/61/44
f 36/63/46 38/65/48 51/79/62
f 51/79/62 50/78/61 36/63/46
f 38/65/48 40/67/50 52/80/63
f 52/80/63 51/79/62 38/65/48
f 40/67/50 42/69/52 53/81/64
f 53/81/64 52/80/63 40/67/50
f 42/69/52 44/71/54 54/82/65
f 54/82/65 53/81/64 42/69/52
f 44/71/54 46/73/56 55/83/66
f 55/83/66 54/82/65 44/71/54
f 112/54/201 127/56/202 128/55/203
f 127/56/202 112/54/204 117/57/205
f 128/55/203 129/59/206 130/58/207
f 129/59/206 128/55/203 127/56/202
f 130/58/207 131/61/208 132/60/209
f 131/61/208 130/58/207 129/59/206
f 132/60/209 133/63/210 134/62/211
f 133/63/210 132/60/209 131/61/208
f 134/62/211 135/65/212 136/64/213
f 135/65/212 134/62/211 133/63/210
f 136/64/213 137/67/214 138/66/215
f 137/67/216 136/64/213 135/65/212
f 138/66/215 139/69/217 140/68/218
f 139/69/217 138/66/215 137/67/214
f 140/68/218 141/71/219 142/70/220
f 141/71/219 140/68/218 139/69/217
f 142/70/220 143/73/221 144/72/222
f 143/73/221 142/70/220 141/71/219
f 117/57/205 145/74/223 127/56/202
f 145/74/223 117/57/205 146/75/224
f 127/56/202 147/76/225 129/59/206
f 147/76/225 127/56/202 145/74/223
f 129/59/206 148/77/226 131/61/208
f 148/77/226 129/59/206 147/76/225
f 131/61/208 149/78/227 133/63/210
f 149/78/227 131/61/208 148/77/226
f 133/63/210 150/79/228 135/65/212
f 150/79/228 133/63/210 149/78/227
f 135/65/212 151/80/229 137/67/216
f 151/80/229 135/65/212 150/79/228
f 137/67/214 152/81/230 139/69/217
f 152/81/230 137/67/216 151/80/229
f 139/69/217 153/82/231 141/71/219
f 153/82/231 139/69/217 152/81/230
f 141/71/219 154/83/232 143/73/221
f 154/83/232 141/71/219 153/82/231
f 210/54/370 224/55/371 225/56/372
f 225/56/372 214/57/373 210/54/370
f 224/55/374 226/58/375 227/59/376
f 227/59/376 225/56/372 224/55/374
f 226/58/375 228/60/377 229/61/378
f 229/61/378 227/59/376 226/58/375
f 228/60/377 230/62/379 231/63/380
f 231/63/380 229/61/378 228/60/377
f 230/62/379 232/64/381 233/65/382
f 233/65/382 231/63/380 230/62/379
f 232/64/381 234/66/383 235/67/384
f 235/67/384 233/65/382 232/64/381
f 234/66/383 236/68/385 237/69/386
f 237/69/386 235/67/384 234/66/383
f 236/68/385 238/70/387 239/71/388
f 239/71/388 237/69/386 236/68/385
f 238/70/387 240/72/389 241/73/390
f 241/73/390 239/71/388 238/70/387
f 214/57/373 225/56/372 242/74/391
f 242/74/392 243/75/393 214/57/394
f 225/56/372 227/59/376 244/76/395
f 244/76/395 242/74/391 225/56/372
f 227/59/376 229/61/378 245/77/396
f 245/77/396 244/76/395 227/59/376
f 229/61/378 231/63/380 246/78/397
f 246/78/397 245/77/396 229/61/378
f 231/63/380 233/65/382 247/79/398
f 247/79/398 246/78/397 231/63/380
f 233/65/382 235/67/384 248/80/399
f 248/80/399 247/79/398 233/65/382
f 235/67/384 237/69/386 249/81/400
f 249/81/400 248/80/399 235/67/384
f 237/69/386 239/71/388 250/82/401
f 250/82/401 249/81/400 237/69/386
f 239/71/388 241/73/390 251/83/402
f 251/83/402 250/82/401 239/71/388
f 306/54/537 321/56/538 322/55/539
f 321/56/540 306/54/541 311/57/542
f 322/55/539 323/59/543 324/58/544
f 323/59/543 322/55/539 321/56/538
f 324/58/544 325/61/545 326/60/546
f 325/61/545 324/58/544 323/59/543
f 326/60/546 327/63/547 328/62/548
f 327/63/547 326/60/546 325/61/545
f 328/62/548 329/65/549 330/64/550
f 329/65/549 328/62/548 327/63/547
f 330/64/550 331/67/551 332/66/552
f 331/67/551 330/64/550 329/65/549
f 332/66/552 333/69/553 334/68/554
f 333/69/553 332/66/552 331/67/551
f 334/68/554 335/71/555 336/70/556
f 335/71/555 334/68/554 333/69/553
f 336/70/556 337/73/557 338/72/558
f 337/73/557 336/70/556 335/71/555
f 311/57/542 339/74/559 321/56/540
f 339/74/559 311/57/542 340/75/560
f 321/56/538 341/76/561 323/59/543
f 341/76/561 321/56/540 339/74/559
f 323/59/543 342/77/562 325/61/545
f 342/77/562 323/59/543 341/76/561
f 325/61/545 343/78/563 327/63/547
f 343/78/563 325/61/545 342/77/562
f 327/63/547 344/79/564 329/65/549
f 344/79/564 327/63/547 343/78/563
f 329/65/549 345/80/565 331/67/551
f 345/80/565 329/65/549 344/79/564
f 331/67/551 346/81/566 333/69/553
f 346/81/567 331/67/551 345/80/565
f 333/69/553 347/82/568 335/71/555
f 347/82/568 333/69/553 346/81/566
f 335/71/555 348/83/569 337/73/570
f 348/83/569 335/71/555 347/82/568
usemtl 3d66_Standardmaterial_17342430_103
f 46/84/67 45/85/68 56/86/69
f 57/87/70 46/84/71 56/86/72
f 57/87/70 56/86/72 58/88/73
f 14/89/74 59/90/75 29/91/76
f 29/91/76 15/92/77 14/89/74
f 59/90/75 60/93/78 31/94/79
f 31/94/79 29/95/76 59/90/75
f 60/93/78 61/96/80 33/97/81
f 33/97/81 31/94/79 60/93/78
f 61/98/80 62/99/82 35/100/83
f 35/100/83 33/97/81 61/98/80
f 62/101/82 63/102/84 37/103/85
f 37/103/85 35/104/83 62/101/82
f 63/102/86 64/105/87 65/106/88
f 65/106/88 37/103/85 63/102/86
f 64/107/87 66/108/89 41/109/89
f 41/109/89 65/110/88 64/107/87
f 66/108/89 67/111/90 43/112/91
f 43/112/91 41/109/89 66/108/89
f 67/113/90 56/114/92 45/115/93
f 45/115/93 43/116/91 67/113/90
f 27/117/94 68/118/95 69/119/96
f 69/119/96 28/120/97 27/117/94
f 68/118/95 48/121/98 70/122/99
f 70/122/99 69/123/96 68/118/95
f 48/121/98 49/124/100 71/125/101
f 71/125/101 70/122/99 48/121/98
f 49/126/100 72/127/102 73/128/103
f 73/128/103 71/125/101 49/126/100
f 72/129/102 51/130/104 74/131/105
f 74/131/105 73/132/103 72/129/102
f 51/130/104 75/133/106 76/134/107
f 76/134/107 74/131/105 51/130/104
f 75/135/106 77/136/108 78/137/108
f 78/137/108 76/138/107 75/135/106
f 77/136/108 54/139/109 79/140/110
f 79/140/110 78/137/108 77/136/108
f 54/141/109 57/142/111 58/143/112
f 58/143/112 79/140/110 54/141/109
f 28/144/113 69/145/114 59/146/115
f 59/146/115 14/147/116 28/144/113
f 69/145/114 70/148/117 60/149/118
f 60/149/118 59/150/115 69/145/114
f 70/148/117 71/151/119 61/152/120
f 61/152/120 60/149/118 70/148/117
f 71/153/119 73/101/121 62/154/122
f 62/154/122 61/155/120 71/153/119
f 73/101/121 74/156/123 63/157/124
f 63/157/124 62/154/122 73/101/121
f 74/158/123 76/159/125 64/160/126
f 64/160/126 63/157/124 74/158/123
f 76/161/125 78/162/127 66/163/128
f 66/163/128 64/164/126 76/161/125
f 78/162/127 79/165/129 67/166/130
f 67/166/130 66/167/128 78/162/127
f 79/165/129 58/168/131 56/169/132
f 56/169/132 67/166/130 79/165/129
f 143/84/233 155/86/234 144/85/235
f 154/87/236 155/86/234 143/84/233
f 154/87/236 156/88/237 155/86/234
f 113/89/238 128/91/239 157/90/240
f 128/91/241 113/89/242 158/92/243
f 157/90/240 130/94/244 159/93/245
f 130/94/244 157/90/240 128/95/239
f 159/93/245 132/97/246 160/96/247
f 132/97/246 159/93/245 130/94/244
f 160/98/247 134/100/248 161/99/249
f 134/100/248 160/98/247 132/97/246
f 161/101/249 136/103/250 162/102/251
f 136/103/250 161/101/249 134/104/248
f 162/102/251 163/106/252 164/105/253
f 163/106/252 162/102/251 136/103/250
f 164/107/254 140/109/255 165/108/256
f 140/109/257 164/107/253 163/110/252
f 165/108/256 142/112/258 166/111/259
f 142/112/258 165/108/256 140/109/255
f 166/113/259 144/115/260 155/114/261
f 144/115/260 166/113/259 142/116/258
f 146/117/262 167/119/263 145/118/264
f 167/119/263 146/117/262 125/120/265
f 145/118/264 168/122/266 147/121/267
f 168/122/266 145/118/264 167/123/263
f 147/121/267 169/125/268 148/124/269
f 169/125/268 147/121/267 168/122/266
f 148/126/270 170/128/271 171/127/272
f 170/128/273 148/126/269 169/125/268
f 171/129/272 172/131/274 150/130/275
f 172/131/274 171/129/272 170/132/271
f 150/130/275 173/134/276 174/133/277
f 173/134/276 150/130/275 172/131/274
f 174/135/277 175/137/278 152/136/278
f 175/137/278 174/135/277 173/138/276
f 152/136/278 176/140/279 153/139/280
f 176/140/279 152/136/278 175/137/278
f 153/141/280 156/143/281 154/142/282
f 156/143/281 153/141/280 176/140/279
f 125/144/283 157/146/284 167/145/285
f 157/146/284 125/144/283 113/147/286
f 167/145/285 159/149/287 168/148/288
f 159/149/287 167/145/285 157/150/284
f 168/148/288 160/152/289 169/151/290
f 160/152/289 168/148/288 159/149/287
f 169/153/290 161/154/291 170/101/292
f 161/154/291 169/153/290 160/155/289
f 170/101/292 162/157/293 172/156/294
f 162/157/293 170/101/292 161/154/291
f 172/158/294 164/160/295 173/159/296
f 164/160/295 172/158/294 162/157/293
f 173/161/296 165/163/297 175/162/298
f 165/163/297 173/161/296 164/164/295
f 175/162/298 166/166/299 176/165/300
f 166/166/299 175/162/298 165/167/297
f 176/165/300 155/169/301 156/168/302
f 155/169/301 176/165/300 166/166/299
f 241/84/403 240/85/404 252/86/405
f 251/87/406 241/84/403 252/86/405
f 251/87/406 252/86/405 253/88/407
f 209/89/408 254/90/409 224/91/410
f 224/91/411 255/92/412 209/89/408
f 254/90/409 256/93/413 226/94/414
f 226/94/414 224/95/410 254/90/409
f 256/93/413 257/96/415 228/97/416
f 228/97/416 226/94/414 256/93/413
f 257/98/415 258/99/417 230/100/418
f 230/100/418 228/97/416 257/98/415
f 258/101/417 259/102/419 232/103/420
f 232/103/420 230/104/418 258/101/417
f 259/102/421 260/105/422 261/106/423
f 261/106/423 232/103/420 259/102/421
f 260/107/422 262/108/424 236/109/424
f 236/109/424 261/110/423 260/107/422
f 262/108/424 263/111/425 238/112/426
f 238/112/426 236/109/424 262/108/424
f 263/113/425 252/114/427 240/115/428
f 240/115/428 238/116/426 263/113/425
f 243/117/429 242/118/430 264/119/431
f 264/119/431 223/120/432 243/117/433
f 242/118/430 244/121/434 265/122/435
f 265/122/435 264/123/431 242/118/430
f 244/121/434 245/124/436 266/125/437
f 266/125/437 265/122/435 244/121/434
f 245/126/436 267/127/438 268/128/439
f 268/128/439 266/125/437 245/126/436
f 267/129/438 247/130/440 269/131/441
f 269/131/441 268/132/439 267/129/438
f 247/130/440 270/133/442 271/134/443
f 271/134/443 269/131/441 247/130/440
f 270/135/442 249/136/444 272/137/445
f 272/137/445 271/138/443 270/135/442
f 249/136/446 250/139/447 273/140/448
f 273/140/448 272/137/449 249/136/446
f 250/141/447 251/142/450 253/143/451
f 253/143/451 273/140/448 250/141/447
f 223/144/452 264/145/453 254/146/454
f 254/146/454 209/147/455 223/144/452
f 264/145/453 265/148/456 256/149/457
f 256/149/457 254/150/454 264/145/453
f 265/148/456 266/151/458 257/152/459
f 257/152/459 256/149/457 265/148/456
f 266/153/458 268/101/460 258/154/461
f 258/154/461 257/155/459 266/153/458
f 268/101/460 269/156/462 259/157/463
f 259/157/463 258/154/461 268/101/460
f 269/158/462 271/159/464 260/160/465
f 260/160/465 259/157/463 269/158/462
f 271/161/464 272/162/466 262/163/467
f 262/163/467 260/164/465 271/161/464
f 272/162/466 273/165/468 263/166/469
f 263/166/469 262/167/467 272/162/466
f 273/165/468 253/168/470 252/169/471
f 252/169/471 263/166/469 273/165/468
f 337/84/571 349/86/572 338/85/573
f 350/87/574 349/86/572 337/84/571
f 350/87/574 351/88/575 349/86/572
f 307/89/576 322/91/577 352/90/578
f 322/91/579 307/89/580 353/92/581
f 352/90/578 324/94/582 354/93/583
f 324/94/582 352/90/578 322/95/577
f 354/93/583 326/97/584 355/96/585
f 326/97/584 354/93/583 324/94/582
f 355/98/585 356/100/586 357/99/587
f 356/100/586 355/98/585 326/97/584
f 357/101/587 330/103/588 358/102/589
f 330/103/588 357/101/587 356/104/586
f 358/102/589 359/106/590 360/105/591
f 359/106/590 358/102/589 330/103/588
f 360/107/592 334/109/593 361/108/593
f 334/109/594 360/107/591 359/110/590
f 361/108/593 336/112/595 362/111/596
f 336/112/595 361/108/593 334/109/593
f 362/113/596 338/115/597 349/114/598
f 338/115/597 362/113/596 336/116/595
f 340/117/599 363/119/600 364/118/601
f 363/119/600 340/117/599 319/120/602
f 364/118/601 365/122/603 341/121/604
f 365/122/603 364/118/601 363/123/600
f 341/121/604 366/125/605 342/124/606
f 366/125/605 341/121/604 365/122/603
f 342/126/607 367/128/608 368/127/609
f 367/128/610 342/126/606 366/125/605
f 368/129/609 369/131/611 344/130/612
f 369/131/611 368/129/609 367/132/608
f 344/130/612 370/134/613 371/133/614
f 370/134/613 344/130/612 369/131/611
f 371/135/614 372/137/615 346/136/615
f 372/137/615 371/135/614 370/138/613
f 346/136/615 373/140/616 347/139/617
f 373/140/616 346/136/615 372/137/615
f 347/141/617 351/143/618 350/142/619
f 351/143/618 347/141/617 373/140/616
f 319/144/620 352/146/621 363/145/622
f 352/146/621 319/144/620 307/147/623
f 363/145/622 354/149/624 365/148/625
f 354/149/624 363/145/622 352/150/621
f 365/148/625 355/152/626 366/151/627
f 355/152/626 365/148/625 354/149/624
f 366/153/627 357/154/628 367/101/629
f 357/154/628 366/153/627 355/155/626
f 367/101/629 358/157/630 369/156/631
f 358/157/630 367/101/629 357/154/628
f 369/158/631 360/160/632 370/159/633
f 360/160/632 369/158/631 358/157/630
f 370/161/633 361/163/634 372/162/635
f 361/163/634 370/161/633 360/164/632
f 372/162/635 362/166/636 373/165/637
f 362/166/636 372/162/635 361/167/634
f 373/165/637 349/169/638 351/168/639
f 349/169/638 373/165/637 362/166/636
usemtl 3d66_Standardmaterial_17342430_099
f 432/183/161 401/184/161 463/185/161
f 463/185/161 469/186/161 432/183/161
f 443/187/162 430/188/163 472/189/163
f 472/189/163 474/190/162 443/187/162
f 400/191/668 446/192/668 476/193/668
f 476/193/668 464/194/668 400/191/668
f 427/195/669 402/196/669 466/197/669
f 466/197/669 468/198/669 427/195/669
f 446/192/668 428/199/668 470/200/668
f 470/200/668 476/193/668 446/192/668
f 404/201/162 443/187/162 474/190/162
f 474/190/162 467/202/162 404/201/162
f 430/188/163 432/203/162 469/204/162
f 469/204/162 472/189/163 430/188/163
f 428/199/668 427/205/668 468/206/668
f 468/206/668 470/200/668 428/199/668
f 393/207/670 394/208/670 395/209/670
f 396/210/671 397/211/671 398/212/671
f 399/213/672 400/214/672 401/205/672
f 402/215/673 403/216/673 404/217/673
f 405/218/161 406/219/161 407/220/161
f 408/221/161 406/219/161 405/218/161
f 409/220/669 410/222/669 411/223/669
f 412/224/669 409/220/669 411/223/669
f 419/231/671 420/232/671 421/233/671
f 397/234/680 419/235/680 422/236/681
f 423/237/670 424/238/670 425/239/670
f 422/236/680 393/240/681 424/241/681
f 426/242/673 427/243/673 428/244/673
f 403/245/682 426/246/682 429/247/682
f 430/248/683 431/249/683 432/250/683
f 429/247/682 399/251/682 431/252/682
f 398/212/671 397/211/671 442/260/671
f 397/234/680 422/236/681 442/261/681
f 404/217/673 403/216/673 443/262/673
f 403/245/682 429/247/682 443/263/682
f 422/265/671 419/231/671 421/233/671
f 422/236/680 421/266/680 445/267/680
f 397/234/680 420/209/680 419/235/680
f 396/239/689 420/209/680 397/234/680
f 429/268/673 426/242/673 428/244/673
f 429/247/682 428/199/682 446/192/682
f 403/245/682 427/205/690 426/246/682
f 402/250/691 427/205/690 403/245/682
f 393/207/670 445/270/670 394/208/670
f 422/236/680 445/267/680 393/240/681
f 399/213/672 446/271/672 400/214/672
f 429/247/682 446/192/682 399/251/682
f 423/237/670 422/265/670 424/238/670
f 442/261/681 422/236/681 423/272/681
f 424/241/681 393/240/681 425/210/681
f 393/240/681 395/232/689 425/210/681
f 430/248/683 429/268/683 431/249/683
f 443/263/682 429/247/682 430/273/682
f 431/252/682 399/251/682 432/215/692
f 399/251/682 401/243/692 432/215/692
f 402/274/163 404/201/162 467/202/162
f 467/202/162 466/280/163 402/274/163
f 401/243/668 400/191/668 464/194/668
f 464/194/668 463/281/668 401/243/668
f 474/284/697 472/285/697 471/286/697
f 471/286/697 473/287/697 474/284/697
f 464/194/698 476/193/698 475/291/698
f 475/291/698 448/292/698 464/194/698
f 476/193/698 470/200/698 418/282/698
f 418/282/698 475/291/698 476/193/698
f 449/300/705 409/301/705 450/302/705
f 450/302/705 451/303/705 449/300/705
f 435/288/705 408/290/706 452/304/707
f 452/304/707 453/305/705 435/288/705
f 408/290/706 405/306/708 454/307/708
f 454/307/708 452/304/707 408/290/706
f 409/301/709 412/278/710 455/308/710
f 455/308/710 450/302/711 409/301/709
f 405/306/708 456/309/705 457/310/705
f 457/310/705 454/307/708 405/306/708
f 412/278/710 414/277/705 458/311/705
f 458/311/705 455/308/710 412/278/710
f 459/312/705 435/288/705 453/305/705
f 453/305/705 460/313/705 459/312/705
f 456/309/705 461/314/705 462/315/705
f 462/315/705 457/310/705 456/309/705
f 461/314/705 449/300/705 451/303/705
f 451/303/705 462/315/705 461/314/705
f 414/277/705 459/312/705 460/313/705
f 460/313/705 458/311/705 414/277/705
f 451/303/712 450/302/712 395/232/712
f 395/232/712 394/316/712 451/303/712
f 453/305/713 452/304/713 396/239/713
f 396/239/713 398/317/713 453/305/713
f 454/307/712 457/310/712 421/266/712
f 421/266/712 420/209/712 454/307/712
f 455/308/713 458/311/713 423/272/713
f 423/272/713 425/210/713 455/308/713
f 460/313/713 453/305/713 398/317/713
f 398/317/713 442/261/713 460/313/713
f 457/310/712 462/315/712 445/267/712
f 445/267/712 421/266/712 457/310/712
f 452/318/669 454/319/669 420/320/669
f 420/320/669 396/321/669 452/318/669
f 462/315/712 451/303/712 394/316/712
f 394/316/712 445/267/712 462/315/712
f 458/311/713 460/313/713 442/261/713
f 442/261/713 423/272/713 458/311/713
f 450/322/161 455/323/161 425/324/161
f 425/324/161 395/325/161 450/322/161
f 448/292/698 411/295/698 463/281/698
f 463/281/698 464/194/698 448/292/698
f 465/326/697 407/301/697 466/327/697
f 466/327/697 467/328/697 465/326/697
f 407/301/714 406/283/715 468/206/715
f 468/206/715 466/327/714 407/301/714
f 411/295/716 410/306/717 469/329/716
f 469/329/716 463/281/718 411/295/716
f 406/283/698 418/282/698 470/200/698
f 470/200/698 468/206/698 406/283/698
f 410/306/697 471/286/697 472/285/697
f 472/285/697 469/329/697 410/306/697
f 473/287/697 465/326/697 467/328/697
f 467/328/697 474/284/697 473/287/697
usemtl 3d66_Standardmaterial_17342430_100
f 413/225/674 414/226/675 415/227/676
f 416/228/677 417/229/678 418/230/679
f 433/253/684 434/254/677 435/255/685
f 417/229/686 433/253/686 436/256/686
f 437/257/687 438/258/688 439/259/676
f 436/256/686 440/225/686 441/258/686
f 418/230/686 417/229/686 444/264/686
f 417/229/686 436/256/686 444/264/686
f 436/256/686 433/253/686 435/255/686
f 436/256/686 435/255/686 447/269/686
f 417/229/678 434/254/677 433/253/684
f 416/228/677 434/254/677 417/229/678
f 440/225/686 447/269/686 414/226/686
f 436/256/686 447/269/686 440/225/686
f 448/257/686 436/256/686 441/258/686
f 444/264/686 436/256/686 448/257/686
f 438/258/688 413/225/674 439/259/676
f 413/225/674 415/227/676 439/259/676
f 414/275/693 413/276/694 440/276/694
f 414/277/695 412/278/695 415/279/695
f 418/282/696 406/283/696 416/279/696
f 435/288/695 434/289/695 408/290/695
f 448/257/699 441/258/700 438/258/700
f 438/293/701 437/294/701 448/294/701
f 411/295/696 448/292/702 437/292/696
f 437/292/696 439/289/696 411/295/696
f 441/296/703 440/276/694 413/276/694
f 413/225/704 438/258/700 441/258/700
f 406/219/161 408/221/161 434/297/161
f 434/297/161 416/298/161 406/219/161
f 412/224/669 411/223/669 439/299/669
f 439/299/669 415/298/669 412/224/669
