# Blender 4.3.2
# www.blender.org
mtllib 下屋脊.mtl
o Obj3d66_17342430_20_550.001
v 1919.413452 796.204773 -28297.785156
v 1919.402222 804.538940 -27358.433594
v 1919.413574 796.205627 -27358.433594
v 1919.390503 813.119263 -28297.785156
v 1919.670044 813.447144 -27358.433594
v 1919.390503 813.120117 -27358.433594
v 1919.957886 813.782959 -28297.785156
v 1919.651855 814.106934 -27358.433594
v 1919.957886 813.783813 -27358.433594
v 1919.336426 814.438965 -28297.785156
v 1919.315308 814.786255 -27358.433594
v 1919.336670 814.439697 -27358.433594
v 1919.293335 815.142151 -28297.785156
v 1919.613403 815.350647 -27358.433594
v 1919.293457 815.142944 -27358.433594
v 1919.942749 815.563843 -28297.785156
v 1919.604614 815.814453 -27358.433594
v 1919.942871 815.564697 -27358.433594
v 1919.256470 816.070740 -28297.785156
v 1918.949707 817.114807 -27358.433594
v 1919.256470 816.071533 -27358.433594
v 1918.633789 818.188293 -28297.785156
v 1917.568237 818.648743 -27358.433594
v 1918.633789 818.189148 -27358.433594
v 1916.470825 819.121582 -28297.785156
v 1915.413452 818.644104 -27358.433594
v 1916.470947 819.122437 -27358.433594
v 1914.324585 818.150574 -28297.785156
v 1914.036011 817.103149 -27358.433594
v 1914.324463 818.151306 -27358.433594
v 1913.738892 816.022766 -28297.785156
v 1913.405029 815.767944 -27358.433594
v 1913.738892 816.023743 -27358.433594
v 1913.061279 815.504089 -28297.785156
v 1913.427246 815.304810 -27358.433594
v 1913.061279 815.505005 -27358.433594
v 1913.804077 815.097778 -28297.785156
v 1913.790894 814.753601 -27358.433594
v 1913.803955 815.098633 -27358.433594
v 1913.777466 814.397461 -28297.785156
v 1913.477051 814.069824 -27358.433594
v 1913.777588 814.398315 -27358.433594
v 1913.167603 813.730774 -28297.785156
v 1913.452881 813.409546 -27358.433594
v 1913.167603 813.731628 -27358.433594
v 1913.746582 813.077087 -28297.785156
v 1913.724487 804.748352 -27358.433594
v 1913.746582 813.078003 -27358.433594
v 1913.701782 796.170898 -27358.433594
v 1913.701660 796.170044 -28297.785156
v 1916.425903 796.205444 -28294.916016
v 3960.076904 796.204956 -28294.916016
v 3960.076904 813.119446 -28294.939453
v 1916.425781 813.119751 -28294.939453
v 3960.077148 813.783081 -28294.373047
v 1916.425659 813.783447 -28294.371094
v 3960.076904 814.439087 -28294.994141
v 1916.425781 814.439575 -28294.992188
v 3960.076904 815.142151 -28295.037109
v 1916.425781 815.142639 -28295.035156
v 3960.077148 815.563843 -28294.386719
v 1916.425781 815.564392 -28294.386719
v 3960.076904 816.070740 -28295.074219
v 1916.425781 816.071289 -28295.072266
v 3960.077148 818.188049 -28295.697266
v 1916.425781 818.188660 -28295.695312
v 3960.077148 819.121582 -28297.859375
v 1916.425781 819.121948 -28297.859375
v 3960.076904 818.150452 -28300.005859
v 1916.425781 818.150940 -28300.003906
v 3960.077148 816.022644 -28300.591797
v 1916.425781 816.023071 -28300.589844
v 3960.077148 815.503845 -28301.269531
v 1916.425781 815.504333 -28301.267578
v 3960.076904 815.097778 -28300.525391
v 1916.425781 815.098145 -28300.525391
v 3960.077148 814.397339 -28300.552734
v 1916.425781 814.397766 -28300.550781
v 3960.076904 813.730652 -28301.162109
v 1916.425659 813.731140 -28301.162109
v 3960.076416 813.076843 -28300.583984
v 1916.425781 813.077393 -28300.582031
v 3960.076904 796.169861 -28300.628906
v 1916.425781 796.170288 -28300.626953
v 3960.735596 796.205933 -27361.474609
v 1917.084229 796.204346 -27361.476562
v 1917.084351 813.118896 -27361.453125
v 3960.735596 813.120300 -27361.453125
v 1917.084106 813.782654 -27362.019531
v 3960.735596 813.783997 -27362.019531
v 1917.084106 814.438538 -27361.398438
v 3960.735596 814.440002 -27361.398438
v 1917.084106 815.141724 -27361.355469
v 3960.736084 815.143005 -27361.355469
v 1917.084351 815.563354 -27362.005859
v 3960.735596 815.564819 -27362.003906
v 1917.084106 816.070251 -27361.318359
v 3960.735596 816.071716 -27361.318359
v 1917.084351 818.187622 -27360.695312
v 3960.736084 818.189148 -27360.695312
v 1917.084229 819.121033 -27358.533203
v 3960.736084 819.122437 -27358.533203
v 1917.084351 818.150146 -27356.386719
v 3960.736084 818.151306 -27356.386719
v 1917.084229 816.022217 -27355.800781
v 3960.736084 816.023499 -27355.800781
v 1917.084229 815.503418 -27355.125000
v 3960.736084 815.504822 -27355.123047
v 1917.084229 815.097107 -27355.867188
v 3960.735596 815.098633 -27355.865234
v 1917.084229 814.396851 -27355.839844
v 3960.736084 814.398315 -27355.839844
v 1917.084106 813.730042 -27355.230469
v 3960.736084 813.731628 -27355.230469
v 1917.084473 813.076355 -27355.808594
v 3960.736084 813.077942 -27355.808594
v 1917.084229 796.169250 -27355.763672
v 3960.736084 796.170898 -27355.763672
v 3957.748535 796.205200 -27358.607422
v 3957.759766 804.538879 -28297.957031
v 3957.748535 796.205444 -28297.957031
v 3957.770996 813.119751 -27358.607422
v 3957.491699 813.447083 -28297.957031
v 3957.771240 813.119934 -28297.957031
v 3957.203369 813.783447 -27358.607422
v 3957.509521 814.106873 -28297.957031
v 3957.203857 813.783569 -28297.957031
v 3957.824951 814.439331 -27358.607422
v 3957.846191 814.786072 -28297.957031
v 3957.824951 814.439575 -28297.957031
v 3957.868164 815.142517 -27358.607422
v 3957.548096 815.350586 -28297.957031
v 3957.868164 815.142761 -28297.957031
v 3957.218506 815.564209 -27358.607422
v 3957.556885 815.814270 -28297.957031
v 3957.218018 815.564575 -28297.957031
v 3957.905029 816.071106 -27358.607422
v 3958.211670 817.114685 -28297.957031
v 3957.905029 816.071350 -28297.957031
v 3958.527588 818.188538 -27358.607422
v 3959.593506 818.648682 -28297.957031
v 3958.527588 818.188843 -28297.957031
v 3960.690674 819.121948 -27358.607422
v 3961.748535 818.643860 -28297.957031
v 3960.690918 819.122192 -28297.957031
v 3962.837402 818.151001 -27358.607422
v 3963.125732 817.102844 -28297.957031
v 3962.837646 818.151184 -28297.957031
v 3963.422119 816.023132 -27358.607422
v 3963.756592 815.767883 -28297.957031
v 3963.422852 816.023438 -28297.957031
v 3964.099854 815.504395 -27358.607422
v 3963.734863 815.304565 -28297.957031
v 3964.100342 815.504883 -28297.957031
v 3963.357666 815.098145 -27358.607422
v 3963.370850 814.753479 -28297.957031
v 3963.358154 815.098450 -28297.957031
v 3963.384033 814.397949 -27358.607422
v 3963.684814 814.069580 -28297.957031
v 3963.384033 814.398193 -28297.957031
v 3963.994385 813.731201 -27358.607422
v 3963.708984 813.409363 -28297.957031
v 3963.993896 813.731445 -28297.957031
v 3963.415527 813.077515 -27358.607422
v 3963.437256 804.748047 -28297.957031
v 3963.415527 813.077881 -28297.957031
v 3963.459717 796.170776 -28297.957031
v 3963.459473 796.170532 -27358.607422
v 1592.494629 703.013550 -28625.689453
v 1589.759521 702.821655 -28622.765625
v 1589.812988 705.320435 -28622.902344
v 1592.032104 706.457886 -28625.125000
v 1592.501099 705.463562 -28625.703125
v 1620.506592 702.574341 -28604.890625
v 1619.604492 715.614136 -28605.609375
v 1651.410889 719.612488 -28575.138672
v 1654.357788 701.092346 -28572.294922
v 1625.687378 698.005493 -28599.955078
v 1707.884399 735.175964 -28520.039062
v 1710.629883 712.378540 -28517.226562
v 1805.971436 759.469482 -28421.919922
v 1769.565674 724.103088 -28459.164062
v 1615.284668 723.886169 -28601.167969
v 1643.817139 727.357178 -28570.361328
v 1699.185669 737.804443 -28514.060547
v 1799.049927 765.796936 -28413.615234
v 1610.888672 715.149292 -28596.470703
v 1611.628906 701.948792 -28595.523438
v 1642.654297 700.402344 -28558.470703
v 1639.860596 719.098083 -28561.542969
v 1696.946655 711.778687 -28501.023438
v 1694.174805 730.459839 -28503.921875
v 1789.056030 733.409973 -28407.802734
v 1791.068604 759.270447 -28405.880859
v 1616.258057 697.321289 -28589.972656
v 1590.436279 706.451050 -28623.455078
v 1803.099121 774.469482 -28409.941406
v 1810.316406 765.306641 -28418.025391
v 1861.267090 794.039490 -28353.121094
v 1869.064697 784.712341 -28360.896484
v 1918.233276 817.083679 -28297.759766
v 1923.696045 807.760071 -28303.914062
v 1795.161255 765.227234 -28402.195312
v 1853.510132 784.714478 -28345.347656
v 1911.085449 807.759460 -28291.398438
v 1769.565674 736.378845 -28459.164062
v 1810.316528 765.306641 -28418.025391
v 1814.705811 748.796570 -28413.316406
v 1874.604370 770.583252 -28351.400391
v 1927.401978 785.271057 -28299.724609
v 1789.056030 745.685791 -28407.802734
v 1799.845093 748.488281 -28397.310547
v 1859.939209 770.573547 -28336.708984
v 1915.594482 784.526489 -28288.843750
v 1609.146484 698.037842 -28601.531250
v 1607.817871 698.412292 -28599.816406
v 1611.004517 709.476379 -28600.033203
v 1614.310303 698.398193 -28607.007812
v 1616.103516 698.989746 -28608.576172
v 1616.047852 709.745544 -28605.310547
v 1613.930054 716.441162 -28602.392578
v 1614.482544 712.959045 -28603.488281
v 1601.006226 699.291138 -28609.294922
v 1597.534546 704.546448 -28612.957031
v 1606.169922 699.651489 -28614.771484
v 1602.577881 704.815674 -28618.234375
v 1600.997925 708.058960 -28616.396484
v 1612.860352 712.950439 -28601.787109
v 1599.407227 708.051941 -28614.726562
v 1593.738037 700.315369 -28616.214844
v 1598.901855 700.675537 -28621.691406
v 1592.494629 703.013672 -27033.246094
v 1589.812988 705.320557 -27036.035156
v 1589.759521 702.821777 -27036.169922
v 1592.032104 706.458008 -27033.810547
v 1592.501099 705.463684 -27033.232422
v 1620.506592 702.574463 -27054.044922
v 1651.410889 719.612549 -27083.798828
v 1619.604492 715.614258 -27053.326172
v 1625.687378 698.005615 -27058.980469
v 1654.357788 701.092407 -27086.640625
v 1707.884399 735.176025 -27138.898438
v 1710.629883 712.378601 -27141.710938
v 1805.971436 759.469543 -27237.015625
v 1769.565674 724.103149 -27199.771484
v 1643.817139 727.357239 -27088.574219
v 1615.284668 723.886292 -27057.767578
v 1699.185669 737.804504 -27144.875000
v 1799.049927 765.796997 -27245.320312
v 1610.888672 715.149414 -27062.464844
v 1642.654297 700.402405 -27100.464844
v 1611.628906 701.948914 -27063.414062
v 1639.860596 719.098145 -27097.394531
v 1696.946655 711.778748 -27157.914062
v 1694.174805 730.459900 -27155.015625
v 1789.056030 733.410034 -27251.134766
v 1791.068604 759.270508 -27253.054688
v 1616.258057 697.321411 -27068.964844
v 1590.436279 706.451172 -27035.482422
v 1803.099121 774.469543 -27248.996094
v 1799.049927 765.796997 -27245.322266
v 1810.316406 765.306702 -27240.910156
v 1861.267090 794.039551 -27305.814453
v 1869.064697 784.712402 -27298.041016
v 1918.233276 817.083740 -27361.175781
v 1923.696045 807.760132 -27355.021484
v 1795.161255 765.227295 -27256.740234
v 1853.510132 784.714539 -27313.589844
v 1911.085449 807.759521 -27367.537109
v 1769.565674 736.378906 -27199.771484
v 1810.316528 765.306702 -27240.910156
v 1814.705811 748.796631 -27245.619141
v 1874.604370 770.583313 -27307.535156
v 1927.401978 785.271118 -27359.210938
v 1799.845093 748.488342 -27261.625000
v 1789.056030 745.685852 -27251.134766
v 1859.939209 770.573608 -27322.226562
v 1915.594482 784.526550 -27370.091797
v 1607.817871 698.412415 -27059.121094
v 1609.146484 698.037964 -27057.404297
v 1611.004517 709.476501 -27058.904297
v 1616.103516 698.989868 -27050.359375
v 1614.310303 698.398315 -27051.927734
v 1616.047852 709.745667 -27053.626953
v 1613.930054 716.441284 -27056.544922
v 1614.482544 712.959167 -27055.449219
v 1601.006226 699.291260 -27049.640625
v 1597.534546 704.546570 -27045.978516
v 1606.169922 699.651611 -27044.166016
v 1602.577881 704.815796 -27040.701172
v 1600.997925 708.059082 -27042.541016
v 1612.860352 712.950562 -27057.150391
v 1599.407227 708.052063 -27044.208984
v 1593.738037 700.315491 -27042.720703
v 1598.901855 700.675659 -27037.246094
v 4284.835938 703.013672 -27033.246094
v 4287.570801 702.821777 -27036.169922
v 4287.517578 705.320557 -27036.035156
v 4285.298340 706.458008 -27033.810547
v 4284.829102 705.463684 -27033.232422
v 4256.824219 702.574463 -27054.044922
v 4257.725586 715.614258 -27053.326172
v 4225.919922 719.612549 -27083.798828
v 4222.972656 701.092407 -27086.640625
v 4251.643066 698.005615 -27058.980469
v 4169.446289 735.176025 -27138.898438
v 4166.700684 712.378601 -27141.710938
v 4071.358887 759.469543 -27237.015625
v 4107.764648 724.103149 -27199.771484
v 4262.045898 723.886292 -27057.767578
v 4233.513672 727.357239 -27088.574219
v 4178.145020 737.804504 -27144.875000
v 4078.280518 765.796997 -27245.320312
v 4266.441895 715.149414 -27062.464844
v 4265.701172 701.948914 -27063.414062
v 4234.676270 700.402405 -27100.464844
v 4237.469727 719.098145 -27097.394531
v 4180.383789 711.778748 -27157.914062
v 4183.155273 730.459900 -27155.015625
v 4088.274414 733.410034 -27251.134766
v 4086.261719 759.270508 -27253.054688
v 4261.072266 697.321411 -27068.964844
v 4286.894531 706.451172 -27035.482422
v 4078.280518 765.796997 -27245.322266
v 4074.231445 774.469543 -27248.996094
v 4067.014160 765.306702 -27240.910156
v 4016.063477 794.039551 -27305.814453
v 4008.265869 784.712402 -27298.041016
v 3959.097168 817.083740 -27361.175781
v 3953.634521 807.760132 -27355.021484
v 4082.169189 765.227295 -27256.740234
v 4023.820557 784.714539 -27313.589844
v 3966.245117 807.759521 -27367.537109
v 4107.764648 736.378906 -27199.771484
v 4062.624512 748.796631 -27245.619141
v 4002.726074 770.583313 -27307.535156
v 3949.928711 785.271118 -27359.210938
v 4088.274414 745.685852 -27251.134766
v 4077.485352 748.488342 -27261.625000
v 4017.391357 770.573608 -27322.226562
v 3961.736084 784.526550 -27370.091797
v 4268.184082 698.037964 -27057.404297
v 4269.512695 698.412415 -27059.121094
v 4266.326172 709.476501 -27058.904297
v 4263.020508 698.398315 -27051.927734
v 4261.227051 698.989868 -27050.359375
v 4261.282715 709.745667 -27053.626953
v 4263.400391 716.441284 -27056.544922
v 4262.848145 712.959167 -27055.449219
v 4276.324219 699.291260 -27049.640625
v 4279.795898 704.546570 -27045.978516
v 4271.160156 699.651611 -27044.166016
v 4274.752930 704.815796 -27040.701172
v 4276.333008 708.059082 -27042.541016
v 4264.470215 712.950562 -27057.150391
v 4277.923340 708.052063 -27044.208984
v 4283.592285 700.315491 -27042.720703
v 4278.428711 700.675659 -27037.246094
v 4284.835938 703.013550 -28625.689453
v 4287.517578 705.320435 -28622.902344
v 4287.570801 702.821655 -28622.765625
v 4285.298340 706.457886 -28625.125000
v 4284.829102 705.463562 -28625.703125
v 4256.824219 702.574341 -28604.890625
v 4225.919922 719.612488 -28575.138672
v 4257.725586 715.614136 -28605.609375
v 4251.643066 698.005493 -28599.955078
v 4222.972656 701.092346 -28572.294922
v 4169.446289 735.175964 -28520.039062
v 4166.700684 712.378540 -28517.226562
v 4071.358887 759.469482 -28421.919922
v 4107.764648 724.103088 -28459.164062
v 4233.513672 727.357178 -28570.361328
v 4262.045898 723.886169 -28601.167969
v 4178.145020 737.804443 -28514.060547
v 4078.280518 765.796936 -28413.615234
v 4266.441895 715.149292 -28596.470703
v 4234.676270 700.402344 -28558.470703
v 4265.701172 701.948792 -28595.523438
v 4237.469727 719.098083 -28561.542969
v 4180.383789 711.778687 -28501.023438
v 4183.155273 730.459839 -28503.921875
v 4088.274414 733.409973 -28407.802734
v 4086.261719 759.270447 -28405.880859
v 4261.072266 697.321289 -28589.972656
v 4286.894531 706.451050 -28623.455078
v 4074.231445 774.469482 -28409.941406
v 4067.014160 765.306641 -28418.025391
v 4016.063477 794.039490 -28353.121094
v 4008.265869 784.712341 -28360.896484
v 3959.097168 817.083679 -28297.759766
v 3953.634521 807.760071 -28303.914062
v 4082.169189 765.227234 -28402.195312
v 4023.820557 784.714478 -28345.347656
v 3966.245117 807.759460 -28291.398438
v 4107.764648 736.378845 -28459.164062
v 4062.624512 748.796570 -28413.316406
v 4002.726074 770.583252 -28351.400391
v 3949.928711 785.271057 -28299.724609
v 4077.485352 748.488281 -28397.310547
v 4088.274414 745.685791 -28407.802734
v 4017.391357 770.573547 -28336.708984
v 3961.736084 784.526489 -28288.843750
v 4269.512695 698.412292 -28599.816406
v 4268.184082 698.037842 -28601.531250
v 4266.326172 709.476379 -28600.033203
v 4261.227051 698.989746 -28608.576172
v 4263.020508 698.398193 -28607.007812
v 4261.282715 709.745544 -28605.310547
v 4263.400391 716.441162 -28602.392578
v 4262.848145 712.959045 -28603.488281
v 4276.324219 699.291138 -28609.294922
v 4279.795898 704.546448 -28612.957031
v 4271.160156 699.651489 -28614.771484
v 4274.752930 704.815674 -28618.234375
v 4276.333008 708.058960 -28616.396484
v 4264.470215 712.950439 -28601.787109
v 4277.923340 708.051941 -28614.726562
v 4283.592285 700.315369 -28616.214844
v 4278.428711 700.675537 -28621.691406
vn -0.0676 -0.0281 0.9973
vn -0.0699 -0.0293 0.9971
vn -0.0699 -0.0290 0.9971
vn -0.0676 -0.0286 0.9973
vn -0.0699 -0.0296 0.9971
vn -0.0699 -0.0297 0.9971
vn -0.0676 -0.0287 0.9973
vn -0.0677 -0.0286 0.9973
vn -0.0698 -0.0298 0.9971
vn -0.0675 -0.0285 0.9973
vn -0.0700 -0.0297 0.9971
vn -0.0698 -0.0297 0.9971
vn -0.0699 -0.0298 0.9971
vn -0.0676 -0.0288 0.9973
vn -0.0698 -0.0299 0.9971
vn -0.0701 -0.0296 0.9971
vn -0.0675 -0.0289 0.9973
vn -0.0697 -0.0298 0.9971
vn -0.0674 -0.0288 0.9973
vn -0.0674 -0.0287 0.9973
vn -0.0697 -0.0297 0.9971
vn -0.0696 -0.0296 0.9971
vn -0.0674 -0.0285 0.9973
vn -0.0697 -0.0295 0.9971
vn -0.0697 -0.0296 0.9971
vn -0.0696 -0.0295 0.9971
vn -0.0674 -0.0286 0.9973
vn -0.0697 -0.0293 0.9971
vn -0.0699 -0.0295 0.9971
vn -0.0697 -0.0299 0.9971
vn -0.0675 -0.0288 0.9973
vn -0.0673 -0.0287 0.9973
vn -0.0697 -0.0290 0.9971
vn -0.0674 -0.0281 0.9973
vn -0.0675 -0.0280 0.9973
vn -0.1385 -0.0279 0.9900
vn -0.1385 -0.0284 0.9899
vn -0.0675 -0.0287 0.9973
vn -0.0675 -0.0286 0.9973
vn -0.1385 -0.0284 0.9900
vn -0.1386 -0.0284 0.9899
vn -0.1386 -0.0285 0.9899
vn -0.1385 -0.0285 0.9900
vn -0.1385 -0.0285 0.9899
vn -0.1385 -0.0286 0.9900
vn -0.1388 -0.0286 0.9899
vn -0.1385 -0.0286 0.9899
vn -0.0676 -0.0289 0.9973
vn -0.1385 -0.0287 0.9900
vn -0.1385 -0.0287 0.9899
vn -0.1385 -0.0283 0.9900
vn -0.1384 -0.0284 0.9900
vn -0.1385 -0.0278 0.9900
vn -0.1432 -0.0288 0.9893
vn -0.0698 -0.0290 0.9971
vn -0.0698 -0.0296 0.9971
vn -0.1432 -0.0294 0.9893
vn -0.1432 -0.0295 0.9893
vn -0.1432 -0.0293 0.9893
vn -0.1432 -0.0296 0.9893
vn -0.1431 -0.0294 0.9893
vn -0.1434 -0.0295 0.9892
vn -0.1432 -0.0295 0.9892
vn -0.0698 -0.0295 0.9971
vn -0.1431 -0.0288 0.9893
vn -0.1384 -0.0282 0.9900
vn -0.1384 -0.0279 0.9900
vn -0.1384 -0.0285 0.9900
vn -0.1430 -0.0296 0.9893
vn -0.1382 -0.0285 0.9900
vn -0.1430 -0.0295 0.9893
vn -0.1431 -0.0293 0.9893
vn -0.1384 -0.0286 0.9900
vn -0.1384 -0.0283 0.9900
vn -0.1383 -0.0285 0.9900
vn -0.1386 -0.0286 0.9899
vn -0.1433 -0.0295 0.9892
vn -0.1387 -0.0286 0.9899
vn -0.1433 -0.0297 0.9892
vn -0.1387 -0.0287 0.9899
vn -0.1430 -0.0292 0.9893
vn -0.1387 -0.0285 0.9899
vn -0.1433 -0.0294 0.9892
vn -0.1387 -0.0284 0.9899
vn -0.1387 -0.0281 0.9899
vn -0.1431 -0.0295 0.9893
vn -0.1430 -0.0293 0.9893
vn -0.1431 -0.0296 0.9893
vn -0.1434 -0.0293 0.9892
vn -0.1387 -0.0278 0.9899
vn -0.1433 -0.0288 0.9893
vn -0.0555 -0.0245 0.9982
vn -0.0553 -0.0244 0.9982
vn -0.0558 -0.0246 0.9981
vn -0.0537 -0.0246 0.9983
vn -0.0565 -0.0245 0.9981
vn -0.0567 -0.0250 0.9981
vn -0.0577 -0.0251 0.9980
vn -0.0578 -0.0245 0.9980
vn -0.0567 -0.0243 0.9981
vn -0.0597 -0.0257 0.9979
vn -0.0598 -0.0249 0.9979
vn -0.0634 -0.0267 0.9976
vn -0.0620 -0.0254 0.9978
vn -0.0565 -0.0252 0.9981
vn -0.0574 -0.0254 0.9980
vn -0.0595 -0.0259 0.9979
vn -0.0632 -0.0269 0.9976
vn -0.0562 -0.0250 0.9981
vn -0.0560 -0.0157 0.9983
vn -0.0574 -0.0245 0.9981
vn -0.0573 -0.0251 0.9980
vn -0.0594 -0.0249 0.9979
vn -0.0593 -0.0256 0.9979
vn -0.0628 -0.0258 0.9977
vn -0.0629 -0.0266 0.9977
vn -0.0565 -0.0244 0.9981
vn -0.0568 -0.0244 0.9981
vn -0.0578 -0.0244 0.9980
vn -0.0574 -0.0244 0.9981
vn -0.0629 -0.0258 0.9977
vn -0.0564 -0.0253 0.9981
vn -0.0563 -0.0246 0.9981
vn -0.0575 -0.0254 0.9980
vn -0.0595 -0.0258 0.9979
vn -0.0629 -0.0267 0.9977
vn -0.0631 -0.0269 0.9976
vn -0.0675 -0.0304 0.9973
vn -0.0632 -0.0272 0.9976
vn -0.0633 -0.0269 0.9976
vn -0.0655 -0.0279 0.9975
vn -0.0658 -0.0276 0.9975
vn -0.0678 -0.0285 0.9973
vn -0.0631 -0.0270 0.9976
vn -0.0653 -0.0276 0.9975
vn -0.0674 -0.0284 0.9973
vn -0.0619 -0.0258 0.9977
vn -0.0630 -0.0267 0.9977
vn -0.0636 -0.0269 0.9976
vn -0.0636 -0.0263 0.9976
vn -0.0657 -0.0276 0.9975
vn -0.0656 -0.0276 0.9975
vn -0.0660 -0.0271 0.9975
vn -0.0637 -0.0263 0.9976
vn -0.0679 -0.0277 0.9973
vn -0.0626 -0.0262 0.9977
vn -0.0632 -0.0263 0.9977
vn -0.0654 -0.0271 0.9975
vn -0.0652 -0.0276 0.9975
vn -0.0675 -0.0277 0.9973
vn -0.0628 -0.0262 0.9977
vn -0.0621 -0.0258 0.9977
vn -0.0638 -0.0263 0.9976
vn -0.0633 -0.0263 0.9976
vn -0.0655 -0.0271 0.9975
vn -0.0675 -0.0276 0.9973
vn -0.0563 -0.0250 0.9981
vn -0.0566 -0.0244 0.9981
vn -0.0570 -0.0242 0.9981
vn -0.0559 -0.0248 0.9981
vn -0.0561 -0.0243 0.9981
vn -0.0562 -0.0243 0.9981
vn -0.0563 -0.0243 0.9981
vn -0.0562 -0.0244 0.9981
vn -0.0565 -0.0248 0.9981
vn -0.0582 -0.0247 0.9980
vn -0.0576 -0.0246 0.9980
vn -0.0594 -0.0240 0.9979
vn -0.0565 -0.0250 0.9981
vn -0.0562 -0.0249 0.9981
vn -0.0564 -0.0244 0.9981
vn -0.0561 -0.0244 0.9981
vn -0.0560 -0.0248 0.9981
vn -0.0558 -0.0244 0.9981
vn -0.0559 -0.0244 0.9981
vn -0.0561 -0.0245 0.9981
vn -0.0563 -0.0244 0.9981
vn -0.0559 -0.0245 0.9981
vn -0.0562 -0.0248 0.9981
vn -0.0559 -0.0246 0.9981
vn -0.0563 -0.0248 0.9981
vn -0.0559 -0.0247 0.9981
vn -0.0557 -0.0245 0.9981
vn -0.0554 -0.0246 0.9982
vn -0.0558 -0.0245 0.9981
vn -0.0554 -0.0247 0.9982
vn -0.0557 -0.0246 0.9981
vn -0.0556 -0.0244 0.9982
vn -0.0555 -0.0247 0.9982
vn -0.0555 -0.0246 0.9982
vn -0.0560 -0.0244 0.9981
vn -0.0558 -0.0242 0.9982
vn -0.0589 -0.0260 0.9979
vn -0.0591 -0.0261 0.9979
vn -0.0587 -0.0259 0.9979
vn -0.0588 -0.0261 0.9979
vn -0.0555 -0.0261 0.9981
vn -0.0599 -0.0259 0.9979
vn -0.0609 -0.0265 0.9978
vn -0.0597 -0.0264 0.9979
vn -0.0601 -0.0257 0.9979
vn -0.0610 -0.0259 0.9978
vn -0.0628 -0.0271 0.9977
vn -0.0629 -0.0263 0.9977
vn -0.0661 -0.0278 0.9974
vn -0.0649 -0.0266 0.9975
vn -0.0606 -0.0268 0.9978
vn -0.0595 -0.0268 0.9979
vn -0.0624 -0.0271 0.9977
vn -0.0659 -0.0280 0.9974
vn -0.0658 -0.0280 0.9974
vn -0.0593 -0.0264 0.9979
vn -0.0605 -0.0258 0.9978
vn -0.0594 -0.0259 0.9979
vn -0.0604 -0.0264 0.9978
vn -0.0623 -0.0261 0.9977
vn -0.0622 -0.0268 0.9977
vn -0.0655 -0.0269 0.9975
vn -0.0657 -0.0186 0.9977
vn -0.0655 -0.0278 0.9975
vn -0.0596 -0.0257 0.9979
vn -0.0609 -0.0259 0.9978
vn -0.0599 -0.0257 0.9979
vn -0.0628 -0.0263 0.9977
vn -0.0623 -0.0262 0.9977
vn -0.0648 -0.0266 0.9975
vn -0.0655 -0.0268 0.9975
vn -0.0594 -0.0261 0.9979
vn -0.0605 -0.0269 0.9978
vn -0.0625 -0.0271 0.9977
vn -0.0662 -0.0278 0.9974
vn -0.0660 -0.0283 0.9974
vn -0.0664 -0.0281 0.9974
vn -0.0678 -0.0289 0.9973
vn -0.0683 -0.0287 0.9972
vn -0.0683 -0.0287 0.9973
vn -0.0680 -0.0290 0.9973
vn -0.0702 -0.0294 0.9971
vn -0.0657 -0.0280 0.9974
vn -0.0656 -0.0279 0.9975
vn -0.0645 -0.0270 0.9976
vn -0.0663 -0.0280 0.9974
vn -0.0660 -0.0278 0.9974
vn -0.0663 -0.0281 0.9974
vn -0.0649 -0.0270 0.9975
vn -0.0665 -0.0274 0.9974
vn -0.0685 -0.0282 0.9973
vn -0.0702 -0.0295 0.9971
vn -0.0701 -0.0295 0.9971
vn -0.0684 -0.0282 0.9973
vn -0.0703 -0.0286 0.9971
vn -0.0654 -0.0278 0.9975
vn -0.0658 -0.0274 0.9975
vn -0.0654 -0.0274 0.9975
vn -0.0659 -0.0274 0.9974
vn -0.0654 -0.0277 0.9975
vn -0.0657 -0.0281 0.9974
vn -0.0679 -0.0282 0.9973
vn -0.0698 -0.0286 0.9971
vn -0.0677 -0.0287 0.9973
vn -0.0655 -0.0273 0.9975
vn -0.0664 -0.0275 0.9974
vn -0.0649 -0.0271 0.9975
vn -0.0684 -0.0281 0.9973
vn -0.0702 -0.0287 0.9971
vn -0.0702 -0.0286 0.9971
vn -0.0594 -0.0264 0.9979
vn -0.0591 -0.0257 0.9979
vn -0.0595 -0.0261 0.9979
vn -0.0592 -0.0258 0.9979
vn -0.0593 -0.0260 0.9979
vn -0.0593 -0.0259 0.9979
vn -0.0591 -0.0258 0.9979
vn -0.0597 -0.0261 0.9979
vn -0.0603 -0.0263 0.9978
vn -0.0600 -0.0259 0.9979
vn -0.0596 -0.0265 0.9979
vn -0.0598 -0.0263 0.9979
vn -0.0598 -0.0258 0.9979
vn -0.0593 -0.0257 0.9979
vn -0.0594 -0.0257 0.9979
vn -0.0590 -0.0258 0.9979
vn -0.0595 -0.0257 0.9979
vn -0.0595 -0.0262 0.9979
vn -0.0594 -0.0263 0.9979
vn -0.0591 -0.0262 0.9979
vn -0.0595 -0.0263 0.9979
vn -0.0593 -0.0262 0.9979
vn -0.0589 -0.0261 0.9979
vn -0.0589 -0.0257 0.9979
vn -0.0586 -0.0260 0.9979
vn -0.0584 -0.0260 0.9980
vn -0.0588 -0.0258 0.9979
vn -0.0590 -0.0259 0.9979
vn -0.0588 -0.0260 0.9979
vn -0.0587 -0.0261 0.9979
vn -0.0594 -0.0260 0.9979
vn -0.0598 -0.0259 0.9979
vn -0.0590 -0.0262 0.9979
vn -0.0590 -0.0260 0.9979
vn -0.0586 -0.0259 0.9979
vn -0.0596 -0.0262 0.9979
vn -0.1565 -0.0257 0.9874
vn -0.1566 -0.0259 0.9873
vn -0.1561 -0.0258 0.9874
vn -0.1565 -0.0258 0.9873
vn -0.1598 -0.0256 0.9868
vn -0.1553 -0.0257 0.9875
vn -0.1554 -0.0261 0.9875
vn -0.1541 -0.0263 0.9877
vn -0.1540 -0.0256 0.9877
vn -0.1551 -0.0254 0.9876
vn -0.1518 -0.0268 0.9880
vn -0.1516 -0.0260 0.9881
vn -0.1477 -0.0275 0.9886
vn -0.1493 -0.0263 0.9884
vn -0.1556 -0.0265 0.9875
vn -0.1544 -0.0265 0.9876
vn -0.1521 -0.0268 0.9880
vn -0.1480 -0.0278 0.9886
vn -0.1557 -0.0261 0.9875
vn -0.1557 -0.0256 0.9875
vn -0.1543 -0.0256 0.9877
vn -0.1544 -0.0261 0.9877
vn -0.1520 -0.0259 0.9880
vn -0.1521 -0.0265 0.9880
vn -0.1483 -0.0266 0.9886
vn -0.1482 -0.0275 0.9886
vn -0.1555 -0.0254 0.9875
vn -0.1552 -0.0255 0.9876
vn -0.1544 -0.0255 0.9877
vn -0.1517 -0.0260 0.9881
vn -0.1521 -0.0259 0.9880
vn -0.1493 -0.0264 0.9884
vn -0.1555 -0.0265 0.9875
vn -0.1559 -0.0258 0.9874
vn -0.1544 -0.0265 0.9877
vn -0.1480 -0.0277 0.9886
vn -0.1479 -0.0278 0.9886
vn -0.1477 -0.0281 0.9886
vn -0.1476 -0.0278 0.9887
vn -0.1456 -0.0288 0.9889
vn -0.1452 -0.0285 0.9890
vn -0.1429 -0.0292 0.9893
vn -0.1483 -0.0276 0.9886
vn -0.1481 -0.0277 0.9886
vn -0.1457 -0.0284 0.9889
vn -0.1493 -0.0268 0.9884
vn -0.1480 -0.0276 0.9886
vn -0.1474 -0.0272 0.9887
vn -0.1452 -0.0284 0.9890
vn -0.1449 -0.0279 0.9891
vn -0.1428 -0.0284 0.9893
vn -0.1485 -0.0270 0.9885
vn -0.1478 -0.0271 0.9886
vn -0.1481 -0.0278 0.9886
vn -0.1454 -0.0279 0.9890
vn -0.1456 -0.0284 0.9889
vn -0.1432 -0.0284 0.9893
vn -0.1433 -0.0293 0.9892
vn -0.1483 -0.0271 0.9886
vn -0.1479 -0.0272 0.9886
vn -0.1450 -0.0280 0.9890
vn -0.1557 -0.0260 0.9875
vn -0.1559 -0.0254 0.9874
vn -0.1559 -0.0255 0.9874
vn -0.1557 -0.0258 0.9875
vn -0.1559 -0.0249 0.9875
vn -0.1557 -0.0257 0.9875
vn -0.1559 -0.0257 0.9874
vn -0.1558 -0.0247 0.9875
vn -0.1554 -0.0259 0.9875
vn -0.1548 -0.0259 0.9876
vn -0.1546 -0.0255 0.9876
vn -0.1555 -0.0261 0.9875
vn -0.1553 -0.0260 0.9875
vn -0.1555 -0.0256 0.9875
vn -0.1553 -0.0255 0.9875
vn -0.1560 -0.0255 0.9874
vn -0.1555 -0.0255 0.9875
vn -0.1558 -0.0254 0.9875
vn -0.1556 -0.0259 0.9875
vn -0.1561 -0.0255 0.9874
vn -0.1557 -0.0254 0.9875
vn -0.1558 -0.0255 0.9875
vn -0.1556 -0.0254 0.9875
vn -0.1557 -0.0255 0.9875
vn -0.1560 -0.0258 0.9874
vn -0.1562 -0.0257 0.9874
vn -0.1558 -0.0259 0.9875
vn -0.1562 -0.0258 0.9874
vn -0.1566 -0.0257 0.9873
vn -0.1564 -0.0255 0.9874
vn -0.1567 -0.0258 0.9873
vn -0.1565 -0.0256 0.9874
vn -0.1565 -0.0257 0.9873
vn -0.1562 -0.0256 0.9874
vn -0.1566 -0.0258 0.9873
vn -0.1563 -0.0256 0.9874
vn -0.1556 -0.0258 0.9875
vn -0.1564 -0.0259 0.9874
vn -0.1562 -0.0259 0.9874
vn -0.1566 -0.0255 0.9873
vn -0.1555 -0.0259 0.9875
vn -0.1479 -0.0242 0.9887
vn -0.1477 -0.0242 0.9887
vn -0.1482 -0.0242 0.9887
vn -0.1478 -0.0244 0.9887
vn -0.1499 -0.0247 0.9884
vn -0.1473 -0.0243 0.9888
vn -0.1463 -0.0250 0.9889
vn -0.1470 -0.0248 0.9888
vn -0.1470 -0.0241 0.9888
vn -0.1462 -0.0243 0.9890
vn -0.1447 -0.0255 0.9892
vn -0.1445 -0.0247 0.9892
vn -0.1418 -0.0266 0.9895
vn -0.1417 -0.0265 0.9896
vn -0.1446 -0.0247 0.9892
vn -0.1429 -0.0252 0.9894
vn -0.1465 -0.0252 0.9889
vn -0.1472 -0.0250 0.9888
vn -0.1449 -0.0255 0.9891
vn -0.1420 -0.0268 0.9895
vn -0.1474 -0.0247 0.9888
vn -0.1466 -0.0243 0.9889
vn -0.1475 -0.0243 0.9888
vn -0.1467 -0.0249 0.9889
vn -0.1451 -0.0247 0.9891
vn -0.1452 -0.0252 0.9891
vn -0.1424 -0.0255 0.9895
vn -0.1424 -0.0256 0.9895
vn -0.1423 -0.0265 0.9895
vn -0.1473 -0.0241 0.9888
vn -0.1461 -0.0242 0.9890
vn -0.1466 -0.0242 0.9889
vn -0.1428 -0.0251 0.9894
vn -0.1428 -0.0252 0.9894
vn -0.1450 -0.0247 0.9891
vn -0.1473 -0.0250 0.9888
vn -0.1471 -0.0242 0.9888
vn -0.1465 -0.0251 0.9889
vn -0.1449 -0.0256 0.9891
vn -0.1421 -0.0267 0.9895
vn -0.1419 -0.0264 0.9895
vn -0.1418 -0.0271 0.9895
vn -0.1420 -0.0267 0.9895
vn -0.1419 -0.0265 0.9895
vn -0.1402 -0.0277 0.9897
vn -0.1399 -0.0274 0.9898
vn -0.1382 -0.0283 0.9900
vn -0.1422 -0.0266 0.9895
vn -0.1424 -0.0264 0.9895
vn -0.1405 -0.0274 0.9897
vn -0.1388 -0.0284 0.9899
vn -0.1387 -0.0283 0.9899
vn -0.1429 -0.0255 0.9894
vn -0.1422 -0.0267 0.9895
vn -0.1421 -0.0263 0.9895
vn -0.1417 -0.0267 0.9896
vn -0.1428 -0.0256 0.9894
vn -0.1416 -0.0260 0.9896
vn -0.1397 -0.0269 0.9898
vn -0.1382 -0.0281 0.9900
vn -0.1398 -0.0269 0.9898
vn -0.1383 -0.0275 0.9900
vn -0.1425 -0.0265 0.9894
vn -0.1424 -0.0261 0.9895
vn -0.1426 -0.0260 0.9894
vn -0.1421 -0.0260 0.9895
vn -0.1404 -0.0269 0.9897
vn -0.1387 -0.0275 0.9900
vn -0.1386 -0.0275 0.9900
vn -0.1388 -0.0283 0.9899
vn -0.1424 -0.0260 0.9895
vn -0.1414 -0.0261 0.9896
vn -0.1429 -0.0256 0.9894
vn -0.1415 -0.0260 0.9896
vn -0.1423 -0.0260 0.9895
vn -0.1420 -0.0261 0.9895
vn -0.1403 -0.0269 0.9897
vn -0.1381 -0.0275 0.9900
vn -0.1387 -0.0274 0.9900
vn -0.1467 -0.0241 0.9889
vn -0.1470 -0.0242 0.9888
vn -0.1477 -0.0246 0.9887
vn -0.1476 -0.0246 0.9887
vn -0.1474 -0.0243 0.9888
vn -0.1474 -0.0248 0.9888
vn -0.1471 -0.0246 0.9888
vn -0.1454 -0.0247 0.9891
vn -0.1444 -0.0239 0.9892
vn -0.1460 -0.0245 0.9890
vn -0.1472 -0.0248 0.9888
vn -0.1476 -0.0247 0.9887
vn -0.1474 -0.0242 0.9888
vn -0.1476 -0.0242 0.9888
vn -0.1473 -0.0242 0.9888
vn -0.1475 -0.0242 0.9888
vn -0.1477 -0.0245 0.9887
vn -0.1478 -0.0241 0.9887
vn -0.1478 -0.0242 0.9887
vn -0.1476 -0.0242 0.9887
vn -0.1475 -0.0241 0.9888
vn -0.1476 -0.0245 0.9888
vn -0.1474 -0.0246 0.9888
vn -0.1477 -0.0244 0.9887
vn -0.1476 -0.0245 0.9887
vn -0.1477 -0.0243 0.9887
vn -0.1479 -0.0243 0.9887
vn -0.1480 -0.0242 0.9887
vn -0.1481 -0.0244 0.9887
vn -0.1475 -0.0244 0.9888
vn -0.1480 -0.0243 0.9887
vn -0.1479 -0.0244 0.9887
vt 0.000000 0.000000
vt 0.162700 0.492700
vt 0.000000 0.492700
vt 0.330100 0.000000
vt 0.338500 0.492700
vt 0.330100 0.492700
vt 0.347200 0.000000
vt 0.355900 0.492700
vt 0.347200 0.492700
vt 0.364800 0.000000
vt 0.371600 0.492700
vt 0.364800 0.492700
vt 0.378600 0.000000
vt 0.386000 0.492700
vt 0.378600 0.492700
vt 0.393700 0.000000
vt 0.401900 0.492700
vt 0.393700 0.492700
vt 0.410300 0.000000
vt 0.431600 0.492700
vt 0.410300 0.492700
vt 0.453400 0.000000
vt 0.476100 0.492700
vt 0.453400 0.492700
vt 0.499400 0.000000
vt 0.522100 0.492700
vt 0.499400 0.492700
vt 0.545400 0.000000
vt 0.566600 0.492700
vt 0.545400 0.492700
vt 0.588500 0.000000
vt 0.596700 0.492700
vt 0.588500 0.492700
vt 0.605100 0.000000
vt 0.613300 0.492700
vt 0.605100 0.492700
vt 0.621600 0.000000
vt 0.628400 0.492700
vt 0.621600 0.492700
vt 0.635300 0.000000
vt 0.644000 0.492700
vt 0.635300 0.492700
vt 0.653000 0.000000
vt 0.661300 0.492700
vt 0.653000 0.492700
vt 0.670000 0.000000
vt 0.832600 0.492700
vt 0.670000 0.492700
vt 1.000000 0.492700
vt 1.000000 0.000000
vt 0.000000 1.000000
vt 0.330100 1.000000
vt 0.347200 1.000000
vt 0.364800 1.000000
vt 0.378600 1.000000
vt 0.393700 1.000000
vt 0.410300 1.000000
vt 0.453400 1.000000
vt 0.499400 1.000000
vt 0.545400 1.000000
vt 0.588500 1.000000
vt 0.605100 1.000000
vt 0.621600 1.000000
vt 0.635300 1.000000
vt 0.653000 1.000000
vt 0.670000 1.000000
vt 1.000000 1.000000
vt 0.999500 0.377400
vt 0.000500 0.377400
vt 0.000500 0.186600
vt 1.103500 0.010200
vt 1.114400 0.186600
vt 1.116100 0.377400
vt -0.116100 0.377400
vt -0.114400 0.186600
vt 0.154800 0.323400
vt 0.159800 0.513500
vt 0.442300 0.359300
vt 0.447400 0.534000
vt 0.871600 0.339400
vt 0.876900 0.620200
vt -0.103500 0.010200
vt 0.153100 0.144300
vt 0.439200 0.188700
vt 0.882500 0.163000
vt 0.840200 0.513500
vt 0.845200 0.323400
vt 0.552600 0.534000
vt 0.557700 0.359300
vt 0.123100 0.620200
vt 0.128400 0.339400
vt -0.116100 0.999500
vt -0.116100 0.000500
vt 0.159800 0.000500
vt 0.159800 0.999500
vt 0.447400 0.000500
vt 0.447400 0.999500
vt 0.876900 0.000500
vt 0.876900 0.999500
vt 0.500000 0.010200
vt 0.846900 0.144300
vt 0.560800 0.188700
vt 0.117500 0.163000
vt -0.289200 0.000500
vt -0.280100 0.500000
vt -0.242600 0.500000
vt -0.251700 0.000500
vt -0.001900 0.500000
vt -0.011000 0.000500
vt 0.182900 0.500000
vt 0.173700 0.000500
vt -0.289200 0.999500
vt -0.251700 0.999500
vt -0.011000 0.999500
vt 0.173700 0.999500
vt 0.002300 0.761200
vt 0.005000 0.655700
vt 0.029200 0.609000
vt 0.022800 0.803900
vt 0.177800 0.642500
vt 0.167100 0.809900
vt 0.292800 0.651500
vt 0.284900 0.907800
vt 1.000400 0.564700
vt 1.001300 0.787400
vt 0.980800 0.882600
vt 0.976200 0.518000
vt 0.834600 0.888500
vt 0.833800 0.879800
vt 0.826700 0.563900
vt 0.719500 0.895100
vt 0.710800 0.564100
vt 0.001400 0.999500
vt 0.004100 0.288600
vt 0.024600 0.288600
vt 0.021900 0.999500
vt 0.173400 0.009200
vt 0.167100 0.982000
vt 0.285800 0.035000
vt 0.284100 0.985100
vt 0.500000 0.500000
s 1
usemtl 3d66_Standardmaterial_17342430_101
f 169/68/92 170/69/93 171/70/94
f 172/71/94 173/72/95 169/73/92
f 174/74/96 175/75/97 176/76/98
f 176/76/98 177/77/99 178/74/100
f 177/77/99 176/76/98 179/78/101
f 179/78/101 180/79/102 177/77/99
f 180/79/102 179/78/101 181/80/103
f 181/80/103 182/81/104 180/79/102
f 175/75/97 183/82/105 184/83/106
f 184/83/106 176/76/98 175/75/97
f 176/76/98 184/83/106 185/84/107
f 185/84/107 179/78/101 176/76/98
f 179/78/101 185/84/107 186/85/108
f 186/85/108 181/80/103 179/78/101
f 187/72/109 188/73/110 189/86/111
f 189/86/111 190/87/112 187/72/109
f 190/87/112 189/86/111 191/88/113
f 191/88/113 192/89/114 190/87/112
f 192/89/114 191/88/113 193/90/115
f 193/90/115 194/91/116 192/89/114
f 195/92/117 178/93/118 177/94/119
f 177/94/119 189/95/120 195/92/117
f 189/95/120 177/94/119 180/96/102
f 180/96/102 191/97/113 189/95/120
f 191/97/113 180/96/102 182/98/104
f 182/98/104 193/99/121 191/97/113
f 183/71/122 187/72/109 190/87/112
f 171/70/94 196/100/123 169/68/92
f 190/87/112 184/101/124 183/71/122
f 184/101/124 190/87/112 192/89/114
f 192/89/114 185/102/125 184/101/124
f 185/102/125 192/89/114 194/91/126
f 194/91/126 186/103/127 185/102/125
f 187/70/157 215/69/158 216/69/159
f 215/69/158 187/70/157 217/70/160
f 216/69/161 218/68/162 219/68/163
f 218/68/162 216/69/161 215/69/164
f 174/73/96 220/72/165 175/72/97
f 220/72/166 219/73/167 218/73/168
f 175/72/97 221/71/169 183/71/105
f 222/71/170 175/72/97 220/72/165
f 183/100/105 217/70/160 187/70/157
f 217/70/160 183/100/105 221/100/169
f 174/74/96 178/141/100 219/141/164
f 195/73/171 188/141/110 216/141/172
f 188/141/110 195/73/171 189/86/111
f 187/72/109 216/141/172 188/141/110
f 176/76/98 178/141/100 174/74/96
f 178/141/118 195/73/117 219/141/171
f 216/141/172 219/141/171 195/73/117
f 220/72/165 174/74/96 219/141/164
f 217/70/173 223/69/174 215/69/175
f 215/69/164 225/68/176 218/68/177
f 225/68/176 215/69/164 223/69/178
f 218/73/164 226/72/94 220/72/179
f 226/72/94 218/73/164 225/73/172
f 220/72/179 227/71/180 222/71/181
f 227/71/180 220/72/179 226/72/94
f 228/100/170 224/70/180 217/70/179
f 224/70/180 228/100/170 229/100/182
f 224/70/180 170/69/92 230/69/183
f 170/69/92 224/70/180 171/70/184
f 230/69/183 169/68/92 231/68/185
f 169/68/92 230/69/183 170/69/186
f 173/72/187 231/73/188 169/73/176
f 226/72/94 172/71/189 227/71/180
f 172/71/189 226/72/94 173/72/190
f 229/100/182 171/70/184 224/70/180
f 171/70/184 229/100/182 196/100/189
f 226/68/187 225/141/191 231/141/188
f 223/69/174 224/141/180 230/141/192
f 217/70/173 224/141/180 223/69/174
f 225/141/176 223/69/178 231/141/185
f 230/141/183 231/141/185 223/69/178
f 173/72/187 226/68/187 231/141/188
f 221/71/169 222/141/170 228/141/170
f 217/70/160 221/71/169 228/141/170
f 169/68/92 196/141/123 172/71/94
f 175/75/97 222/141/170 221/71/169
f 222/141/181 227/141/180 228/141/170
f 229/71/182 228/141/170 227/141/180
f 227/141/180 172/71/189 229/71/182
f 196/141/189 229/71/182 172/71/189
f 232/68/193 233/70/194 234/69/195
f 235/71/196 232/73/193 236/72/197
f 237/74/198 238/76/199 239/75/200
f 238/76/199 240/74/201 241/77/202
f 241/77/202 242/78/203 238/76/199
f 242/78/203 241/77/202 243/79/204
f 243/79/204 244/80/205 242/78/203
f 244/80/205 243/79/204 245/81/206
f 239/75/200 246/83/207 247/82/208
f 246/83/207 239/75/200 238/76/199
f 238/76/199 248/84/209 246/83/207
f 248/84/209 238/76/199 242/78/203
f 242/78/203 249/85/210 248/84/209
f 249/85/211 242/78/203 244/80/205
f 250/72/212 251/86/213 252/73/214
f 251/86/213 250/72/212 253/87/215
f 253/87/215 254/88/216 251/86/213
f 254/88/216 253/87/215 255/89/217
f 255/89/217 256/90/218 254/88/216
f 256/90/219 255/89/217 257/91/220
f 258/92/221 241/94/222 240/93/223
f 241/94/222 258/92/221 251/95/213
f 251/95/213 243/96/224 241/94/222
f 243/96/224 251/95/213 254/97/225
f 254/97/225 245/98/226 243/96/224
f 245/98/206 254/97/225 256/99/227
f 247/71/208 253/87/215 250/72/212
f 233/70/194 232/68/193 259/100/228
f 253/87/215 247/71/208 246/101/229
f 246/101/229 255/89/217 253/87/215
f 255/89/217 246/101/229 248/102/230
f 248/102/230 257/91/220 255/89/217
f 257/91/220 248/102/230 249/103/210
f 250/70/267 279/69/268 280/69/268
f 280/69/268 281/70/269 250/70/267
f 279/69/270 282/68/271 283/68/272
f 283/68/272 280/69/273 279/69/270
f 237/73/198 239/72/200 284/72/274
f 284/72/275 283/73/276 282/73/213
f 239/72/200 247/71/208 285/71/277
f 286/71/278 284/72/274 239/72/200
f 247/100/208 250/70/267 281/70/269
f 281/70/269 285/100/277 247/100/208
f 237/74/198 282/141/279 240/141/201
f 258/73/221 279/141/273 252/141/214
f 252/141/214 251/86/213 258/73/221
f 250/72/212 252/141/214 279/141/273
f 238/76/199 237/74/198 240/141/201
f 240/141/223 282/141/101 258/73/221
f 279/141/280 258/73/221 282/141/101
f 284/72/274 282/141/279 237/74/198
f 281/70/228 280/69/281 287/69/282
f 280/69/281 283/68/283 289/68/270
f 289/68/270 287/69/282 280/69/281
f 283/73/125 284/72/284 290/72/271
f 290/72/271 289/73/279 283/73/125
f 284/72/284 286/71/285 291/71/286
f 291/71/286 290/72/271 284/72/284
f 292/100/287 281/70/288 288/70/193
f 288/70/193 293/100/289 292/100/287
f 288/70/193 294/69/290 234/69/291
f 234/69/291 233/70/292 288/70/193
f 294/69/293 295/68/294 232/68/295
f 232/68/295 234/69/296 294/69/293
f 236/72/297 232/73/298 295/73/282
f 290/72/271 291/71/286 235/71/196
f 235/71/196 236/72/299 290/72/271
f 293/100/289 288/70/193 233/70/292
f 233/70/292 259/100/296 293/100/289
f 290/68/300 295/141/282 289/141/270
f 287/69/282 294/141/301 288/141/295
f 281/70/228 287/69/282 288/141/295
f 289/141/270 295/141/294 287/69/282
f 294/141/293 287/69/282 295/141/294
f 236/72/297 295/141/282 290/68/300
f 285/71/277 292/141/302 286/141/278
f 281/70/269 292/141/302 285/71/277
f 232/68/193 235/71/196 259/141/228
f 239/75/200 285/71/277 286/141/278
f 286/141/285 292/141/287 291/141/286
f 293/71/289 291/141/286 292/141/287
f 291/141/286 293/71/289 235/71/196
f 259/141/296 235/71/196 293/71/289
f 296/68/303 297/69/304 298/70/305
f 299/71/306 300/72/307 296/73/303
f 301/74/308 302/75/309 303/76/310
f 303/76/310 304/77/311 305/74/312
f 304/77/311 303/76/310 306/78/313
f 306/78/313 307/79/314 304/77/311
f 307/79/314 306/78/313 308/80/315
f 308/80/315 309/81/316 307/79/314
f 302/75/309 310/82/317 311/83/318
f 311/83/318 303/76/310 302/75/309
f 303/76/310 311/83/318 312/84/319
f 312/84/319 306/78/313 303/76/310
f 306/78/313 312/84/319 313/85/320
f 313/85/320 308/80/315 306/78/313
f 314/72/321 315/73/322 316/86/323
f 316/86/323 317/87/324 314/72/321
f 317/87/324 316/86/323 318/88/325
f 318/88/325 319/89/326 317/87/324
f 319/89/326 318/88/325 320/90/327
f 320/90/327 321/91/328 319/89/326
f 322/92/329 305/93/330 304/94/311
f 304/94/311 316/95/331 322/92/329
f 316/95/331 304/94/311 307/96/332
f 307/96/332 318/97/333 316/95/331
f 318/97/333 307/96/332 309/98/334
f 309/98/334 320/99/327 318/97/333
f 310/71/335 314/72/321 317/87/324
f 298/70/305 323/100/336 296/68/303
f 317/87/324 311/101/337 310/71/335
f 311/101/337 317/87/324 319/89/326
f 319/89/326 312/102/319 311/101/337
f 312/102/319 319/89/326 321/91/328
f 321/91/328 313/103/338 312/102/319
f 314/70/364 342/69/365 343/69/366
f 342/69/365 314/70/364 344/70/367
f 343/69/368 345/68/369 346/68/370
f 345/68/369 343/69/368 342/69/371
f 301/73/308 347/72/372 302/72/309
f 347/72/373 346/73/374 345/73/330
f 302/72/309 348/71/375 310/71/317
f 349/71/376 302/72/309 347/72/372
f 310/100/317 344/70/367 314/70/364
f 344/70/367 310/100/317 348/100/375
f 301/74/308 305/141/312 346/141/377
f 322/73/378 315/141/322 343/141/379
f 315/141/322 322/73/378 316/86/323
f 314/72/321 343/141/379 315/141/322
f 303/76/310 305/141/312 301/74/308
f 305/141/330 322/73/329 346/141/380
f 343/141/381 346/141/380 322/73/329
f 347/72/372 301/74/308 346/141/377
f 344/70/382 350/69/383 342/69/384
f 342/69/385 352/68/379 345/68/386
f 352/68/379 342/69/385 350/69/383
f 345/73/387 353/72/388 347/72/382
f 353/72/388 345/73/387 352/73/380
f 347/72/382 354/71/388 349/71/364
f 354/71/388 347/72/382 353/72/388
f 355/100/364 351/70/389 344/70/390
f 351/70/389 355/100/364 356/100/391
f 351/70/389 297/69/392 357/69/393
f 297/69/392 351/70/389 298/70/394
f 357/69/395 296/68/396 358/68/397
f 296/68/396 357/69/395 297/69/398
f 300/72/388 358/73/399 296/73/400
f 353/72/388 299/71/401 354/71/388
f 299/71/401 353/72/388 300/72/402
f 356/100/391 298/70/394 351/70/389
f 298/70/394 356/100/391 323/100/304
f 353/68/391 352/141/383 358/141/399
f 350/69/383 351/141/399 357/141/403
f 344/70/382 351/141/399 350/69/383
f 352/141/379 350/69/383 358/141/397
f 357/141/395 358/141/397 350/69/383
f 300/72/388 353/68/391 358/141/399
f 348/71/375 349/141/376 355/141/404
f 344/70/367 348/71/375 355/141/404
f 296/68/303 323/141/336 299/71/306
f 302/75/309 349/141/376 348/71/375
f 349/141/364 354/141/388 355/141/364
f 356/71/391 355/141/364 354/141/388
f 354/141/388 299/71/401 356/71/391
f 323/141/304 356/71/391 299/71/401
f 359/68/405 360/70/406 361/69/407
f 362/71/408 359/73/405 363/72/409
f 364/74/410 365/76/411 366/75/412
f 365/76/411 367/74/413 368/77/414
f 368/77/414 369/78/415 365/76/411
f 369/78/415 368/77/414 370/79/416
f 370/79/416 371/80/417 369/78/415
f 371/80/418 370/79/419 372/81/420
f 366/75/412 373/83/421 374/82/422
f 373/83/421 366/75/412 365/76/411
f 365/76/411 375/84/423 373/83/421
f 375/84/423 365/76/411 369/78/415
f 369/78/415 376/85/424 375/84/423
f 376/85/424 369/78/415 371/80/417
f 377/72/425 378/86/426 379/73/427
f 378/86/426 377/72/425 380/87/428
f 380/87/428 381/88/429 378/86/426
f 381/88/429 380/87/428 382/89/430
f 382/89/430 383/90/431 381/88/429
f 383/90/432 382/89/430 384/91/433
f 385/92/434 368/94/435 367/93/413
f 368/94/435 385/92/434 378/95/436
f 378/95/436 370/96/419 368/94/435
f 370/96/419 378/95/436 381/97/429
f 381/97/429 372/98/437 370/96/419
f 372/98/438 381/97/439 383/99/432
f 374/71/440 380/87/428 377/72/425
f 360/70/406 359/68/405 386/100/441
f 380/87/428 374/71/440 373/101/442
f 373/101/442 382/89/430 380/87/428
f 382/89/430 373/101/442 375/102/443
f 375/102/443 384/91/433 382/89/430
f 384/91/433 375/102/443 376/103/444
f 377/70/425 404/69/484 405/69/485
f 405/69/485 406/70/486 377/70/425
f 404/69/487 407/68/410 408/68/488
f 408/68/488 405/69/489 404/69/487
f 364/73/410 366/72/412 409/72/490
f 409/72/491 408/73/492 407/73/493
f 366/72/412 374/71/422 410/71/494
f 411/71/495 409/72/490 366/72/412
f 374/100/422 377/70/425 406/70/486
f 406/70/486 410/100/494 374/100/422
f 364/74/410 407/141/496 367/141/413
f 385/73/496 404/141/497 379/141/427
f 379/141/427 378/86/426 385/73/496
f 377/72/425 379/141/427 404/141/497
f 365/76/411 364/74/410 367/141/413
f 367/141/413 407/141/498 385/73/434
f 404/141/499 385/73/434 407/141/498
f 409/72/490 407/141/496 364/74/410
f 406/70/500 405/69/501 412/69/502
f 405/69/503 408/68/498 414/68/497
f 414/68/497 412/69/502 405/69/503
f 408/73/504 409/72/505 415/72/408
f 415/72/408 414/73/499 408/73/504
f 409/72/505 411/71/506 416/71/507
f 416/71/507 415/72/408 409/72/505
f 417/100/425 406/70/508 413/70/509
f 413/70/509 418/100/500 417/100/425
f 413/70/509 419/69/510 361/69/511
f 361/69/511 360/70/511 413/70/509
f 419/69/405 420/68/502 359/68/511
f 359/68/511 361/69/512 419/69/405
f 363/72/507 359/73/513 420/73/511
f 415/72/408 416/71/507 362/71/512
f 362/71/512 363/72/514 415/72/408
f 418/100/500 413/70/509 360/70/511
f 360/70/511 386/100/512 418/100/500
f 415/68/515 420/141/511 414/141/406
f 412/69/502 419/141/510 413/141/507
f 406/70/500 412/69/502 413/141/507
f 414/141/497 420/141/502 412/69/502
f 419/141/405 412/69/502 420/141/502
f 363/72/507 420/141/511 415/68/515
f 410/71/494 417/141/489 411/141/495
f 406/70/486 417/141/489 410/71/494
f 359/68/405 362/71/408 386/141/441
f 366/75/412 410/71/494 411/141/495
f 411/141/506 417/141/425 416/141/507
f 418/71/500 416/141/507 417/141/425
f 416/141/507 418/71/500 362/71/512
f 386/141/512 362/71/512 418/71/500
usemtl 3d66_Standardmaterial_17342430_102
f 181/104/128 186/105/108 197/106/129
f 197/106/129 198/107/130 181/104/126
f 198/107/130 197/106/129 199/108/131
f 199/108/131 200/109/132 198/107/130
f 200/109/132 199/108/131 201/110/14
f 201/110/14 202/111/133 200/109/132
f 186/105/108 194/112/116 203/113/134
f 203/113/134 197/106/129 186/105/108
f 197/106/129 203/113/134 204/114/135
f 204/114/135 199/108/131 197/106/129
f 199/108/131 204/114/135 205/115/136
f 205/115/136 201/110/14 199/108/131
f 244/104/231 260/106/232 261/105/210
f 260/106/232 244/104/231 262/107/233
f 262/107/233 263/108/234 260/106/232
f 263/108/234 262/107/233 264/109/235
f 264/109/236 265/110/13 263/108/237
f 265/110/13 264/109/236 266/111/238
f 261/105/210 267/113/239 257/112/240
f 267/113/239 261/105/210 260/106/232
f 260/106/232 268/114/7 267/113/239
f 268/114/7 260/106/232 263/108/234
f 263/108/234 269/115/26 268/114/7
f 269/115/26 263/108/237 265/110/13
f 308/104/315 324/105/339 325/106/340
f 325/106/340 326/107/341 308/104/315
f 326/107/341 325/106/340 327/108/342
f 327/108/342 328/109/343 326/107/341
f 328/109/343 327/108/342 329/110/58
f 329/110/58 330/111/344 328/109/343
f 324/105/339 321/112/345 331/113/346
f 331/113/346 325/106/340 324/105/339
f 325/106/340 331/113/346 332/114/347
f 332/114/347 327/108/342 325/106/340
f 327/108/342 332/114/347 333/115/89
f 333/115/89 329/110/58 327/108/342
f 371/104/445 387/106/446 376/105/447
f 387/106/446 371/104/445 388/107/448
f 388/107/448 389/108/449 387/106/446
f 389/108/449 388/107/448 390/109/450
f 390/109/450 391/110/47 389/108/449
f 391/110/47 390/109/450 392/111/451
f 376/105/447 393/113/452 384/112/453
f 393/113/452 376/105/447 387/106/446
f 387/106/446 394/114/454 393/113/452
f 394/114/454 387/106/446 389/108/449
f 389/108/449 395/115/455 394/114/454
f 395/115/456 389/108/449 391/110/47
usemtl 3d66_Standardmaterial_17342430_103
f 206/116/137 181/117/138 207/118/139
f 207/118/139 208/119/140 206/116/137
f 208/119/140 207/118/139 200/120/141
f 200/120/142 209/121/143 208/119/144
f 209/121/143 200/120/142 202/122/133
f 202/122/133 210/123/145 209/121/143
f 194/124/126 211/125/146 212/126/147
f 212/126/147 203/127/127 194/124/126
f 203/127/127 212/126/147 213/128/148
f 213/129/148 204/130/149 203/127/127
f 204/130/149 213/129/148 214/131/150
f 214/131/150 205/132/23 204/130/149
f 211/133/151 206/134/152 208/135/153
f 208/135/153 212/136/154 211/133/151
f 212/136/154 208/135/153 209/137/143
f 209/137/143 213/138/155 212/136/154
f 213/138/155 209/137/143 210/139/145
f 210/139/145 214/140/156 213/138/155
f 270/116/241 271/118/242 244/117/243
f 271/118/244 270/116/245 272/119/246
f 272/119/246 264/120/236 271/118/244
f 264/120/236 272/119/246 273/121/247
f 273/121/247 266/122/248 264/120/236
f 266/122/249 273/121/250 274/123/251
f 257/124/252 275/126/253 276/125/254
f 275/126/255 257/124/256 267/127/257
f 267/127/257 277/128/258 275/126/255
f 277/129/258 267/127/257 268/130/8
f 268/130/8 278/131/259 277/129/258
f 278/131/259 268/130/260 269/132/26
f 276/133/261 272/135/262 270/134/263
f 272/135/262 276/133/261 275/136/253
f 275/136/253 273/137/264 272/135/262
f 273/137/264 275/136/253 277/138/258
f 277/138/258 274/139/265 273/137/264
f 274/139/266 277/138/258 278/140/259
f 334/116/348 308/117/349 326/118/341
f 326/118/341 335/119/350 334/116/348
f 335/119/350 326/118/341 328/120/351
f 328/120/351 336/121/352 335/119/350
f 336/121/352 328/120/351 330/122/81
f 330/122/81 337/123/353 336/121/352
f 321/124/345 338/125/354 339/126/355
f 339/126/355 331/127/356 321/124/345
f 331/127/356 339/126/355 340/128/357
f 340/129/357 332/130/358 331/127/356
f 332/130/358 340/129/357 341/131/359
f 341/131/359 333/132/360 332/130/358
f 338/133/361 334/134/348 335/135/350
f 335/135/350 339/136/362 338/133/361
f 339/136/362 335/135/350 336/137/363
f 336/137/363 340/138/357 339/136/362
f 340/138/357 336/137/363 337/139/353
f 337/139/353 341/140/359 340/138/357
f 396/116/457 388/118/458 371/117/459
f 388/118/460 396/116/461 397/119/462
f 397/119/462 390/120/450 388/118/460
f 390/120/450 397/119/462 398/121/463
f 398/121/463 392/122/464 390/120/450
f 392/122/74 398/121/465 399/123/466
f 384/124/467 400/126/468 401/125/469
f 400/126/470 384/124/433 393/127/452
f 393/127/452 402/128/471 400/126/470
f 402/129/471 393/127/452 394/130/454
f 394/130/454 403/131/472 402/129/471
f 403/131/473 394/130/454 395/132/474
f 401/133/475 397/135/476 396/134/477
f 397/135/478 401/133/479 400/136/480
f 400/136/480 398/137/465 397/135/478
f 398/137/465 400/136/480 402/138/481
f 402/138/481 399/139/482 398/137/465
f 399/139/482 402/138/481 403/140/483
usemtl 3d66_Standardmaterial_17342430_104
f 1/1/1 2/2/2 3/3/3
f 4/4/4 5/5/5 6/6/6
f 7/7/7 8/8/6 9/9/5
f 10/10/8 11/11/5 12/12/9
f 13/13/10 14/14/11 15/15/12
f 16/16/7 17/17/6 18/18/6
f 19/19/7 20/20/13 21/21/6
f 22/22/14 23/23/15 24/24/16
f 25/25/17 26/26/18 27/27/15
f 28/28/19 29/29/18 30/30/15
f 31/31/20 32/32/21 33/33/22
f 34/34/23 35/35/21 36/36/24
f 37/37/20 38/38/21 39/39/21
f 40/40/20 41/41/25 42/42/26
f 43/43/20 44/44/25 45/45/25
f 46/46/27 47/47/28 48/48/25
f 2/2/2 1/1/1 6/6/29
f 6/6/29 1/1/1 4/4/4
f 5/5/5 4/4/4 9/9/5
f 9/9/5 4/4/4 7/7/7
f 8/8/6 7/7/7 12/12/9
f 12/12/9 7/7/7 10/10/8
f 11/11/5 10/10/8 15/15/12
f 15/15/12 10/10/8 13/13/10
f 14/14/11 13/13/10 18/18/6
f 18/18/6 13/13/10 16/16/7
f 17/17/6 16/16/7 21/21/6
f 21/21/6 16/16/7 19/19/7
f 20/20/13 19/19/7 24/24/16
f 24/24/16 19/19/7 22/22/14
f 23/23/15 22/22/14 27/27/30
f 27/27/30 22/22/14 25/25/31
f 26/26/18 25/25/17 30/30/15
f 30/30/15 25/25/17 28/28/19
f 29/29/18 28/28/19 33/33/22
f 33/33/22 28/28/19 31/31/20
f 32/32/21 31/31/20 36/36/24
f 36/36/24 31/31/20 34/34/23
f 35/35/21 34/34/23 39/39/21
f 39/39/21 34/34/23 37/37/20
f 38/38/21 37/37/20 42/42/26
f 42/42/26 37/37/20 40/40/20
f 41/41/25 40/40/20 45/45/25
f 45/45/25 40/40/20 43/43/32
f 44/44/25 43/43/20 48/48/21
f 48/48/21 43/43/20 46/46/27
f 47/47/28 46/46/27 49/49/33
f 49/49/33 46/46/27 50/50/34
f 51/1/35 52/51/36 53/52/37
f 53/52/37 54/4/38 51/1/35
f 54/4/39 53/52/40 55/53/41
f 55/53/42 56/7/38 54/4/39
f 56/7/7 55/53/43 57/54/42
f 57/54/43 58/10/38 56/7/14
f 58/10/38 57/54/43 59/55/44
f 59/55/44 60/13/20 58/10/38
f 60/13/20 59/55/44 61/56/43
f 61/56/43 62/16/38 60/13/20
f 62/16/38 61/56/43 63/57/45
f 63/57/45 64/19/14 62/16/38
f 64/19/14 63/57/45 65/58/46
f 65/58/46 66/22/31 64/19/14
f 66/22/31 65/58/46 67/59/47
f 67/59/45 68/25/31 66/22/31
f 68/25/48 67/59/49 69/60/50
f 69/60/47 70/28/14 68/25/17
f 70/28/14 69/60/47 71/61/44
f 71/61/44 72/31/38 70/28/14
f 72/31/38 71/61/44 73/62/40
f 73/62/40 74/34/31 72/31/38
f 74/34/31 73/62/40 75/63/43
f 75/63/43 76/37/38 74/34/31
f 76/37/38 75/63/43 77/64/45
f 77/64/45 78/40/7 76/37/38
f 78/40/7 77/64/45 79/65/44
f 79/65/51 80/43/39 78/40/39
f 80/43/38 79/65/47 81/66/42
f 81/66/42 82/46/38 80/43/7
f 82/46/39 81/66/52 83/67/53
f 83/67/53 84/50/1 82/46/39
f 85/1/54 86/51/55 87/52/56
f 87/52/56 88/4/57 85/1/54
f 88/4/58 87/52/6 89/53/12
f 89/53/12 90/7/58 88/4/58
f 90/7/59 89/53/5 91/54/5
f 91/54/56 92/10/60 90/7/57
f 92/10/60 91/54/56 93/55/12
f 93/55/12 94/13/58 92/10/60
f 94/13/58 93/55/12 95/56/9
f 95/56/9 96/16/61 94/13/58
f 96/16/61 95/56/9 97/57/56
f 97/57/56 98/19/62 96/16/61
f 98/19/62 97/57/56 99/58/13
f 99/58/13 100/22/60 98/19/62
f 100/22/60 99/58/13 101/59/13
f 101/59/15 102/25/60 100/22/60
f 102/25/60 101/59/13 103/60/12
f 103/60/9 104/28/60 102/25/60
f 104/28/60 103/60/9 105/61/9
f 105/61/9 106/31/58 104/28/60
f 106/31/58 105/61/9 107/62/13
f 107/62/13 108/34/57 106/31/58
f 108/34/57 107/62/13 109/63/6
f 109/63/6 110/37/58 108/34/57
f 110/37/58 109/63/6 111/64/5
f 111/64/5 112/40/58 110/37/58
f 112/40/58 111/64/5 113/65/6
f 113/65/12 114/43/58 112/40/63
f 114/43/57 113/65/56 115/66/5
f 115/66/64 116/46/59 114/43/57
f 116/46/57 115/66/5 117/67/3
f 117/67/3 118/50/54 116/46/57
f 119/1/65 120/2/66 121/3/67
f 122/4/61 123/5/68 124/6/43
f 125/7/69 126/8/52 127/9/70
f 128/10/71 129/11/52 130/12/52
f 131/13/69 132/14/68 133/15/43
f 134/16/72 135/17/73 136/18/74
f 137/19/69 138/20/68 139/21/73
f 140/22/69 141/23/73 142/24/75
f 143/25/58 144/26/76 145/27/47
f 146/28/60 147/29/76 148/30/47
f 149/31/77 150/32/78 151/33/76
f 152/34/79 153/35/42 154/36/80
f 155/37/81 156/38/41 157/39/82
f 158/40/83 159/41/44 160/42/84
f 161/43/57 162/44/76 163/45/42
f 164/46/59 165/47/85 166/48/84
f 120/2/66 119/1/65 124/6/52
f 124/6/52 119/1/65 122/4/86
f 123/5/68 122/4/61 127/9/68
f 127/9/68 122/4/61 125/7/87
f 126/8/52 125/7/69 130/12/52
f 130/12/52 125/7/69 128/10/71
f 129/11/52 128/10/71 133/15/43
f 133/15/43 128/10/71 131/13/69
f 132/14/68 131/13/69 136/18/74
f 136/18/74 131/13/69 134/16/72
f 135/17/73 134/16/72 139/21/73
f 139/21/73 134/16/72 137/19/69
f 138/20/68 137/19/69 142/24/75
f 142/24/75 137/19/69 140/22/69
f 141/23/73 140/22/69 145/27/50
f 145/27/50 140/22/69 143/25/88
f 144/26/76 143/25/58 148/30/47
f 148/30/47 143/25/58 146/28/60
f 147/29/76 146/28/60 151/33/76
f 151/33/76 146/28/60 149/31/77
f 150/32/78 149/31/77 154/36/80
f 154/36/80 149/31/77 152/34/79
f 153/35/42 152/34/79 157/39/82
f 157/39/82 152/34/79 155/37/81
f 156/38/41 155/37/81 160/42/84
f 160/42/84 155/37/81 158/40/83
f 159/41/44 158/40/83 163/45/37
f 163/45/37 158/40/83 161/43/77
f 162/44/76 161/43/57 166/48/43
f 166/48/43 161/43/57 164/46/89
f 165/47/85 164/46/59 167/49/90
f 167/49/90 164/46/59 168/50/91
