# Blender 4.3.2
# www.blender.org
mtllib 右鸱吻.mtl
o Obj3d66_17342430_11_252
v 2284.478027 1327.281128 -27841.611328
v 2281.125244 1332.439209 -27841.611328
v 2281.125244 1332.439209 -27823.992188
v 2284.478027 1327.281128 -27823.992188
v 2286.281738 1344.044800 -27841.611328
v 2286.281738 1344.044800 -27823.992188
v 2285.765381 1349.202759 -27841.611328
v 2285.765381 1349.202759 -27823.992188
v 2280.608887 1351.523804 -27841.611328
v 2280.608887 1351.523804 -27823.992188
v 2281.125244 1357.455566 -27841.611328
v 2281.125244 1357.455566 -27823.992188
v 2272.096191 1362.097778 -27841.611328
v 2272.096191 1362.097778 -27823.992188
v 2271.841553 1369.576782 -27841.611328
v 2271.841553 1369.576782 -27823.992188
v 2279.059814 1410.067261 -27841.611328
v 2279.059814 1410.067261 -27823.992188
v 2284.994385 1410.840820 -27841.611328
v 2284.994385 1410.840820 -27823.992188
v 2287.314453 1434.051880 -27841.611328
v 2287.314453 1434.051880 -27823.992188
v 2294.278320 1439.209839 -27841.611328
v 2294.278320 1439.209839 -27823.992188
v 2302.012695 1439.983643 -27841.611328
v 2302.012695 1439.983643 -27823.992188
v 2309.492920 1435.083496 -27841.611328
v 2309.492920 1435.083496 -27823.992188
v 2306.656494 1428.120239 -27841.611328
v 2306.656494 1428.120239 -27823.992188
v 2307.947510 1413.161987 -27841.611328
v 2307.947510 1413.161987 -27823.992188
v 2312.071045 1411.872437 -27841.611328
v 2312.071045 1411.872437 -27823.992188
v 2314.394775 1418.062134 -27841.611328
v 2314.394775 1418.062134 -27823.992188
v 2322.645752 1421.156860 -27841.611328
v 2322.645752 1421.156860 -27823.992188
v 2327.547607 1418.320068 -27841.611328
v 2327.547607 1418.320068 -27823.992188
v 2335.023926 1423.220093 -27841.611328
v 2335.023926 1423.220093 -27823.992188
v 2333.736816 1428.893921 -27841.611328
v 2333.736816 1428.893921 -27823.992188
v 2334.765869 1438.436157 -27841.611328
v 2334.765869 1438.436157 -27823.992188
v 2341.729492 1447.462646 -27841.611328
v 2341.729492 1447.462646 -27823.992188
v 2351.787842 1448.752197 -27841.611328
v 2351.787842 1448.752319 -27823.992188
v 2365.457031 1446.689087 -27841.611328
v 2365.457031 1446.689087 -27823.992188
v 2373.969971 1433.794067 -27841.611328
v 2373.969971 1433.794067 -27823.992188
v 2371.904297 1419.351685 -27841.611328
v 2371.904297 1419.351685 -27823.992188
v 2360.558838 1399.235352 -27841.611328
v 2360.558838 1399.235352 -27823.992188
v 2355.915039 1386.082397 -27841.611328
v 2355.915039 1386.082397 -27823.992188
v 2357.135986 1379.702148 -27841.611328
v 2357.135986 1379.702148 -27823.992188
v 2362.878906 1378.861206 -27841.611328
v 2362.878906 1378.861206 -27823.992188
v 2367.264404 1383.503418 -27841.611328
v 2367.264404 1383.503418 -27823.992188
v 2372.162598 1384.019287 -27841.611328
v 2372.162598 1384.019287 -27823.992188
v 2375.039551 1378.295898 -27841.611328
v 2375.039551 1378.295898 -27823.992188
v 2374.523193 1374.010620 -27841.611328
v 2374.523193 1374.010620 -27823.992188
v 2375.725586 1368.889160 -27841.611328
v 2375.725586 1368.889160 -27823.992188
v 2366.748047 1360.550415 -27841.611328
v 2366.748047 1360.550415 -27823.992188
v 2355.140625 1360.034546 -27841.611328
v 2355.140625 1360.034546 -27823.992188
v 2354.882324 1327.539185 -27841.611328
v 2354.882324 1327.539185 -27823.992188
vn -0.8384 -0.5450 -0.0000
vn -0.9138 0.4061 -0.0000
vn -0.9139 0.4060 -0.0000
vn -0.9139 0.4061 -0.0000
vn -0.9950 -0.0997 -0.0000
vn -0.9950 -0.0995 -0.0000
vn -0.9950 -0.0996 -0.0000
vn -0.4104 -0.9119 -0.0000
vn -0.4105 -0.9119 -0.0000
vn -0.9962 0.0867 -0.0000
vn -0.9962 0.0868 -0.0000
vn -0.4572 -0.8893 -0.0000
vn -0.4573 -0.8893 -0.0000
vn -0.4572 -0.8894 -0.0000
vn -0.9994 -0.0341 -0.0000
vn -0.9994 -0.0340 -0.0000
vn -0.9845 0.1755 -0.0000
vn -0.1292 0.9916 -0.0000
vn -0.9950 0.0995 -0.0000
vn -0.9950 0.0994 -0.0000
vn -0.5951 0.8036 -0.0000
vn -0.5953 0.8035 -0.0000
vn -0.5952 0.8035 -0.0000
vn -0.5951 0.8037 -0.0000
vn -0.0995 0.9950 -0.0000
vn 0.5479 0.8365 -0.0000
vn 0.5480 0.8365 -0.0000
vn 0.5482 0.8363 -0.0000
vn 0.9261 -0.3773 -0.0000
vn 0.9261 -0.3772 -0.0000
vn 0.9963 0.0860 -0.0000
vn 0.9963 0.0859 -0.0000
vn 0.2985 0.9544 -0.0000
vn 0.2986 0.9544 -0.0000
vn 0.2984 0.9544 -0.0000
vn -0.9362 0.3515 -0.0000
vn -0.9362 0.3516 -0.0000
vn -0.3511 0.9363 -0.0000
vn -0.3512 0.9363 -0.0000
vn 0.5009 0.8655 -0.0000
vn -0.5482 0.8363 -0.0000
vn -0.9752 -0.2215 -0.0000
vn -0.9752 -0.2212 -0.0000
vn -0.9942 0.1072 -0.0000
vn -0.9942 0.1071 -0.0000
vn -0.7917 0.6108 -0.0000
vn -0.1272 0.9919 -0.0000
vn -0.1271 0.9919 -0.0000
vn 0.1492 0.9888 -0.0000
vn 0.8345 0.5510 -0.0000
vn 0.8346 0.5509 -0.0000
vn 0.8345 0.5511 -0.0000
vn 0.9899 -0.1416 -0.0000
vn 0.9899 -0.1415 -0.0000
vn 0.8710 -0.4912 -0.0000
vn 0.8709 -0.4915 -0.0000
vn 0.8710 -0.4913 -0.0000
vn 0.9430 -0.3329 -0.0000
vn 0.9429 -0.3329 -0.0000
vn 0.9822 0.1879 -0.0000
vn 0.9822 0.1880 -0.0000
vn 0.1449 0.9895 -0.0000
vn 0.1449 0.9894 -0.0000
vn -0.7269 0.6868 -0.0000
vn -0.7270 0.6867 -0.0000
vn -0.7269 0.6867 -0.0000
vn -0.1047 0.9945 -0.0000
vn 0.8935 0.4491 -0.0000
vn 0.8935 0.4492 -0.0000
vn 0.9928 -0.1197 -0.0000
vn 0.9928 -0.1196 -0.0000
vn 0.9735 0.2286 -0.0000
vn 0.9735 0.2288 -0.0000
vn 0.9735 0.2285 -0.0000
vn 0.6806 -0.7327 -0.0000
vn 0.6805 -0.7327 -0.0000
vn 0.0444 -0.9990 -0.0000
vn 1.0000 -0.0079 -0.0000
vn 1.0000 -0.0080 -0.0000
vn 0.0037 -1.0000 -0.0000
vn -0.0000 -0.0000 -1.0000
vn 0.0001 -0.0000 -1.0000
vn -0.0001 -0.0000 -1.0000
vn 0.0002 -0.0000 -1.0000
vn -0.0002 -0.0000 -1.0000
vn -0.0000 -0.0000 1.0000
vn 0.0001 -0.0000 1.0000
vn -0.0002 -0.0000 1.0000
vn 0.0003 -0.0000 1.0000
vn -0.0001 -0.0000 1.0000
vt 0.903400 0.042900
vt 0.872100 0.000500
vt 0.855300 0.138400
vt 0.860100 0.180800
vt 0.908200 0.199900
vt 0.903400 0.248700
vt 0.987700 0.286800
vt 0.990100 0.348300
vt 0.922700 0.681300
vt 0.867300 0.687700
vt 0.845600 0.878600
vt 0.780600 0.921000
vt 0.708400 0.927400
vt 0.638600 0.887100
vt 0.665000 0.829800
vt 0.653000 0.706800
vt 0.614500 0.696200
vt 0.592800 0.747100
vt 0.515800 0.772600
vt 0.470000 0.749200
vt 0.400200 0.789500
vt 0.412200 0.836200
vt 0.402600 0.914700
vt 0.337600 0.988900
vt 0.243700 0.999500
vt 0.116100 0.982500
vt 0.036600 0.876500
vt 0.055900 0.757700
vt 0.161800 0.592300
vt 0.205100 0.484100
vt 0.193700 0.431600
vt 0.140100 0.424700
vt 0.099200 0.462900
vt 0.053400 0.467100
vt 0.026600 0.420100
vt 0.031400 0.384800
vt 0.020200 0.342700
vt 0.104000 0.274100
vt 0.212400 0.269900
vt 0.214800 0.002600
s 1
usemtl 3d66_Standardmaterial_17342430_086
f 3/1/1 2/1/1 1/2/1
f 4/2/1 3/1/1 1/2/1
f 6/3/2 5/3/3 2/1/4
f 3/1/2 6/3/2 2/1/4
f 8/4/5 7/4/6 5/3/7
f 6/3/5 8/4/5 5/3/7
f 10/5/8 9/5/9 7/4/9
f 8/4/8 10/5/8 7/4/9
f 12/6/10 11/6/10 9/5/10
f 10/5/11 12/6/10 9/5/10
f 14/7/12 13/7/13 11/6/12
f 12/6/14 14/7/12 11/6/12
f 16/8/15 15/8/16 13/7/16
f 14/7/15 16/8/15 13/7/16
f 18/9/17 17/9/17 15/8/17
f 16/8/17 18/9/17 15/8/17
f 20/10/18 19/10/18 17/9/18
f 18/9/18 20/10/18 17/9/18
f 22/11/19 21/11/19 19/10/19
f 20/10/20 22/11/19 19/10/19
f 24/12/21 23/12/22 21/11/23
f 22/11/24 24/12/21 21/11/23
f 26/13/25 25/13/25 23/12/25
f 24/12/25 26/13/25 23/12/25
f 28/14/26 27/14/27 25/13/27
f 26/13/28 28/14/26 25/13/27
f 30/15/29 29/15/30 27/14/30
f 28/14/29 30/15/29 27/14/30
f 32/16/31 31/16/32 29/15/31
f 30/15/31 32/16/31 29/15/31
f 34/17/33 33/17/34 31/16/33
f 32/16/35 34/17/33 31/16/33
f 36/18/36 35/18/36 33/17/36
f 34/17/37 36/18/36 33/17/36
f 38/19/38 37/19/39 35/18/39
f 36/18/38 38/19/38 35/18/39
f 40/20/40 39/20/40 37/19/40
f 38/19/40 40/20/40 37/19/40
f 42/21/41 41/21/41 39/20/41
f 40/20/41 42/21/41 39/20/41
f 44/22/42 43/22/43 41/21/43
f 42/21/43 44/22/42 41/21/43
f 46/23/44 45/23/45 43/22/44
f 44/22/44 46/23/44 43/22/44
f 48/24/46 47/24/46 45/23/46
f 46/23/46 48/24/46 45/23/46
f 50/25/47 49/25/47 47/24/47
f 48/24/48 50/25/47 47/24/47
f 52/26/49 51/26/49 49/25/49
f 50/25/49 52/26/49 49/25/49
f 54/27/50 53/27/51 51/26/50
f 52/26/52 54/27/50 51/26/50
f 56/28/53 55/28/54 53/27/53
f 54/27/53 56/28/53 53/27/53
f 58/29/55 57/29/56 55/28/57
f 56/28/57 58/29/55 55/28/57
f 60/30/58 59/30/58 57/29/58
f 58/29/59 60/30/58 57/29/58
f 62/31/60 61/31/61 59/30/61
f 60/30/60 62/31/60 59/30/61
f 64/32/62 63/32/63 61/31/63
f 62/31/62 64/32/62 61/31/63
f 66/33/64 65/33/65 63/32/66
f 64/32/64 66/33/64 63/32/66
f 68/34/67 67/34/67 65/33/67
f 66/33/67 68/34/67 65/33/67
f 70/35/68 69/35/68 67/34/68
f 68/34/69 70/35/68 67/34/68
f 72/36/70 71/36/71 69/35/71
f 70/35/70 72/36/70 69/35/71
f 74/37/72 73/37/73 71/36/74
f 72/36/72 74/37/72 71/36/74
f 76/38/75 75/38/75 73/37/75
f 74/37/76 76/38/75 73/37/75
f 78/39/77 77/39/77 75/38/77
f 76/38/77 78/39/77 75/38/77
f 80/40/78 79/40/78 77/39/79
f 78/39/79 80/40/78 77/39/79
f 4/2/80 1/2/80 79/40/80
f 80/40/80 4/2/80 79/40/80
f 79/40/81 1/2/81 77/39/81
f 1/2/81 2/1/81 77/39/81
f 2/1/81 5/3/82 77/39/81
f 5/3/82 7/4/83 77/39/81
f 27/14/81 29/15/81 25/13/81
f 25/13/81 29/15/81 23/12/84
f 23/12/84 29/15/81 21/11/82
f 21/11/82 29/15/81 19/10/83
f 29/15/81 31/16/81 19/10/83
f 17/9/81 19/10/83 15/8/85
f 9/5/81 11/6/85 7/4/83
f 7/4/83 11/6/85 77/39/81
f 67/34/81 69/35/81 65/33/83
f 65/33/83 69/35/81 63/32/81
f 69/35/81 71/36/81 63/32/81
f 19/10/83 31/16/81 15/8/85
f 31/16/81 33/17/84 15/8/85
f 13/7/81 15/8/85 11/6/85
f 15/8/85 33/17/84 11/6/85
f 11/6/85 33/17/84 77/39/81
f 73/37/81 75/38/81 71/36/81
f 71/36/81 75/38/81 63/32/81
f 75/38/81 77/39/81 63/32/81
f 63/32/81 77/39/81 61/31/83
f 77/39/81 33/17/84 61/31/83
f 61/31/83 33/17/84 59/30/81
f 59/30/81 33/17/84 57/29/81
f 33/17/84 35/18/83 57/29/81
f 37/19/83 39/20/85 35/18/83
f 35/18/83 39/20/85 57/29/81
f 39/20/85 41/21/81 57/29/81
f 57/29/81 41/21/81 55/28/81
f 55/28/81 41/21/81 53/27/81
f 53/27/81 41/21/81 51/26/81
f 51/26/81 41/21/81 49/25/83
f 41/21/81 43/22/81 49/25/83
f 43/22/81 45/23/83 49/25/83
f 45/23/83 47/24/82 49/25/83
f 4/2/86 80/40/86 78/39/86
f 3/1/86 4/2/86 78/39/86
f 6/3/86 3/1/86 78/39/86
f 8/4/86 6/3/86 78/39/86
f 30/15/86 28/14/86 26/13/87
f 30/15/86 26/13/87 24/12/86
f 30/15/86 24/12/86 22/11/86
f 30/15/86 22/11/86 20/10/86
f 32/16/86 30/15/86 20/10/86
f 20/10/86 18/9/86 16/8/87
f 12/6/86 10/5/86 8/4/86
f 12/6/86 8/4/86 78/39/86
f 70/35/87 68/34/86 66/33/88
f 70/35/87 66/33/88 64/32/88
f 72/36/87 70/35/87 64/32/88
f 32/16/86 20/10/86 16/8/87
f 34/17/89 32/16/86 16/8/87
f 16/8/87 14/7/88 12/6/86
f 34/17/89 16/8/87 12/6/86
f 34/17/89 12/6/86 78/39/86
f 76/38/86 74/37/90 72/36/87
f 76/38/86 72/36/87 64/32/88
f 78/39/86 76/38/86 64/32/88
f 78/39/86 64/32/88 62/31/88
f 34/17/89 78/39/86 62/31/88
f 34/17/89 62/31/88 60/30/86
f 34/17/89 60/30/86 58/29/90
f 36/18/90 34/17/89 58/29/90
f 40/20/88 38/19/87 36/18/90
f 40/20/88 36/18/90 58/29/90
f 42/21/86 40/20/88 58/29/90
f 42/21/86 58/29/90 56/28/86
f 42/21/86 56/28/86 54/27/86
f 42/21/86 54/27/86 52/26/86
f 42/21/86 52/26/86 50/25/86
f 44/22/88 42/21/86 50/25/86
f 46/23/90 44/22/88 50/25/86
f 48/24/86 46/23/90 50/25/86
