# Blender 4.3.2
# www.blender.org
mtllib 屋顶枢轴.mtl
o Obj3d66_17342430_19_701
v 3982.016357 935.692444 -28315.175781
v 1890.315308 935.692444 -28315.175781
v 1890.315308 992.814392 -28315.175781
v 3982.016357 992.814392 -28315.175781
v 1890.315186 935.692505 -27336.126953
v 1890.315186 992.814453 -27336.126953
v 3982.016357 935.692505 -27336.126953
v 3982.016357 992.814514 -27336.126953
v 3994.107422 911.932556 -28328.136719
v 1878.224609 911.932434 -28328.138672
v 1878.224609 935.692444 -28328.136719
v 3994.107178 935.692444 -28328.136719
v 1878.224365 911.932495 -27323.166016
v 1878.224365 935.692505 -27323.166016
v 3994.107422 911.932617 -27323.166016
v 3994.107178 935.692505 -27323.166016
v 3916.271484 911.932617 -27406.601562
v 1956.016113 911.932495 -27406.601562
v 1956.016113 935.692505 -27406.601562
v 3916.271484 935.692505 -27406.601562
v 1956.016113 911.932434 -28244.701172
v 1956.016113 935.692444 -28244.701172
v 3916.271484 911.932556 -28244.701172
v 3916.271484 935.692444 -28244.701172
vn -0.0000 -0.0000 -1.0000
vn -1.0000 -0.0000 -0.0000
vn -0.0000 -0.0000 1.0000
vn 1.0000 -0.0000 -0.0000
vn -0.0000 -1.0000 -0.0000
vn -0.0000 1.0000 -0.0000
vn -0.0000 0.0001 -1.0000
vt 0.006200 0.294000
vt 0.993800 0.294000
vt 0.993800 0.999500
vt 0.006200 0.999500
vt 0.013400 0.294000
vt 0.986600 0.294000
vt 0.986600 0.999500
vt 0.013400 0.999500
vt 0.993800 0.013400
vt 0.006200 0.986600
vt 0.006200 0.013400
vt 0.993800 0.986600
vt 0.000500 0.000500
vt 0.999500 0.000500
vt 0.999500 0.294000
vt 0.000500 0.294000
vt 0.037200 0.000500
vt 0.962800 0.000500
vt 0.962800 0.294000
vt 0.037200 0.294000
vt 0.083400 0.000500
vt 0.916600 0.000500
vt 0.916600 0.294000
vt 0.083400 0.294000
vt 0.037200 0.916600
vt 0.000500 0.999500
vt 0.037200 0.083400
vt 0.962800 0.083400
vt 0.999500 0.999500
vt 0.962800 0.916600
s 1
usemtl 3d66_Standardmaterial_17342430_097
f 1/1/1 2/2/1 3/3/1
f 1/1/1 3/3/1 4/4/1
f 2/5/2 5/6/2 6/7/2
f 2/5/2 6/7/2 3/8/2
f 5/1/3 7/2/3 8/3/3
f 5/1/3 8/3/3 6/4/3
f 7/5/4 1/6/4 4/7/4
f 7/5/4 4/7/4 8/8/4
f 5/9/5 1/10/5 7/11/5
f 5/9/5 2/12/5 1/10/5
f 6/11/6 8/9/6 4/12/6
f 6/11/6 4/12/6 3/10/6
f 9/13/1 10/14/7 11/15/7
f 9/13/1 11/15/7 12/16/1
f 10/13/2 13/14/2 14/15/2
f 10/13/2 14/15/2 11/16/2
f 13/13/3 15/14/3 16/15/3
f 13/13/3 16/15/3 14/16/3
f 15/13/4 9/14/4 12/15/4
f 15/13/4 12/15/4 16/16/4
f 17/17/1 18/18/1 19/19/1
f 17/17/1 19/19/1 20/20/1
f 18/21/4 21/22/4 22/23/4
f 18/21/4 22/23/4 19/24/4
f 21/17/3 23/18/3 24/19/3
f 21/17/3 24/19/3 22/20/3
f 23/21/2 17/22/2 20/23/2
f 23/21/2 20/23/2 24/24/2
f 23/25/5 9/26/5 17/27/5
f 15/13/5 17/27/5 9/26/5
f 13/14/5 17/27/5 15/13/5
f 13/14/5 18/28/5 17/27/5
f 10/29/5 18/28/5 13/14/5
f 10/29/5 21/30/5 18/28/5
f 23/25/5 10/29/5 9/26/5
f 21/30/5 10/29/5 23/25/5
f 24/30/6 20/28/6 12/29/6
f 16/14/6 12/29/6 20/28/6
f 14/13/6 16/14/6 20/28/6
f 14/13/6 20/28/6 19/27/6
f 11/26/6 14/13/6 19/27/6
f 11/26/6 19/27/6 22/25/6
f 24/30/6 12/29/6 11/26/6
f 22/25/6 24/30/6 11/26/6
