# Blender 4.3.2
# www.blender.org
mtllib 左鸱吻.mtl
o Obj3d66_17342430_12_349
v 3577.306152 1327.281128 -27841.611328
v 3580.658936 1332.439209 -27841.611328
v 3580.658936 1332.439209 -27823.992188
v 3577.306152 1327.281128 -27823.992188
v 3575.502441 1344.044800 -27841.611328
v 3575.502441 1344.044800 -27823.992188
v 3576.018799 1349.202759 -27841.611328
v 3576.018799 1349.202759 -27823.992188
v 3581.175293 1351.523804 -27841.611328
v 3581.175293 1351.523804 -27823.992188
v 3580.658936 1357.455566 -27841.611328
v 3580.658936 1357.455566 -27823.992188
v 3589.687988 1362.097778 -27841.611328
v 3589.687988 1362.097778 -27823.992188
v 3589.942627 1369.576782 -27841.611328
v 3589.942627 1369.576782 -27823.992188
v 3582.724365 1410.067261 -27841.611328
v 3582.724365 1410.067261 -27823.992188
v 3576.789795 1410.840820 -27841.611328
v 3576.789795 1410.840820 -27823.992188
v 3574.469727 1434.051880 -27841.611328
v 3574.469727 1434.051880 -27823.992188
v 3567.505859 1439.209839 -27841.611328
v 3567.505859 1439.209839 -27823.992188
v 3559.771484 1439.983643 -27841.611328
v 3559.771484 1439.983643 -27823.992188
v 3552.291260 1435.083496 -27841.611328
v 3552.291260 1435.083496 -27823.992188
v 3555.127686 1428.120239 -27841.611328
v 3555.127686 1428.120239 -27823.992188
v 3553.836670 1413.161987 -27841.611328
v 3553.836670 1413.161987 -27823.992188
v 3549.713135 1411.872437 -27841.611328
v 3549.713135 1411.872437 -27823.992188
v 3547.389404 1418.062134 -27841.611328
v 3547.389404 1418.062134 -27823.992188
v 3539.138428 1421.156860 -27841.611328
v 3539.138428 1421.156860 -27823.992188
v 3534.236572 1418.320068 -27841.611328
v 3534.236572 1418.320068 -27823.992188
v 3526.760254 1423.220093 -27841.611328
v 3526.760254 1423.220093 -27823.992188
v 3528.047363 1428.893921 -27841.611328
v 3528.047363 1428.893921 -27823.992188
v 3527.018311 1438.436157 -27841.611328
v 3527.018311 1438.436157 -27823.992188
v 3520.054688 1447.462646 -27841.611328
v 3520.054688 1447.462646 -27823.992188
v 3509.996338 1448.752319 -27841.611328
v 3509.996338 1448.752319 -27823.992188
v 3496.327148 1446.689087 -27841.611328
v 3496.327148 1446.689087 -27823.992188
v 3487.814209 1433.794067 -27841.611328
v 3487.814209 1433.794067 -27823.992188
v 3489.879883 1419.351685 -27841.611328
v 3489.879883 1419.351685 -27823.992188
v 3501.225342 1399.235352 -27841.611328
v 3501.225342 1399.235352 -27823.992188
v 3505.869141 1386.082397 -27841.611328
v 3505.869141 1386.082397 -27823.992188
v 3504.648193 1379.702148 -27841.611328
v 3504.648193 1379.702148 -27823.992188
v 3498.905273 1378.861206 -27841.611328
v 3498.905273 1378.861206 -27823.992188
v 3494.519775 1383.503418 -27841.611328
v 3494.519775 1383.503418 -27823.992188
v 3489.621582 1384.019287 -27841.611328
v 3489.621582 1384.019287 -27823.992188
v 3486.744629 1378.295898 -27841.611328
v 3486.744629 1378.295898 -27823.992188
v 3487.260986 1374.010620 -27841.611328
v 3487.260986 1374.010620 -27823.992188
v 3486.058594 1368.889160 -27841.611328
v 3486.058594 1368.889160 -27823.992188
v 3495.036133 1360.550415 -27841.611328
v 3495.036133 1360.550415 -27823.992188
v 3506.643555 1360.034546 -27841.611328
v 3506.643555 1360.034546 -27823.992188
v 3506.901855 1327.539185 -27841.611328
v 3506.901855 1327.539185 -27823.992188
vn 0.8384 -0.5450 -0.0000
vn 0.9139 0.4060 -0.0000
vn 0.9138 0.4061 -0.0000
vn 0.9950 -0.0996 -0.0000
vn 0.9950 -0.0995 -0.0000
vn 0.9950 -0.0997 -0.0000
vn 0.4105 -0.9119 -0.0000
vn 0.4104 -0.9119 -0.0000
vn 0.9962 0.0867 -0.0000
vn 0.9962 0.0868 -0.0000
vn 0.4572 -0.8893 -0.0000
vn 0.4572 -0.8894 -0.0000
vn 0.9994 -0.0340 -0.0000
vn 0.9845 0.1755 -0.0000
vn 0.1292 0.9916 -0.0000
vn 0.9950 0.0994 -0.0000
vn 0.9950 0.0995 -0.0000
vn 0.5952 0.8036 -0.0000
vn 0.5953 0.8035 -0.0000
vn 0.5951 0.8036 -0.0000
vn 0.0995 0.9950 -0.0000
vn -0.5480 0.8365 -0.0000
vn -0.5479 0.8365 -0.0000
vn -0.5479 0.8366 -0.0000
vn -0.9261 -0.3772 -0.0000
vn -0.9262 -0.3771 -0.0000
vn -0.9261 -0.3773 -0.0000
vn -0.9963 0.0860 -0.0000
vn -0.2985 0.9544 -0.0000
vn 0.9362 0.3515 -0.0000
vn 0.3512 0.9363 -0.0000
vn 0.3511 0.9363 -0.0000
vn -0.5009 0.8655 -0.0000
vn 0.5482 0.8364 -0.0000
vn 0.5482 0.8363 -0.0000
vn 0.9752 -0.2212 -0.0000
vn 0.9942 0.1072 -0.0000
vn 0.9942 0.1071 -0.0000
vn 0.9942 0.1073 -0.0000
vn 0.7918 0.6108 -0.0000
vn 0.7917 0.6108 -0.0000
vn 0.1272 0.9919 -0.0000
vn 0.1271 0.9919 -0.0000
vn -0.1493 0.9888 -0.0000
vn -0.1492 0.9888 -0.0000
vn -0.8345 0.5510 -0.0000
vn -0.8346 0.5509 -0.0000
vn -0.8346 0.5508 -0.0000
vn -0.9899 -0.1416 -0.0000
vn -0.9899 -0.1415 -0.0000
vn -0.8710 -0.4913 -0.0000
vn -0.8709 -0.4915 -0.0000
vn -0.8710 -0.4912 -0.0000
vn -0.9430 -0.3329 -0.0000
vn -0.9822 0.1880 -0.0000
vn -0.9822 0.1879 -0.0000
vn -0.1449 0.9894 -0.0000
vn -0.1449 0.9895 -0.0000
vn 0.7269 0.6867 -0.0000
vn 0.7270 0.6867 -0.0000
vn 0.7269 0.6868 -0.0000
vn 0.1047 0.9945 -0.0000
vn -0.8935 0.4491 -0.0000
vn -0.9928 -0.1196 -0.0000
vn -0.9928 -0.1197 -0.0000
vn -0.9735 0.2285 -0.0000
vn -0.9735 0.2288 -0.0000
vn -0.9735 0.2287 -0.0000
vn -0.6806 -0.7327 -0.0000
vn -0.6806 -0.7326 -0.0000
vn -0.6805 -0.7327 -0.0000
vn -0.0444 -0.9990 -0.0000
vn -1.0000 -0.0079 -0.0000
vn -1.0000 -0.0080 -0.0000
vn -0.0037 -1.0000 -0.0000
vn 0.0001 -0.0000 -1.0000
vn -0.0000 -0.0000 -1.0000
vn 0.0002 -0.0000 -1.0000
vn 0.0003 -0.0000 -1.0000
vn -0.0002 -0.0000 -1.0000
vn -0.0001 -0.0000 -1.0000
vn -0.0000 -0.0000 1.0000
vn -0.0001 -0.0000 1.0000
vn 0.0002 -0.0000 1.0000
vn 0.0001 -0.0000 1.0000
vn -0.0002 -0.0000 1.0000
vt 0.872100 0.000500
vt 0.903400 0.042900
vt 0.855300 0.138400
vt 0.860100 0.180800
vt 0.908200 0.199900
vt 0.903400 0.248700
vt 0.987700 0.286800
vt 0.990100 0.348300
vt 0.922700 0.681300
vt 0.867300 0.687700
vt 0.845600 0.878600
vt 0.780600 0.921000
vt 0.708400 0.927400
vt 0.638600 0.887100
vt 0.665000 0.829800
vt 0.653000 0.706800
vt 0.614500 0.696200
vt 0.592800 0.747100
vt 0.515800 0.772600
vt 0.470000 0.749200
vt 0.400200 0.789500
vt 0.412200 0.836200
vt 0.402600 0.914700
vt 0.337600 0.988900
vt 0.243700 0.999500
vt 0.116100 0.982500
vt 0.036600 0.876500
vt 0.055900 0.757700
vt 0.161800 0.592300
vt 0.205100 0.484100
vt 0.193700 0.431600
vt 0.140100 0.424700
vt 0.099200 0.462900
vt 0.053400 0.467100
vt 0.026600 0.420100
vt 0.031400 0.384800
vt 0.020200 0.342700
vt 0.104000 0.274100
vt 0.212400 0.269900
vt 0.214800 0.002600
s 1
usemtl 3d66_Standardmaterial_17342430_086
f 1/1/1 2/2/1 3/2/1
f 1/1/1 3/2/1 4/1/1
f 2/2/2 5/3/2 6/3/3
f 2/2/2 6/3/3 3/2/3
f 5/3/4 7/4/5 8/4/6
f 5/3/4 8/4/6 6/3/6
f 7/4/7 9/5/7 10/5/8
f 7/4/7 10/5/8 8/4/8
f 9/5/9 11/6/9 12/6/9
f 9/5/9 12/6/9 10/5/10
f 11/6/11 13/7/11 14/7/12
f 11/6/11 14/7/12 12/6/12
f 13/7/13 15/8/13 16/8/13
f 13/7/13 16/8/13 14/7/13
f 15/8/14 17/9/14 18/9/14
f 15/8/14 18/9/14 16/8/14
f 17/9/15 19/10/15 20/10/15
f 17/9/15 20/10/15 18/9/15
f 19/10/16 21/11/17 22/11/16
f 19/10/16 22/11/16 20/10/16
f 21/11/18 23/12/19 24/12/20
f 21/11/18 24/12/20 22/11/19
f 23/12/21 25/13/21 26/13/21
f 23/12/21 26/13/21 24/12/21
f 25/13/22 27/14/22 28/14/23
f 25/13/22 28/14/23 26/13/24
f 27/14/25 29/15/26 30/15/27
f 27/14/25 30/15/27 28/14/27
f 29/15/28 31/16/28 32/16/28
f 29/15/28 32/16/28 30/15/28
f 31/16/29 33/17/29 34/17/29
f 31/16/29 34/17/29 32/16/29
f 33/17/30 35/18/30 36/18/30
f 33/17/30 36/18/30 34/17/30
f 35/18/31 37/19/31 38/19/32
f 35/18/31 38/19/32 36/18/32
f 37/19/33 39/20/33 40/20/33
f 37/19/33 40/20/33 38/19/33
f 39/20/34 41/21/34 42/21/35
f 39/20/34 42/21/35 40/20/35
f 41/21/36 43/22/36 44/22/36
f 41/21/36 44/22/36 42/21/36
f 43/22/37 45/23/38 46/23/37
f 43/22/37 46/23/37 44/22/39
f 45/23/40 47/24/41 48/24/40
f 45/23/40 48/24/40 46/23/40
f 47/24/42 49/25/42 50/25/42
f 47/24/42 50/25/42 48/24/43
f 49/25/44 51/26/44 52/26/45
f 49/25/44 52/26/45 50/25/45
f 51/26/46 53/27/47 54/27/46
f 51/26/46 54/27/46 52/26/48
f 53/27/49 55/28/50 56/28/49
f 53/27/49 56/28/49 54/27/49
f 55/28/51 57/29/52 58/29/53
f 55/28/51 58/29/53 56/28/51
f 57/29/54 59/30/54 60/30/54
f 57/29/54 60/30/54 58/29/54
f 59/30/55 61/31/55 62/31/56
f 59/30/55 62/31/56 60/30/56
f 61/31/57 63/32/57 64/32/58
f 61/31/57 64/32/58 62/31/58
f 63/32/59 65/33/60 66/33/61
f 63/32/59 66/33/61 64/32/61
f 65/33/62 67/34/62 68/34/62
f 65/33/62 68/34/62 66/33/62
f 67/34/63 69/35/63 70/35/63
f 67/34/63 70/35/63 68/34/63
f 69/35/64 71/36/64 72/36/65
f 69/35/64 72/36/65 70/35/65
f 71/36/66 73/37/67 74/37/68
f 71/36/66 74/37/68 72/36/68
f 73/37/69 75/38/70 76/38/69
f 73/37/69 76/38/69 74/37/71
f 75/38/72 77/39/72 78/39/72
f 75/38/72 78/39/72 76/38/72
f 77/39/73 79/40/74 80/40/74
f 77/39/73 80/40/74 78/39/73
f 79/40/75 1/1/75 4/1/75
f 79/40/75 4/1/75 80/40/75
f 77/39/76 1/1/76 79/40/77
f 77/39/76 2/2/76 1/1/76
f 77/39/76 5/3/77 2/2/76
f 77/39/76 7/4/76 5/3/77
f 25/13/76 29/15/76 27/14/77
f 23/12/77 29/15/76 25/13/76
f 21/11/77 29/15/76 23/12/77
f 19/10/76 29/15/76 21/11/77
f 19/10/76 31/16/78 29/15/76
f 15/8/79 19/10/76 17/9/80
f 7/4/76 11/6/79 9/5/77
f 77/39/76 11/6/79 7/4/76
f 65/33/77 69/35/78 67/34/77
f 63/32/77 69/35/78 65/33/77
f 63/32/77 71/36/77 69/35/78
f 15/8/79 31/16/78 19/10/76
f 15/8/79 33/17/81 31/16/78
f 11/6/79 15/8/79 13/7/77
f 11/6/79 33/17/81 15/8/79
f 77/39/76 33/17/81 11/6/79
f 71/36/77 75/38/81 73/37/81
f 63/32/77 75/38/81 71/36/77
f 63/32/77 77/39/76 75/38/81
f 61/31/77 77/39/76 63/32/77
f 61/31/77 33/17/81 77/39/76
f 59/30/77 33/17/81 61/31/77
f 57/29/76 33/17/81 59/30/77
f 57/29/76 35/18/77 33/17/81
f 35/18/77 39/20/80 37/19/77
f 57/29/76 39/20/80 35/18/77
f 57/29/76 41/21/81 39/20/80
f 55/28/76 41/21/81 57/29/76
f 53/27/77 41/21/81 55/28/76
f 51/26/77 41/21/81 53/27/77
f 49/25/77 41/21/81 51/26/77
f 49/25/77 43/22/80 41/21/81
f 49/25/77 45/23/77 43/22/80
f 49/25/77 47/24/77 45/23/77
f 78/39/82 80/40/82 4/1/83
f 78/39/82 4/1/83 3/2/83
f 78/39/82 3/2/83 6/3/82
f 78/39/82 6/3/82 8/4/82
f 26/13/82 28/14/82 30/15/82
f 24/12/82 26/13/82 30/15/82
f 22/11/82 24/12/82 30/15/82
f 20/10/82 22/11/82 30/15/82
f 20/10/82 30/15/82 32/16/84
f 16/8/82 18/9/85 20/10/82
f 8/4/82 10/5/82 12/6/82
f 78/39/82 8/4/82 12/6/82
f 66/33/86 68/34/82 70/35/83
f 64/32/85 66/33/86 70/35/83
f 64/32/85 70/35/83 72/36/85
f 16/8/82 20/10/82 32/16/84
f 16/8/82 32/16/84 34/17/86
f 12/6/82 14/7/82 16/8/82
f 12/6/82 16/8/82 34/17/86
f 78/39/82 12/6/82 34/17/86
f 72/36/85 74/37/85 76/38/83
f 64/32/85 72/36/85 76/38/83
f 64/32/85 76/38/83 78/39/82
f 62/31/84 64/32/85 78/39/82
f 62/31/84 78/39/82 34/17/86
f 60/30/82 62/31/84 34/17/86
f 58/29/82 60/30/82 34/17/86
f 58/29/82 34/17/86 36/18/82
f 36/18/82 38/19/82 40/20/85
f 58/29/82 36/18/82 40/20/85
f 58/29/82 40/20/85 42/21/83
f 56/28/82 58/29/82 42/21/83
f 54/27/82 56/28/82 42/21/83
f 52/26/82 54/27/82 42/21/83
f 50/25/83 52/26/82 42/21/83
f 50/25/83 42/21/83 44/22/85
f 50/25/83 44/22/85 46/23/85
f 50/25/83 46/23/85 48/24/82
